NotoSans-Regular.ufo
<glyph name="parenleft" format="2">
  <advance width="603.9375"/>
  <unicode hex="0028"/>
  <outline>
    <contour>
      <point x="82.4375" y="561.0" type="curve" smooth="yes"/>
      <point x="82.4375" y="227.9375"/>
      <point x="178.296875" y="-85.09375"/>
      <point x="383.0" y="-324.0" type="curve"/>
      <point x="540.0625" y="-324.0" type="line"/>
      <point x="349.09375" y="-69.3125"/>
      <point x="250.546875" y="243.484375"/>
      <point x="250.546875" y="563.0" type="curve" smooth="yes"/>
      <point x="250.546875" y="889.1875"/>
      <point x="348.65625" y="1207.640625"/>
      <point x="541.84375" y="1462.0" type="curve"/>
      <point x="383.0" y="1462.0" type="line"/>
      <point x="178.296875" y="1216.953125"/>
      <point x="82.4375" y="898.171875"/>
    </contour>
  </outline>
</glyph>
<glyph name="parenright" format="2">
  <advance width="603.9375"/>
  <unicode hex="0029"/>
  <outline>
    <contour>
      <point x="521.71875" y="562.859375" type="curve" smooth="yes"/>
      <point x="521.71875" y="899.484375"/>
      <point x="425.96875" y="1216.078125"/>
      <point x="221.15625" y="1462.0" type="curve"/>
      <point x="62.421875" y="1462.0" type="line"/>
      <point x="255.171875" y="1207.421875"/>
      <point x="353.609375" y="890.0625"/>
      <point x="353.609375" y="564.3125" type="curve" smooth="yes"/>
      <point x="353.609375" y="244.359375"/>
      <point x="255.609375" y="-69.53125"/>
      <point x="64.203125" y="-324.0" type="curve"/>
      <point x="221.15625" y="-324.0" type="line"/>
      <point x="425.96875" y="-85.96875"/>
      <point x="521.71875" y="229.25"/>
    </contour>
  </outline>
</glyph>
<glyph name="asterisk" format="2">
  <advance width="1128.0"/>
  <unicode hex="002A"/>
  <outline>
    <contour>
      <point x="651.234375" y="1555.5625" type="line"/>
      <point x="466.765625" y="1555.5625" type="line"/>
      <point x="506.484375" y="1159.390625" type="line"/>
      <point x="116.5" y="1273.78125" type="line"/>
      <point x="88.703125" y="1099.4375" type="line"/>
      <point x="465.203125" y="1059.921875" type="line"/>
      <point x="223.453125" y="734.828125" type="line"/>
      <point x="390.796875" y="645.71875" type="line"/>
      <point x="557.21875" y="1002.40625" type="line"/>
      <point x="738.21875" y="645.5" type="line"/>
      <point x="900.109375" y="734.828125" type="line"/>
      <point x="655.6875" y="1059.921875" type="line"/>
      <point x="1034.421875" y="1099.4375" type="line"/>
      <point x="1007.734375" y="1273.78125" type="line"/>
      <point x="613.296875" y="1159.390625" type="line"/>
    </contour>
  </outline>
</glyph>
<glyph name="comma" format="2">
  <advance width="529.96875"/>
  <unicode hex="002C"/>
  <outline>
    <contour>
      <point x="364.890625" y="238.0" type="line"/>
      <point x="186.765625" y="238.0" type="line"/>
      <point x="166.4375" y="92.6875"/>
      <point x="124.53125" y="-104.296875"/>
      <point x="83.34375" y="-264.0" type="curve"/>
      <point x="206.71875" y="-264.0" type="line"/>
      <point x="271.734375" y="-117.65625"/>
      <point x="341.671875" y="69.015625"/>
      <point x="378.015625" y="214.78125" type="curve"/>
    </contour>
  </outline>
</glyph>
<glyph name="four" format="2">
  <advance width="1170.5625"/>
  <unicode hex="0034"/>
  <outline>
    <contour>
      <point x="1131.859375" y="339.109375" type="line"/>
      <point x="1131.859375" y="489.078125" type="line"/>
      <point x="912.96875" y="489.078125" type="line"/>
      <point x="912.96875" y="1470.0" type="line"/>
      <point x="740.1875" y="1470.0" type="line"/>
      <point x="43.875" y="479.421875" type="line"/>
      <point x="43.875" y="339.109375" type="line"/>
      <point x="751.3125" y="339.109375" type="line"/>
      <point x="751.3125" y="0.0" type="line"/>
      <point x="912.96875" y="0.0" type="line"/>
      <point x="912.96875" y="339.109375" type="line"/>
    </contour>
    <contour>
      <point x="751.3125" y="489.078125" type="line"/>
      <point x="208.5" y="489.078125" type="line"/>
      <point x="660.171875" y="1128.28125" type="line" smooth="yes"/>
      <point x="692.78125" y="1173.984375"/>
      <point x="728.140625" y="1238.375"/>
      <point x="752.875" y="1291.890625" type="curve"/>
      <point x="761.328125" y="1291.890625" type="line"/>
      <point x="757.546875" y="1200.25"/>
      <point x="751.3125" y="1112.734375"/>
      <point x="751.3125" y="967.015625" type="curve" smooth="yes"/>
    </contour>
  </outline>
</glyph>
<glyph name="six" format="2">
  <advance width="1170.5625"/>
  <unicode hex="0036"/>
  <outline>
    <contour>
      <point x="115.84375" y="624.5625" type="curve" smooth="yes"/>
      <point x="115.84375" y="199.234375"/>
      <point x="324.78125" y="-20.0"/>
      <point x="610.21875" y="-20.0" type="curve" smooth="yes"/>
      <point x="894.5625" y="-20.0"/>
      <point x="1072.375" y="167.09375"/>
      <point x="1072.375" y="469.90625" type="curve" smooth="yes"/>
      <point x="1072.375" y="751.046875"/>
      <point x="903.6875" y="913.25"/>
      <point x="647.9375" y="913.25" type="curve" smooth="yes"/>
      <point x="465.375" y="913.25"/>
      <point x="353.984375" y="832.78125"/>
      <point x="292.96875" y="733.8125" type="curve"/>
      <point x="281.734375" y="733.8125" type="line"/>
      <point x="295.625" y="1079.515625"/>
      <point x="410.1875" y="1346.046875"/>
      <point x="782.28125" y="1346.046875" type="curve" smooth="yes"/>
      <point x="846.46875" y="1346.046875"/>
      <point x="911.90625" y="1337.5"/>
      <point x="961.796875" y="1321.28125" type="curve"/>
      <point x="961.796875" y="1463.5625" type="line"/>
      <point x="915.703125" y="1477.0"/>
      <point x="839.34375" y="1483.4375"/>
      <point x="778.71875" y="1483.4375" type="curve" smooth="yes"/>
      <point x="249.59375000000003" y="1483.4375"/>
      <point x="115.84375" y="1065.984375"/>
    </contour>
    <contour>
      <point x="608.4375" y="120.06249999999999" type="curve" smooth="yes"/>
      <point x="387.875" y="120.06249999999999"/>
      <point x="285.15625" y="332.265625"/>
      <point x="285.15625" y="508.40625" type="curve" smooth="yes"/>
      <point x="285.15625" y="638.390625"/>
      <point x="415.4375" y="782.09375"/>
      <point x="614.984375" y="782.09375" type="curve" smooth="yes"/>
      <point x="810.546875" y="782.09375"/>
      <point x="907.71875" y="661.703125"/>
      <point x="907.71875" y="469.90625" type="curve" smooth="yes"/>
      <point x="907.71875" y="235.078125"/>
      <point x="788.75" y="120.06249999999999"/>
    </contour>
  </outline>
</glyph>
<glyph name="seven" format="2">
  <advance width="1170.5625"/>
  <unicode hex="0037"/>
  <outline>
    <contour>
      <point x="289.5" y="0.0" type="line"/>
      <point x="472.296875" y="0.0" type="line"/>
      <point x="1068.046875" y="1334.375" type="line"/>
      <point x="1068.046875" y="1462.0" type="line"/>
      <point x="93.171875" y="1462.0" type="line"/>
      <point x="93.171875" y="1310.359375" type="line"/>
      <point x="890.375" y="1310.359375" type="line"/>
    </contour>
  </outline>
</glyph>
<glyph name="nine" format="2">
  <advance width="1170.5625"/>
  <unicode hex="0039"/>
  <outline>
    <contour>
      <point x="1060.515625" y="838.875" type="curve" smooth="yes"/>
      <point x="1060.515625" y="1261.859375"/>
      <point x="854.015625" y="1483.0"/>
      <point x="567.03125" y="1483.0" type="curve" smooth="yes"/>
      <point x="285.359375" y="1483.0"/>
      <point x="103.203125" y="1293.34375"/>
      <point x="103.203125" y="990.859375" type="curve" smooth="yes"/>
      <point x="103.203125" y="710.28125"/>
      <point x="269.5625" y="548.75"/>
      <point x="523.640625" y="548.75" type="curve" smooth="yes"/>
      <point x="707.875" y="548.75"/>
      <point x="820.59375" y="630.328125"/>
      <point x="880.828125" y="726.84375" type="curve"/>
      <point x="892.84375" y="726.84375" type="line"/>
      <point x="879.953125" y="381.359375"/>
      <point x="765.734375" y="116.06249999999999"/>
      <point x="391.515625" y="116.06249999999999" type="curve" smooth="yes"/>
      <point x="327.78125" y="116.06249999999999"/>
      <point x="256.03125" y="126.49999999999999"/>
      <point x="206.921875" y="143.609375" type="curve"/>
      <point x="206.921875" y="0.21875000000000022" type="line"/>
      <point x="253.125" y="-14.0"/>
      <point x="337.34375" y="-20.546875"/>
      <point x="395.078125" y="-20.546875" type="curve" smooth="yes"/>
      <point x="925.875" y="-20.546875"/>
      <point x="1060.515625" y="396.234375"/>
    </contour>
    <contour>
      <point x="567.03125" y="1342.046875" type="curve" smooth="yes"/>
      <point x="789.484375" y="1342.046875"/>
      <point x="891.203125" y="1129.171875"/>
      <point x="891.203125" y="954.03125" type="curve" smooth="yes"/>
      <point x="891.203125" y="822.15625"/>
      <point x="762.484375" y="679.90625"/>
      <point x="558.8125" y="679.90625" type="curve" smooth="yes"/>
      <point x="362.25" y="679.90625"/>
      <point x="268.640625" y="798.734375"/>
      <point x="268.640625" y="992.640625" type="curve" smooth="yes"/>
      <point x="268.640625" y="1226.359375"/>
      <point x="388.5" y="1342.046875"/>
    </contour>
  </outline>
</glyph>
<glyph name="colon" format="2">
  <advance width="538.28125"/>
  <unicode hex="003A"/>
  <outline>
    <contour>
      <point x="149.953125" y="104.0" type="curve" smooth="yes"/>
      <point x="149.953125" y="12.0"/>
      <point x="200.921875" y="-27.578125"/>
      <point x="266.859375" y="-27.578125" type="curve" smooth="yes"/>
      <point x="334.5625" y="-27.578125"/>
      <point x="387.875" y="12.0"/>
      <point x="387.875" y="104.0" type="curve" smooth="yes"/>
      <point x="387.875" y="196.671875"/>
      <point x="334.5625" y="233.015625"/>
      <point x="266.859375" y="233.015625" type="curve" smooth="yes"/>
      <point x="200.921875" y="233.015625"/>
      <point x="149.953125" y="196.671875"/>
    </contour>
    <contour>
      <point x="149.953125" y="991.265625" type="curve" smooth="yes"/>
      <point x="149.953125" y="900.15625"/>
      <point x="200.921875" y="860.578125"/>
      <point x="266.859375" y="860.578125" type="curve" smooth="yes"/>
      <point x="334.5625" y="860.578125"/>
      <point x="387.875" y="900.15625"/>
      <point x="387.875" y="991.265625" type="curve" smooth="yes"/>
      <point x="387.875" y="1086.609375"/>
      <point x="334.5625" y="1122.0625"/>
      <point x="266.859375" y="1122.0625" type="curve" smooth="yes"/>
      <point x="200.921875" y="1122.0625"/>
      <point x="149.953125" y="1086.609375"/>
    </contour>
  </outline>
</glyph>
<glyph name="equal" format="2">
  <advance width="1170.5625"/>
  <unicode hex="003D"/>
  <outline>
    <contour>
      <point x="114.78125" y="858.015625" type="line"/>
      <point x="1053.21875" y="858.015625" type="line"/>
      <point x="1053.21875" y="992.515625" type="line"/>
      <point x="114.78125" y="992.515625" type="line"/>
    </contour>
    <contour>
      <point x="114.78125" y="448.921875" type="line"/>
      <point x="1053.21875" y="448.921875" type="line"/>
      <point x="1053.21875" y="584.421875" type="line"/>
      <point x="114.78125" y="584.421875" type="line"/>
    </contour>
  </outline>
</glyph>
<glyph name="greater" format="2">
  <advance width="1170.5625"/>
  <unicode hex="003E"/>
  <outline>
    <contour>
      <point x="103.421875" y="390.328125" type="line"/>
      <point x="103.421875" y="242.921875" type="line"/>
      <point x="1065.46875" y="668.671875" type="line"/>
      <point x="1065.46875" y="763.5625" type="line"/>
      <point x="103.421875" y="1240.078125" type="line"/>
      <point x="103.421875" y="1091.78125" type="line"/>
      <point x="885.703125" y="721.40625" type="line"/>
    </contour>
  </outline>
</glyph>
<glyph name="E" format="2">
  <advance width="1137.578125"/>
  <unicode hex="0045"/>
  <anchor x="612.90625" y="0.0" name="bottom"/>
  <anchor x="625.0" y="1462.0" name="top"/>
  <anchor x="1096.578125" y="1462.0" name="topright"/>
  <outline>
    <contour>
      <point x="1014.140625" y="0.0" type="line"/>
      <point x="1014.140625" y="149.859375" type="line"/>
      <point x="369.984375" y="149.859375" type="line"/>
      <point x="369.984375" y="690.671875" type="line"/>
      <point x="976.703125" y="690.671875" type="line"/>
      <point x="976.703125" y="838.859375" type="line"/>
      <point x="369.984375" y="838.859375" type="line"/>
      <point x="369.984375" y="1312.140625" type="line"/>
      <point x="1014.140625" y="1312.140625" type="line"/>
      <point x="1014.140625" y="1462.0" type="line"/>
      <point x="200.3125" y="1462.0" type="line"/>
      <point x="200.3125" y="0.0" type="line"/>
    </contour>
  </outline>
</glyph>
<glyph name="F" format="2">
  <advance width="1056.984375"/>
  <unicode hex="0046"/>
  <anchor x="528.9375" y="0.0" name="bottom"/>
  <anchor x="609.5625" y="1462.0" name="top"/>
  <anchor x="1015.984375" y="1462.0" name="topright"/>
  <outline>
    <contour>
      <point x="369.984375" y="0.0" type="line"/>
      <point x="369.984375" y="626.796875" type="line"/>
      <point x="975.46875" y="626.796875" type="line"/>
      <point x="975.46875" y="775.765625" type="line"/>
      <point x="369.984375" y="775.765625" type="line"/>
      <point x="369.984375" y="1312.140625" type="line"/>
      <point x="1014.359375" y="1312.140625" type="line"/>
      <point x="1014.359375" y="1462.0" type="line"/>
      <point x="200.3125" y="1462.0" type="line"/>
      <point x="200.3125" y="0.0" type="line"/>
    </contour>
  </outline>
</glyph>
<glyph name="J" format="2">
  <advance width="549.59375"/>
  <unicode hex="004A"/>
  <anchor x="-11.390625000000004" y="-346.6875" name="bottom"/>
  <anchor x="276.953125" y="1462.0" name="top"/>
  <anchor x="508.59375" y="1462.0" name="topright"/>
  <outline>
    <contour>
      <point x="-11.390625000000004" y="-385.390625" type="curve" smooth="yes"/>
      <point x="217.609375" y="-385.390625"/>
      <point x="361.734375" y="-253.328125"/>
      <point x="361.734375" y="20.921874999999996" type="curve" smooth="yes"/>
      <point x="361.734375" y="1462.0" type="line"/>
      <point x="191.171875" y="1462.0" type="line"/>
      <point x="191.171875" y="8.21875" type="line" smooth="yes"/>
      <point x="191.171875" y="-177.78125"/>
      <point x="97.4375" y="-235.3125"/>
      <point x="-14.953125000000004" y="-235.3125" type="curve" smooth="yes"/>
      <point x="-71.71875" y="-235.3125"/>
      <point x="-122.140625" y="-226.875"/>
      <point x="-164.484375" y="-214.328125" type="curve"/>
      <point x="-164.484375" y="-358.71875" type="line"/>
      <point x="-127.703125" y="-375.171875"/>
      <point x="-78.484375" y="-385.390625"/>
    </contour>
  </outline>
</glyph>
<glyph name="L" format="2">
  <advance width="1068.953125"/>
  <unicode hex="004C"/>
  <anchor x="610.28125" y="0.0" name="bottom"/>
  <anchor x="534.921875" y="731.0" name="center"/>
  <anchor x="281.640625" y="1462.0" name="top"/>
  <anchor x="763.375" y="1462.0" name="topright"/>
  <outline>
    <contour>
      <point x="200.3125" y="0.0" type="line"/>
      <point x="1019.046875" y="0.0" type="line"/>
      <point x="1019.046875" y="151.640625" type="line"/>
      <point x="369.984375" y="151.640625" type="line"/>
      <point x="369.984375" y="1462.0" type="line"/>
      <point x="200.3125" y="1462.0" type="line"/>
    </contour>
  </outline>
</glyph>
<glyph name="O" format="2">
  <advance width="1592.984375"/>
  <unicode hex="004F"/>
  <anchor x="799.609375" y="0.0" name="bottom"/>
  <anchor x="797.828125" y="731.0" name="center"/>
  <anchor x="797.828125" y="1462.0" name="top"/>
  <anchor x="1552.875" y="1462.0" name="topright"/>
  <outline>
    <contour>
      <point x="1468.21875" y="733.0" type="curve" smooth="yes"/>
      <point x="1468.21875" y="1190.1875"/>
      <point x="1234.984375" y="1485.0"/>
      <point x="800.703125" y="1485.0" type="curve" smooth="yes"/>
      <point x="345.96875" y="1485.0"/>
      <point x="125.4375" y="1183.125"/>
      <point x="125.4375" y="735.0" type="curve" smooth="yes"/>
      <point x="125.4375" y="284.09375"/>
      <point x="344.0" y="-20.0"/>
      <point x="797.609375" y="-20.0" type="curve" smooth="yes"/>
      <point x="1236.734375" y="-20.0"/>
      <point x="1468.21875" y="282.3125"/>
    </contour>
    <contour>
      <point x="304.234375" y="733.21875" type="curve" smooth="yes"/>
      <point x="304.234375" y="1106.046875"/>
      <point x="461.15625" y="1335.140625"/>
      <point x="800.703125" y="1335.140625" type="curve" smooth="yes"/>
      <point x="1134.96875" y="1335.140625"/>
      <point x="1288.53125" y="1110.3125"/>
      <point x="1288.53125" y="733.0" type="curve" smooth="yes"/>
      <point x="1288.53125" y="359.96875"/>
      <point x="1137.484375" y="127.18749999999999"/>
      <point x="797.828125" y="127.18749999999999" type="curve" smooth="yes"/>
      <point x="460.28125" y="127.18749999999999"/>
      <point x="304.234375" y="360.734375"/>
    </contour>
  </outline>
</glyph>
<glyph name="T" format="2">
  <advance width="1127.515625"/>
  <unicode hex="0054"/>
  <anchor x="563.421875" y="0.0" name="bottom"/>
  <anchor x="563.421875" y="731.0" name="center"/>
  <anchor x="563.421875" y="1462.0" name="top"/>
  <anchor x="1086.515625" y="1462.0" name="topright"/>
  <outline>
    <contour>
      <point x="648.984375" y="0.0" type="line"/>
      <point x="648.984375" y="1312.140625" type="line"/>
      <point x="1106.59375" y="1312.140625" type="line"/>
      <point x="1106.59375" y="1462.0" type="line"/>
      <point x="18.25" y="1462.0" type="line"/>
      <point x="18.25" y="1312.140625" type="line"/>
      <point x="478.3125" y="1312.140625" type="line"/>
      <point x="478.3125" y="0.0" type="line"/>
    </contour>
  </outline>
</glyph>
<glyph name="U" format="2">
  <advance width="1492.734375"/>
  <unicode hex="0055"/>
  <anchor x="743.25" y="0.0" name="bottom"/>
  <anchor x="747.703125" y="1462.0" name="top"/>
  <anchor x="1451.734375" y="1462.0" name="topright"/>
  <outline>
    <contour>
      <point x="1306.078125" y="1462.0" type="line"/>
      <point x="1137.1875" y="1462.0" type="line"/>
      <point x="1137.1875" y="514.25" type="line" smooth="yes"/>
      <point x="1137.1875" y="283.296875"/>
      <point x="1016.4375" y="127.18749999999999"/>
      <point x="749.484375" y="127.18749999999999" type="curve" smooth="yes"/>
      <point x="488.125" y="127.18749999999999"/>
      <point x="355.765625" y="267.359375"/>
      <point x="355.765625" y="515.09375" type="curve" smooth="yes"/>
      <point x="355.765625" y="1462.0" type="line"/>
      <point x="185.203125" y="1462.0" type="line"/>
      <point x="185.203125" y="520.0" type="line" smooth="yes"/>
      <point x="185.203125" y="191.828125"/>
      <point x="378.3125" y="-20.0"/>
      <point x="739.46875" y="-20.0" type="curve" smooth="yes"/>
      <point x="1118.8125" y="-20.0"/>
      <point x="1306.078125" y="206.328125"/>
      <point x="1306.078125" y="516.0" type="curve" smooth="yes"/>
    </contour>
  </outline>
</glyph>
<glyph name="V" format="2">
  <advance width="1220.6875"/>
  <unicode hex="0056"/>
  <anchor x="608.28125" y="0.0" name="bottom"/>
  <anchor x="616.296875" y="1462.0" name="top"/>
  <anchor x="1179.6875" y="1462.0" name="topright"/>
  <outline>
    <contour>
      <point x="1220.6875" y="1462.0" type="line"/>
      <point x="1040.78125" y="1462.0" type="line"/>
      <point x="701.3125" y="502.296875" type="line" smooth="yes"/>
      <point x="659.296875" y="383.578125"/>
      <point x="629.171875" y="283.0625"/>
      <point x="610.0625" y="190.890625" type="curve"/>
      <point x="589.953125" y="283.0625"/>
      <point x="560.953125" y="382.4375"/>
      <point x="519.59375" y="498.734375" type="curve" smooth="yes"/>
      <point x="178.125" y="1462.0" type="line"/>
      <point x="0.0" y="1462.0" type="line"/>
      <point x="525.171875" y="0.0" type="line"/>
      <point x="695.515625" y="0.0" type="line"/>
    </contour>
  </outline>
</glyph>
<glyph name="W" format="2">
  <advance width="1891.328125"/>
  <unicode hex="0057"/>
  <anchor x="932.859375" y="0.0" name="bottom"/>
  <anchor x="945.328125" y="1462.0" name="top"/>
  <anchor x="1850.328125" y="1462.0" name="topright"/>
  <outline>
    <contour>
      <point x="1860.5" y="1462.0" type="line"/>
      <point x="1683.484375" y="1462.0" type="line"/>
      <point x="1447.75" y="546.171875" type="line" smooth="yes"/>
      <point x="1414.96875" y="419.6875"/>
      <point x="1390.5" y="306.46875"/>
      <point x="1377.953125" y="207.546875" type="curve"/>
      <point x="1362.625" y="300.234375"/>
      <point x="1337.828125" y="423.25"/>
      <point x="1299.8125" y="547.953125" type="curve" smooth="yes"/>
      <point x="1025.890625" y="1462.0" type="line"/>
      <point x="851.09375" y="1462.0" type="line"/>
      <point x="587.953125" y="554.84375" type="line" smooth="yes"/>
      <point x="553.609375" y="435.921875"/>
      <point x="526.03125" y="312.25"/>
      <point x="511.59375" y="208.421875" type="curve"/>
      <point x="497.046875" y="308.6875"/>
      <point x="474.375" y="420.78125"/>
      <point x="442.03125" y="544.828125" type="curve" smooth="yes"/>
      <point x="206.71875" y="1462.0" type="line"/>
      <point x="29.703125000000007" y="1462.0" type="line"/>
      <point x="418.015625" y="0.0" type="line"/>
      <point x="589.03125" y="0.0" type="line"/>
      <point x="871.375" y="983.171875" type="line" smooth="yes"/>
      <point x="905.640625" y="1099.640625"/>
      <point x="932.34375" y="1221.265625"/>
      <point x="937.328125" y="1261.765625" type="curve"/>
      <point x="944.421875" y="1220.828125"/>
      <point x="975.34375" y="1096.328125"/>
      <point x="1008.8125" y="983.59375" type="curve" smooth="yes"/>
      <point x="1298.734375" y="0.0" type="line"/>
      <point x="1469.75" y="0.0" type="line"/>
    </contour>
  </outline>
</glyph>
<glyph name="Y" format="2">
  <advance width="1145.328125"/>
  <unicode hex="0059"/>
  <anchor x="573.21875" y="0.0" name="bottom"/>
  <anchor x="573.21875" y="1462.0" name="top"/>
  <anchor x="1104.328125" y="1462.0" name="topright"/>
  <outline>
    <contour>
      <point x="573.21875" y="729.109375" type="line"/>
      <point x="185.6875" y="1462.0" type="line"/>
      <point x="0.0" y="1462.0" type="line"/>
      <point x="487.765625" y="558.5625" type="line"/>
      <point x="487.765625" y="0.0" type="line"/>
      <point x="658.328125" y="0.0" type="line"/>
      <point x="658.328125" y="566.5625" type="line"/>
      <point x="1145.328125" y="1462.0" type="line"/>
      <point x="962.3125" y="1462.0" type="line"/>
    </contour>
  </outline>
</glyph>
<glyph name="Z" format="2">
  <advance width="1172.421875"/>
  <unicode hex="005A"/>
  <anchor x="606.25" y="0.0" name="bottom"/>
  <anchor x="593.78125" y="1462.0" name="top"/>
  <anchor x="1131.421875" y="1462.0" name="topright"/>
  <outline>
    <contour>
      <point x="1093.09375" y="0.0" type="line"/>
      <point x="1093.09375" y="151.640625" type="line"/>
      <point x="284.484375" y="151.640625" type="line"/>
      <point x="1071.65625" y="1334.15625" type="line"/>
      <point x="1071.65625" y="1462.0" type="line"/>
      <point x="105.171875" y="1462.0" type="line"/>
      <point x="105.171875" y="1310.359375" type="line"/>
      <point x="864.734375" y="1310.359375" type="line"/>
      <point x="77.5625" y="127.84374999999999" type="line"/>
      <point x="77.5625" y="0.0" type="line"/>
    </contour>
  </outline>
</glyph>
<glyph name="bracketright" format="2">
  <advance width="670.390625"/>
  <unicode hex="005D"/>
  <outline>
    <contour>
      <point x="51.0" y="-186.5" type="line"/>
      <point x="51.0" y="-324.0" type="line"/>
      <point x="504.640625" y="-324.0" type="line"/>
      <point x="504.640625" y="1462.0" type="line"/>
      <point x="51.0" y="1462.0" type="line"/>
      <point x="51.0" y="1325.5" type="line"/>
      <point x="342.3125" y="1325.5" type="line"/>
      <point x="342.3125" y="-186.5" type="line"/>
    </contour>
  </outline>
</glyph>
<glyph name="grave" format="2">
  <advance width="567.890625"/>
  <unicode hex="0060"/>
  <outline>
    <contour>
      <point x="280.15625" y="1569.0" type="curve"/>
      <point x="82.0" y="1569.0" type="line"/>
      <point x="82.0" y="1548.65625" type="line"/>
      <point x="131.734375" y="1471.796875"/>
      <point x="278.671875" y="1316.75"/>
      <point x="374.3125" y="1241.0" type="curve"/>
      <point x="486.78125" y="1241.0" type="line"/>
      <point x="486.78125" y="1264.578125" type="line"/>
      <point x="419.71875" y="1340.34375"/>
      <point x="326.796875" y="1477.4375"/>
    </contour>
  </outline>
</glyph>
<glyph name="a" format="2">
  <advance width="1137.84375"/>
  <unicode hex="0061"/>
  <anchor x="569.421875" y="0.0" name="bottom"/>
  <anchor x="569.421875" y="1096.140625" name="top"/>
  <anchor x="1042.515625" y="1096.140625" name="topright"/>
  <outline>
    <contour>
      <point x="584.640625" y="1114.25" type="curve" smooth="yes"/>
      <point x="443.15625" y="1114.25"/>
      <point x="310.5625" y="1072.5625"/>
      <point x="213.25" y="1021.78125" type="curve"/>
      <point x="264.203125" y="895.75" type="line"/>
      <point x="357.15625" y="940.5"/>
      <point x="461.390625" y="979.53125"/>
      <point x="575.734375" y="979.53125" type="curve" smooth="yes"/>
      <point x="723.875" y="979.53125"/>
      <point x="808.75" y="913.265625"/>
      <point x="808.75" y="724.265625" type="curve" smooth="yes"/>
      <point x="808.75" y="656.75" type="line"/>
      <point x="620.015625" y="649.203125" type="line" smooth="yes"/>
      <point x="265.171875" y="638.328125"/>
      <point x="94.4375" y="519.078125"/>
      <point x="94.4375" y="300.515625" type="curve" smooth="yes"/>
      <point x="94.4375" y="83.09375"/>
      <point x="238.390625" y="-20.0"/>
      <point x="438.46875" y="-20.0" type="curve" smooth="yes"/>
      <point x="627.40625" y="-20.0"/>
      <point x="718.359375" y="40.57812500000001"/>
      <point x="810.09375" y="162.015625" type="curve"/>
      <point x="817.65625" y="162.015625" type="line"/>
      <point x="849.703125" y="0.0" type="line"/>
      <point x="971.40625" y="0.0" type="line"/>
      <point x="971.40625" y="744.609375" type="line" smooth="yes"/>
      <point x="971.40625" y="1001.703125"/>
      <point x="845.9375" y="1114.25"/>
    </contour>
    <contour>
      <point x="806.96875" y="539.84375" type="line"/>
      <point x="806.96875" y="439.421875" type="line" smooth="yes"/>
      <point x="806.53125" y="222.59375"/>
      <point x="669.5" y="114.71874999999999"/>
      <point x="474.984375" y="114.71874999999999" type="curve" smooth="yes"/>
      <point x="349.96875" y="114.71874999999999"/>
      <point x="267.328125" y="173.328125"/>
      <point x="267.328125" y="298.734375" type="curve" smooth="yes"/>
      <point x="267.328125" y="443.421875"/>
      <point x="365.609375" y="522.078125"/>
      <point x="640.046875" y="532.515625" type="curve" smooth="yes"/>
    </contour>
  </outline>
</glyph>
<glyph name="c" format="2">
  <advance width="981.25"/>
  <unicode hex="0063"/>
  <anchor x="578.390625" y="0.0" name="bottom"/>
  <anchor x="586.921875" y="1096.140625" name="top"/>
  <anchor x="940.25" y="1096.140625" name="topright"/>
  <outline>
    <contour>
      <point x="614.4375" y="-20.0" type="curve" smooth="yes"/>
      <point x="738.125" y="-20.0"/>
      <point x="823.65625" y="0.43750000000000044"/>
      <point x="897.0" y="38.34375" type="curve"/>
      <point x="897.0" y="186.421875" type="line"/>
      <point x="820.5625" y="151.640625"/>
      <point x="729.46875" y="123.62499999999999"/>
      <point x="612.65625" y="123.62499999999999" type="curve" smooth="yes"/>
      <point x="395.171875" y="123.62499999999999"/>
      <point x="285.546875" y="278.265625"/>
      <point x="285.546875" y="543.90625" type="curve" smooth="yes"/>
      <point x="285.546875" y="821.078125"/>
      <point x="398.078125" y="970.84375"/>
      <point x="626.28125" y="970.84375" type="curve" smooth="yes"/>
      <point x="701.609375" y="970.84375"/>
      <point x="796.96875" y="945.375"/>
      <point x="863.828125" y="919.0625" type="curve"/>
      <point x="913.90625" y="1058.34375" type="line"/>
      <point x="847.703125" y="1091.234375"/>
      <point x="738.640625" y="1116.25"/>
      <point x="629.84375" y="1116.25" type="curve" smooth="yes"/>
      <point x="330.90625" y="1116.25"/>
      <point x="113.875" y="938.8125"/>
      <point x="113.875" y="542.125" type="curve" smooth="yes"/>
      <point x="113.875" y="160.890625"/>
      <point x="316.53125" y="-20.0"/>
    </contour>
  </outline>
</glyph>
<glyph name="e" format="2">
  <advance width="1149.640625"/>
  <unicode hex="0065"/>
  <anchor x="609.109375" y="0.0" name="bottom"/>
  <anchor x="580.609375" y="1096.140625" name="top"/>
  <anchor x="1108.640625" y="1096.140625" name="topright"/>
  <outline>
    <contour>
      <point x="596.90625" y="1116.25" type="curve" smooth="yes"/>
      <point x="303.171875" y="1116.25"/>
      <point x="113.875" y="893.890625"/>
      <point x="113.875" y="539.796875" type="curve" smooth="yes"/>
      <point x="113.875" y="178.265625"/>
      <point x="321.21875" y="-20.0"/>
      <point x="637.171875" y="-20.0" type="curve" smooth="yes"/>
      <point x="785.09375" y="-20.0"/>
      <point x="883.203125" y="1.7812499999999998"/>
      <point x="994.328125" y="50.5625" type="curve"/>
      <point x="994.328125" y="197.296875" type="line"/>
      <point x="878.90625" y="147.421875"/>
      <point x="782.421875" y="121.84374999999999"/>
      <point x="644.296875" y="121.84374999999999" type="curve" smooth="yes"/>
      <point x="418.625" y="121.84374999999999"/>
      <point x="290.453125" y="260.421875"/>
      <point x="285.546875" y="517.390625" type="curve"/>
      <point x="1043.34375" y="517.390625" type="line"/>
      <point x="1043.34375" y="620.046875" type="line" smooth="yes"/>
      <point x="1043.34375" y="917.515625"/>
      <point x="877.359375" y="1116.25"/>
    </contour>
    <contour>
      <point x="595.125" y="979.75" type="curve" smooth="yes"/>
      <point x="782.265625" y="979.75"/>
      <point x="867.4375" y="846.40625"/>
      <point x="869.0" y="650.328125" type="curve"/>
      <point x="289.328125" y="650.328125" type="line"/>
      <point x="308.984375" y="858.265625"/>
      <point x="416.78125" y="979.75"/>
    </contour>
  </outline>
</glyph>
<glyph name="f" format="2">
  <advance width="689.25"/>
  <unicode hex="0066"/>
  <anchor x="306.984375" y="0.0" name="bottom"/>
  <anchor x="508.125" y="1567.0" name="top"/>
  <anchor x="765.53125" y="1567.0" name="topright"/>
  <outline>
    <contour>
      <point x="663.375" y="965.875" type="line"/>
      <point x="663.375" y="1096.140625" type="line"/>
      <point x="390.09375" y="1096.140625" type="line"/>
      <point x="390.09375" y="1176.21875" type="line" smooth="yes"/>
      <point x="390.09375" y="1351.390625"/>
      <point x="449.078125" y="1429.609375"/>
      <point x="575.875" y="1429.609375" type="curve" smooth="yes"/>
      <point x="634.109375" y="1429.609375"/>
      <point x="693.109375" y="1414.375"/>
      <point x="738.546875" y="1399.9375" type="curve"/>
      <point x="782.171875" y="1531.3125" type="line"/>
      <point x="728.5" y="1548.875"/>
      <point x="658.125" y="1567.0"/>
      <point x="574.09375" y="1567.0" type="curve" smooth="yes"/>
      <point x="349.734375" y="1567.0"/>
      <point x="223.875" y="1449.78125"/>
      <point x="223.875" y="1174.4375" type="curve" smooth="yes"/>
      <point x="223.875" y="1101.484375" type="line"/>
      <point x="30.125" y="1045.609375" type="line"/>
      <point x="30.125" y="965.875" type="line"/>
      <point x="223.875" y="965.875" type="line"/>
      <point x="223.875" y="0.0" type="line"/>
      <point x="390.09375" y="0.0" type="line"/>
      <point x="390.09375" y="965.875" type="line"/>
    </contour>
  </outline>
</glyph>
<glyph name="k" format="2">
  <advance width="1076.0625"/>
  <unicode hex="006B"/>
  <anchor x="538.03125" y="0.0" name="bottom"/>
  <anchor x="258.421875" y="1556.0" name="top"/>
  <anchor x="1061.78125" y="1556.0" name="topright"/>
  <outline>
    <contour>
      <point x="339.53125" y="1556.0" type="line"/>
      <point x="175.09375" y="1556.0" type="line"/>
      <point x="175.09375" y="0.0" type="line"/>
      <point x="339.53125" y="0.0" type="line"/>
      <point x="339.53125" y="397.421875" type="line"/>
      <point x="473.171875" y="519.4375" type="line"/>
      <point x="860.078125" y="0.0" type="line"/>
      <point x="1060.234375" y="0.0" type="line"/>
      <point x="586.765625" y="627.578125" type="line"/>
      <point x="1028.140625" y="1096.140625" type="line"/>
      <point x="833.453125" y="1096.140625" type="line"/>
      <point x="468.671875" y="707.53125" type="line" smooth="yes"/>
      <point x="430.796875" y="665.65625"/>
      <point x="366.5" y="583.890625"/>
      <point x="338.984375" y="548.703125" type="curve"/>
      <point x="332.1875" y="548.703125" type="line"/>
      <point x="334.1875" y="608.453125"/>
      <point x="339.53125" y="695.296875"/>
      <point x="339.53125" y="747.921875" type="curve" smooth="yes"/>
    </contour>
  </outline>
</glyph>
<glyph name="p" format="2">
  <advance width="1252.78125"/>
  <unicode hex="0070"/>
  <anchor x="258.421875" y="-490.140625" name="bottom"/>
  <anchor x="671.03125" y="1096.140625" name="top"/>
  <anchor x="1193.078125" y="1096.140625" name="topright"/>
  <outline>
    <contour>
      <point x="689.984375" y="1116.25" type="curve" smooth="yes"/>
      <point x="506.84375" y="1116.25"/>
      <point x="405.234375" y="1033.796875"/>
      <point x="341.53125" y="934.328125" type="curve"/>
      <point x="333.96875" y="934.328125" type="line"/>
      <point x="312.046875" y="1096.140625" type="line"/>
      <point x="175.3125" y="1096.140625" type="line"/>
      <point x="175.3125" y="-490.140625" type="line"/>
      <point x="341.53125" y="-490.140625" type="line"/>
      <point x="341.53125" y="-39.90625" type="line" smooth="yes"/>
      <point x="341.53125" y="14.921875000000007"/>
      <point x="334.40625" y="97.796875"/>
      <point x="330.40625" y="149.828125" type="curve"/>
      <point x="341.53125" y="149.828125" type="line"/>
      <point x="403.453125" y="57.48437500000001"/>
      <point x="511.09375" y="-20.0"/>
      <point x="686.015625" y="-20.0" type="curve" smooth="yes"/>
      <point x="960.65625" y="-20.0"/>
      <point x="1139.34375" y="177.09375"/>
      <point x="1139.34375" y="551.0" type="curve" smooth="yes"/>
      <point x="1139.34375" y="927.921875"/>
      <point x="962.734375" y="1116.25"/>
    </contour>
    <contour>
      <point x="661.484375" y="976.1875" type="curve" smooth="yes"/>
      <point x="868.734375" y="976.1875"/>
      <point x="967.671875" y="812.40625"/>
      <point x="967.671875" y="552.78125" type="curve" smooth="yes"/>
      <point x="967.671875" y="296.0625"/>
      <point x="866.65625" y="118.28124999999999"/>
      <point x="662.859375" y="118.28124999999999" type="curve" smooth="yes"/>
      <point x="423.515625" y="118.28124999999999"/>
      <point x="341.53125" y="270.828125"/>
      <point x="341.53125" y="549.46875" type="curve" smooth="yes"/>
      <point x="341.53125" y="581.296875" type="line" smooth="yes"/>
      <point x="345.09375" y="844.1875"/>
      <point x="433.328125" y="976.1875"/>
    </contour>
  </outline>
</glyph>
<glyph name="q" format="2">
  <advance width="1252.78125"/>
  <unicode hex="0071"/>
  <anchor x="993.25" y="-490.140625" name="bottom"/>
  <anchor x="627.390625" y="1096.140625" name="top"/>
  <anchor x="1138.75" y="1096.140625" name="topright"/>
  <outline>
    <contour>
      <point x="910.140625" y="-490.140625" type="line"/>
      <point x="1076.359375" y="-490.140625" type="line"/>
      <point x="1076.359375" y="1096.140625" type="line"/>
      <point x="944.078125" y="1096.140625" type="line"/>
      <point x="919.046875" y="939.25" type="line"/>
      <point x="911.484375" y="939.25" type="line"/>
      <point x="848.453125" y="1037.078125"/>
      <point x="741.484375" y="1116.25"/>
      <point x="567.078125" y="1116.25" type="curve" smooth="yes"/>
      <point x="292.296875" y="1116.25"/>
      <point x="113.21875" y="915.6875"/>
      <point x="113.21875" y="545.90625" type="curve" smooth="yes"/>
      <point x="113.21875" y="170.21875"/>
      <point x="289.828125" y="-20.328125"/>
      <point x="558.125" y="-20.328125" type="curve" smooth="yes"/>
      <point x="735.734375" y="-20.328125"/>
      <point x="847.328125" y="57.26562500000001"/>
      <point x="908.359375" y="158.265625" type="curve"/>
      <point x="919.484375" y="158.265625" type="line"/>
      <point x="912.140625" y="108.96875000000001"/>
      <point x="910.140625" y="31.921875000000007"/>
      <point x="910.140625" y="-19.828124999999996" type="curve" smooth="yes"/>
    </contour>
    <contour>
      <point x="589.296875" y="118.06249999999999" type="curve" smooth="yes"/>
      <point x="382.5" y="118.06249999999999"/>
      <point x="284.890625" y="274.03125"/>
      <point x="284.890625" y="542.34375" type="curve" smooth="yes"/>
      <point x="284.890625" y="809.671875"/>
      <point x="384.25" y="977.96875"/>
      <point x="589.34375" y="977.96875" type="curve" smooth="yes"/>
      <point x="827.4375" y="977.96875"/>
      <point x="911.921875" y="829.34375"/>
      <point x="911.921875" y="546.96875" type="curve" smooth="yes"/>
      <point x="911.921875" y="511.828125" type="line" smooth="yes"/>
      <point x="908.359375" y="248.828125"/>
      <point x="819.875" y="118.06249999999999"/>
    </contour>
  </outline>
</glyph>
<glyph name="t" format="2">
  <advance width="729.59375"/>
  <unicode hex="0074"/>
  <anchor x="432.859375" y="0.0" name="bottom"/>
  <anchor x="366.296875" y="548.125" name="center"/>
  <anchor x="304.9375" y="1350.0" name="top"/>
  <anchor x="677.90625" y="1350.0" name="topright"/>
  <outline>
    <contour>
      <point x="529.296875" y="116.49999999999999" type="curve" smooth="yes"/>
      <point x="422.828125" y="116.49999999999999"/>
      <point x="354.890625" y="182.890625"/>
      <point x="354.890625" y="320.609375" type="curve" smooth="yes"/>
      <point x="354.890625" y="965.875" type="line"/>
      <point x="675.71875" y="965.875" type="line"/>
      <point x="675.71875" y="1096.140625" type="line"/>
      <point x="354.890625" y="1096.140625" type="line"/>
      <point x="354.890625" y="1350.0" type="line"/>
      <point x="254.890625" y="1350.0" type="line"/>
      <point x="189.34375" y="1112.171875" type="line"/>
      <point x="31.578125" y="1047.390625" type="line"/>
      <point x="31.578125" y="965.875" type="line"/>
      <point x="187.78125" y="965.875" type="line"/>
      <point x="187.78125" y="315.5" type="line" smooth="yes"/>
      <point x="187.78125" y="57.70312500000001"/>
      <point x="327.71875" y="-20.0"/>
      <point x="501.6875" y="-20.0" type="curve" smooth="yes"/>
      <point x="567.453125" y="-20.0"/>
      <point x="643.625" y="-6.21875"/>
      <point x="683.28125" y="11.34375" type="curve"/>
      <point x="683.28125" y="139.828125" type="line"/>
      <point x="647.1875" y="126.49999999999999"/>
      <point x="583.9375" y="116.49999999999999"/>
    </contour>
  </outline>
</glyph>
<glyph name="v" format="2">
  <advance width="1022.609375"/>
  <unicode hex="0076"/>
  <anchor x="507.6875" y="0.0" name="bottom"/>
  <anchor x="507.6875" y="1096.140625" name="top"/>
  <anchor x="981.609375" y="1096.140625" name="topright"/>
  <outline>
    <contour>
      <point x="416.21875" y="0.0" type="line"/>
      <point x="605.5" y="0.0" type="line"/>
      <point x="1022.609375" y="1096.140625" type="line"/>
      <point x="845.484375" y="1096.140625" type="line"/>
      <point x="603.5" y="432.625" type="line" smooth="yes"/>
      <point x="572.953125" y="343.734375"/>
      <point x="529.34375" y="217.59375"/>
      <point x="513.25" y="150.59375" type="curve"/>
      <point x="505.6875" y="150.59375" type="line"/>
      <point x="492.59375" y="217.59375"/>
      <point x="452.21875" y="341.953125"/>
      <point x="419.0" y="432.625" type="curve" smooth="yes"/>
      <point x="177.90625" y="1096.140625" type="line"/>
      <point x="0.0" y="1096.140625" type="line"/>
    </contour>
  </outline>
</glyph>
<glyph name="z" format="2">
  <advance width="959.828125"/>
  <unicode hex="007A"/>
  <anchor x="492.828125" y="0.0" name="bottom"/>
  <anchor x="479.46875" y="1096.140625" name="top"/>
  <anchor x="882.3125" y="1096.140625" name="topright"/>
  <outline>
    <contour>
      <point x="878.734375" y="0.0" type="line"/>
      <point x="878.734375" y="129.375" type="line"/>
      <point x="272.890625" y="129.375" type="line"/>
      <point x="866.03125" y="972.625" type="line"/>
      <point x="866.03125" y="1096.140625" type="line"/>
      <point x="117.625" y="1096.140625" type="line"/>
      <point x="117.625" y="965.875" type="line"/>
      <point x="681.15625" y="965.875" type="line"/>
      <point x="80.4375" y="109.81249999999999" type="line"/>
      <point x="80.4375" y="0.0" type="line"/>
    </contour>
  </outline>
</glyph>
<glyph name="braceleft" format="2">
  <advance width="768.375"/>
  <unicode hex="007B"/>
  <outline>
    <contour>
      <point x="702.171875" y="-324.0" type="curve"/>
      <point x="702.171875" y="-186.5" type="line"/>
      <point x="550.921875" y="-184.71875"/>
      <point x="468.484375" y="-127.96875000000001"/>
      <point x="468.484375" y="7.984374999999993" type="curve" smooth="yes"/>
      <point x="468.484375" y="314.5625" type="line" smooth="yes"/>
      <point x="468.484375" y="454.5625"/>
      <point x="400.765625" y="539.65625"/>
      <point x="252.15625" y="565.21875" type="curve"/>
      <point x="252.15625" y="577.234375" type="line"/>
      <point x="398.984375" y="602.90625"/>
      <point x="468.484375" y="688.0"/>
      <point x="468.484375" y="827.0" type="curve" smooth="yes"/>
      <point x="468.484375" y="1127.6875" type="line" smooth="yes"/>
      <point x="468.484375" y="1264.1875"/>
      <point x="554.484375" y="1321.9375"/>
      <point x="702.171875" y="1325.5" type="curve"/>
      <point x="702.171875" y="1462.0" type="line"/>
      <point x="464.03125" y="1462.0"/>
      <point x="303.9375" y="1356.875"/>
      <point x="303.9375" y="1144.140625" type="curve" smooth="yes"/>
      <point x="303.9375" y="836.0" type="line" smooth="yes"/>
      <point x="303.9375" y="693.734375"/>
      <point x="218.78125" y="641.203125"/>
      <point x="56.5625" y="639.421875" type="curve"/>
      <point x="56.5625" y="501.359375" type="line"/>
      <point x="218.78125" y="501.359375"/>
      <point x="303.9375" y="445.390625"/>
      <point x="303.9375" y="303.0" type="curve" smooth="yes"/>
      <point x="303.9375" y="-3.359375000000007" type="line" smooth="yes"/>
      <point x="303.9375" y="-217.875"/>
      <point x="453.34375" y="-322.21875"/>
    </contour>
  </outline>
</glyph>
<glyph name="braceright" format="2">
  <advance width="768.375"/>
  <unicode hex="007D"/>
  <outline>
    <contour>
      <point x="66.875" y="-324.0" type="line"/>
      <point x="304.125" y="-324.0"/>
      <point x="464.328125" y="-217.875"/>
      <point x="464.328125" y="-5.140625000000007" type="curve" smooth="yes"/>
      <point x="464.328125" y="304.78125" type="line" smooth="yes"/>
      <point x="464.328125" y="445.390625"/>
      <point x="549.375" y="499.578125"/>
      <point x="711.59375" y="501.359375" type="curve"/>
      <point x="711.59375" y="639.421875" type="line"/>
      <point x="549.375" y="639.421875"/>
      <point x="464.328125" y="693.734375"/>
      <point x="464.328125" y="837.78125" type="curve" smooth="yes"/>
      <point x="464.328125" y="1142.359375" type="line" smooth="yes"/>
      <point x="464.328125" y="1356.875"/>
      <point x="314.8125" y="1460.21875"/>
      <point x="66.875" y="1462.0" type="curve"/>
      <point x="66.875" y="1325.5" type="line"/>
      <point x="217.234375" y="1323.71875"/>
      <point x="299.671875" y="1265.96875"/>
      <point x="299.671875" y="1129.46875" type="curve" smooth="yes"/>
      <point x="299.671875" y="825.21875" type="line" smooth="yes"/>
      <point x="299.671875" y="686.21875"/>
      <point x="368.28125" y="601.125"/>
      <point x="516.0" y="574.5625" type="curve"/>
      <point x="516.0" y="563.4375" type="line"/>
      <point x="370.0625" y="537.875"/>
      <point x="299.671875" y="452.78125"/>
      <point x="299.671875" y="312.78125" type="curve" smooth="yes"/>
      <point x="299.671875" y="9.765624999999993" type="line" smooth="yes"/>
      <point x="299.671875" y="-126.18750000000001"/>
      <point x="213.671875" y="-182.9375"/>
      <point x="66.875" y="-186.5" type="curve"/>
    </contour>
  </outline>
</glyph>
<glyph name="cent" format="2">
  <advance width="1170.5625"/>
  <unicode hex="00A2"/>
  <outline>
    <contour>
      <point x="719.609375" y="1483.0" type="line"/>
      <point x="590.234375" y="1483.0" type="line"/>
      <point x="590.234375" y="1310.125" type="line"/>
      <point x="344.4375" y="1274.0"/>
      <point x="184.6875" y="1106.671875"/>
      <point x="184.6875" y="740.78125" type="curve" smooth="yes"/>
      <point x="184.6875" y="381.234375"/>
      <point x="339.265625" y="218.59375"/>
      <point x="590.234375" y="184.0" type="curve"/>
      <point x="590.234375" y="-20.0" type="line"/>
      <point x="717.828125" y="-20.0" type="line"/>
      <point x="717.828125" y="178.65625" type="line"/>
      <point x="823.71875" y="182.4375"/>
      <point x="899.46875" y="203.875"/>
      <point x="972.265625" y="239.78125" type="curve"/>
      <point x="972.265625" y="385.1875" type="line"/>
      <point x="888.703125" y="350.40625"/>
      <point x="802.953125" y="325.0625"/>
      <point x="686.25" y="325.0625" type="curve" smooth="yes"/>
      <point x="465.984375" y="325.0625"/>
      <point x="355.46875" y="459.21875"/>
      <point x="355.46875" y="742.5625" type="curve" smooth="yes"/>
      <point x="355.46875" y="1027.75"/>
      <point x="466.328125" y="1173.0625"/>
      <point x="697.203125" y="1173.0625" type="curve" smooth="yes"/>
      <point x="771.53125" y="1173.0625"/>
      <point x="867.78125" y="1148.59375"/>
      <point x="940.875" y="1120.5" type="curve"/>
      <point x="989.171875" y="1259.671875" type="line"/>
      <point x="920.640625" y="1290.21875"/>
      <point x="822.375" y="1314.125"/>
      <point x="719.609375" y="1317.6875" type="curve"/>
    </contour>
  </outline>
</glyph>
<glyph name="sterling" format="2">
  <advance width="1170.5625"/>
  <unicode hex="00A3"/>
  <outline>
    <contour>
      <point x="686.296875" y="1481.0" type="curve" smooth="yes"/>
      <point x="435.828125" y="1481.0"/>
      <point x="275.65625" y="1337.21875"/>
      <point x="275.65625" y="1089.953125" type="curve" smooth="yes"/>
      <point x="275.65625" y="785.09375" type="line"/>
      <point x="77.140625" y="785.09375" type="line"/>
      <point x="77.140625" y="658.390625" type="line"/>
      <point x="275.65625" y="658.390625" type="line"/>
      <point x="275.65625" y="433.765625" type="line" smooth="yes"/>
      <point x="275.65625" y="251.46875"/>
      <point x="189.65625" y="168.625"/>
      <point x="68.1875" y="140.515625" type="curve"/>
      <point x="68.1875" y="0.0" type="line"/>
      <point x="1092.171875" y="0.0" type="line"/>
      <point x="1092.171875" y="151.640625" type="line"/>
      <point x="300.03125" y="151.640625" type="line"/>
      <point x="374.546875" y="195.078125"/>
      <point x="442.65625" y="267.140625"/>
      <point x="442.65625" y="435.765625" type="curve" smooth="yes"/>
      <point x="442.65625" y="658.390625" type="line"/>
      <point x="858.671875" y="658.390625" type="line"/>
      <point x="858.671875" y="785.09375" type="line"/>
      <point x="442.65625" y="785.09375" type="line"/>
      <point x="442.65625" y="1072.15625" type="line" smooth="yes"/>
      <point x="442.65625" y="1260.90625"/>
      <point x="527.84375" y="1341.828125"/>
      <point x="689.859375" y="1341.828125" type="curve" smooth="yes"/>
      <point x="801.1875" y="1341.828125"/>
      <point x="900.5625" y="1304.578125"/>
      <point x="983.4375" y="1265.796875" type="curve"/>
      <point x="1042.515625" y="1399.625" type="line"/>
      <point x="949.15625" y="1445.09375"/>
      <point x="834.0" y="1481.0"/>
    </contour>
  </outline>
</glyph>
<glyph name="currency" format="2">
  <advance width="1170.5625"/>
  <unicode hex="00A4"/>
  <outline>
    <contour>
      <point x="182.6875" y="723.21875" type="curve" smooth="yes"/>
      <point x="182.6875" y="637.6875"/>
      <point x="212.34375" y="555.609375"/>
      <point x="257.96875" y="491.078125" type="curve"/>
      <point x="122.34375" y="352.453125" type="line"/>
      <point x="212.90625" y="263.34375" type="line"/>
      <point x="350.640625" y="397.515625" type="line"/>
      <point x="414.390625" y="349.78125"/>
      <point x="498.140625" y="322.796875"/>
      <point x="585.5625" y="322.796875" type="curve" smooth="yes"/>
      <point x="671.09375" y="322.796875"/>
      <point x="751.5" y="349.78125"/>
      <point x="816.140625" y="395.734375" type="curve"/>
      <point x="955.4375" y="261.5625" type="line"/>
      <point x="1044.546875" y="350.671875" type="line"/>
      <point x="912.15625" y="489.296875" type="line"/>
      <point x="960.671875" y="553.828125"/>
      <point x="987.65625" y="637.6875"/>
      <point x="987.65625" y="723.21875" type="curve" smooth="yes"/>
      <point x="987.65625" y="808.75"/>
      <point x="956.21875" y="890.828125"/>
      <point x="912.15625" y="955.359375" type="curve"/>
      <point x="1047.0" y="1094.65625" type="line"/>
      <point x="955.4375" y="1184.65625" type="line"/>
      <point x="816.140625" y="1050.703125" type="line"/>
      <point x="748.828125" y="1098.4375"/>
      <point x="671.09375" y="1125.421875"/>
      <point x="585.5625" y="1125.421875" type="curve" smooth="yes"/>
      <point x="498.140625" y="1125.421875"/>
      <point x="416.171875" y="1098.4375"/>
      <point x="350.640625" y="1050.703125" type="curve"/>
      <point x="212.90625" y="1184.875" type="line"/>
      <point x="120.5625" y="1094.875" type="line"/>
      <point x="257.96875" y="953.578125" type="line"/>
      <point x="212.34375" y="889.046875"/>
      <point x="182.6875" y="806.96875"/>
    </contour>
    <contour>
      <point x="310.515625" y="723.21875" type="curve" smooth="yes"/>
      <point x="310.515625" y="878.125"/>
      <point x="431.984375" y="1002.046875"/>
      <point x="585.78125" y="1002.046875" type="curve" smooth="yes"/>
      <point x="740.140625" y="1002.046875"/>
      <point x="862.5" y="877.90625"/>
      <point x="862.5" y="723.4375" type="curve" smooth="yes"/>
      <point x="862.5" y="569.640625"/>
      <point x="740.140625" y="447.953125"/>
      <point x="585.34375" y="447.953125" type="curve" smooth="yes"/>
      <point x="432.203125" y="447.953125"/>
      <point x="310.515625" y="568.546875"/>
    </contour>
  </outline>
</glyph>
<glyph name="guillemotleft" format="2">
  <advance width="1015.203125"/>
  <unicode hex="00AB"/>
  <outline>
    <contour>
      <point x="78.828125" y="556.390625" type="line"/>
      <point x="78.828125" y="529.390625" type="line"/>
      <point x="419.328125" y="121.890625" type="line"/>
      <point x="537.71875" y="191.203125" type="line"/>
      <point x="251.48437499999997" y="544.28125" type="line"/>
      <point x="537.71875" y="896.578125" type="line"/>
      <point x="419.328125" y="965.21875" type="line"/>
    </contour>
    <contour>
      <point x="477.375" y="556.390625" type="line"/>
      <point x="477.375" y="529.390625" type="line"/>
      <point x="822.328125" y="121.890625" type="line"/>
      <point x="938.9375" y="191.203125" type="line"/>
      <point x="652.703125" y="544.28125" type="line"/>
      <point x="938.9375" y="896.578125" type="line"/>
      <point x="822.328125" y="965.21875" type="line"/>
    </contour>
  </outline>
</glyph>
<glyph name="acute" format="2">
  <advance width="567.890625"/>
  <unicode hex="00B4"/>
  <outline>
    <contour>
      <point x="486.78125" y="1569.0" type="line"/>
      <point x="285.953125" y="1569.0" type="line"/>
      <point x="237.53125" y="1477.4375"/>
      <point x="144.609375" y="1340.34375"/>
      <point x="82.0" y="1264.578125" type="curve"/>
      <point x="82.0" y="1241.0" type="line"/>
      <point x="192.6875" y="1241.0" type="line"/>
      <point x="290.0" y="1316.75"/>
      <point x="432.59375" y="1471.796875"/>
      <point x="486.78125" y="1548.65625" type="curve"/>
    </contour>
  </outline>
</glyph>
<glyph name="paragraph" format="2">
  <advance width="1341.0"/>
  <unicode hex="00B6"/>
  <outline>
    <contour>
      <point x="1116.890625" y="-260.0" type="line"/>
      <point x="1116.890625" y="1556.0" type="line"/>
      <point x="563.0" y="1556.0" type="line" smooth="yes"/>
      <point x="296.75" y="1556.0"/>
      <point x="121.96875000000001" y="1430.609375"/>
      <point x="121.96875000000001" y="1052.828125" type="curve" smooth="yes"/>
      <point x="121.96875000000001" y="693.046875"/>
      <point x="281.84375" y="559.375"/>
      <point x="532.0" y="559.375" type="curve" smooth="yes"/>
      <point x="581.3125" y="559.375"/>
      <point x="636.5625" y="565.375"/>
      <point x="678.0" y="577.375" type="curve"/>
      <point x="678.0" y="-260.0" type="line"/>
      <point x="789.78125" y="-260.0" type="line"/>
      <point x="789.78125" y="1448.890625" type="line"/>
      <point x="1006.0" y="1448.890625" type="line"/>
      <point x="1006.0" y="-260.0" type="line"/>
    </contour>
  </outline>
</glyph>
<glyph name="onesuperior" format="2">
  <advance width="712.078125"/>
  <unicode hex="00B9"/>
  <outline>
    <contour>
      <point x="481.390625" y="1729.0" type="line"/>
      <point x="343.3125" y="1729.0" type="line"/>
      <point x="76.0" y="1544.265625" type="line"/>
      <point x="141.640625" y="1450.28125" type="line"/>
      <point x="251.109375" y="1527.109375" type="line" smooth="yes"/>
      <point x="289.390625" y="1552.3125"/>
      <point x="324.609375" y="1581.890625"/>
      <point x="352.90625" y="1606.65625" type="curve"/>
      <point x="349.125" y="1547.796875"/>
      <point x="345.5625" y="1488.75"/>
      <point x="345.5625" y="1417.875" type="curve" smooth="yes"/>
      <point x="345.5625" y="852.0" type="line"/>
      <point x="481.390625" y="852.0" type="line"/>
    </contour>
  </outline>
</glyph>
<glyph name="guillemotright" format="2">
  <advance width="1015.203125"/>
  <unicode hex="00BB"/>
  <outline>
    <contour>
      <point x="937.15625" y="529.828125" type="line"/>
      <point x="937.15625" y="556.828125" type="line"/>
      <point x="592.3125" y="965.21875" type="line"/>
      <point x="475.59375" y="896.796875" type="line"/>
      <point x="761.9375" y="544.5" type="line"/>
      <point x="475.59375" y="191.421875" type="line"/>
      <point x="592.3125" y="121.890625" type="line"/>
    </contour>
    <contour>
      <point x="535.9375" y="529.828125" type="line"/>
      <point x="535.9375" y="556.828125" type="line"/>
      <point x="193.765625" y="965.21875" type="line"/>
      <point x="77.046875" y="896.796875" type="line"/>
      <point x="363.390625" y="544.5" type="line"/>
      <point x="77.046875" y="191.421875" type="line"/>
      <point x="193.765625" y="121.890625" type="line"/>
    </contour>
  </outline>
</glyph>
<glyph name="onequarter" format="2">
  <advance width="1515.5"/>
  <unicode hex="00BC"/>
  <outline>
    <contour>
      <point x="262.703125" y="0.0" type="line"/>
      <point x="406.09375" y="0.0" type="line"/>
      <point x="1284.765625" y="1462.0" type="line"/>
      <point x="1141.375" y="1462.0" type="line"/>
    </contour>
    <contour>
      <point x="335.515625" y="586.0" type="line"/>
      <point x="470.453125" y="586.0" type="line"/>
      <point x="470.453125" y="1462.0" type="line"/>
      <point x="333.265625" y="1462.0" type="line"/>
      <point x="65.953125" y="1278.265625" type="line"/>
      <point x="131.59375" y="1184.28125" type="line"/>
      <point x="241.0625" y="1260.21875" type="line" smooth="yes"/>
      <point x="279.34375" y="1286.3125"/>
      <point x="314.5625" y="1315.890625"/>
      <point x="342.859375" y="1340.65625" type="curve"/>
      <point x="339.078125" y="1281.796875"/>
      <point x="335.515625" y="1222.75"/>
      <point x="335.515625" y="1151.875" type="curve" smooth="yes"/>
    </contour>
    <contour>
      <point x="1226.703125" y="0.0" type="line"/>
      <point x="1368.65625" y="0.0" type="line"/>
      <point x="1368.65625" y="204.765625" type="line"/>
      <point x="1496.5" y="204.765625" type="line"/>
      <point x="1496.5" y="318.78125" type="line"/>
      <point x="1368.65625" y="318.78125" type="line"/>
      <point x="1368.65625" y="883.0" type="line"/>
      <point x="1229.609375" y="883.0" type="line"/>
      <point x="824.84375" y="303.21875" type="line"/>
      <point x="824.84375" y="204.765625" type="line"/>
      <point x="1226.703125" y="204.765625" type="line"/>
    </contour>
    <contour>
      <point x="960.203125" y="318.78125" type="line"/>
      <point x="1137.4375" y="576.28125" type="line" smooth="yes"/>
      <point x="1167.21875" y="620.84375"/>
      <point x="1216.953125" y="696.0625"/>
      <point x="1232.265625" y="728.59375" type="curve"/>
      <point x="1228.484375" y="664.015625"/>
      <point x="1226.703125" y="583.625"/>
      <point x="1226.703125" y="525.640625" type="curve" smooth="yes"/>
      <point x="1226.703125" y="318.78125" type="line"/>
    </contour>
  </outline>
</glyph>
<glyph name="Eth" format="2">
  <advance width="1486.46875"/>
  <unicode hex="00D0"/>
  <anchor x="743.734375" y="0.0" name="bottom"/>
  <anchor x="743.734375" y="1462.0" name="top"/>
  <outline>
    <contour>
      <point x="640.6875" y="1462.0" type="curve" smooth="yes"/>
      <point x="212.78125" y="1462.0" type="line"/>
      <point x="212.78125" y="797.640625" type="line"/>
      <point x="58.15625" y="797.640625" type="line"/>
      <point x="58.15625" y="649.453125" type="line"/>
      <point x="212.78125" y="649.453125" type="line"/>
      <point x="212.78125" y="0.0" type="line"/>
      <point x="595.46875" y="0.0" type="line" smooth="yes"/>
      <point x="1081.640625" y="0.0"/>
      <point x="1360.8125" y="252.4375"/>
      <point x="1360.8125" y="745.0" type="curve" smooth="yes"/>
      <point x="1360.8125" y="1213.5625"/>
      <point x="1083.71875" y="1462.0"/>
    </contour>
    <contour>
      <point x="615.34375" y="1316.59375" type="line" smooth="yes"/>
      <point x="979.015625" y="1316.59375"/>
      <point x="1182.015625" y="1133.46875"/>
      <point x="1182.015625" y="739.4375" type="curve" smooth="yes"/>
      <point x="1182.015625" y="345.796875"/>
      <point x="981.40625" y="146.296875"/>
      <point x="576.53125" y="146.296875" type="curve" smooth="yes"/>
      <point x="382.453125" y="146.296875" type="line"/>
      <point x="382.453125" y="649.453125" type="line"/>
      <point x="753.6875" y="649.453125" type="line"/>
      <point x="753.6875" y="797.640625" type="line"/>
      <point x="382.453125" y="797.640625" type="line"/>
      <point x="382.453125" y="1316.59375" type="line"/>
    </contour>
  </outline>
</glyph>
<glyph name="multiply" format="2">
  <advance width="1170.5625"/>
  <unicode hex="00D7"/>
  <outline>
    <contour>
      <point x="939.796875" y="1174.359375" type="line"/>
      <point x="584.0" y="817.671875" type="line"/>
      <point x="231.65625" y="1174.359375" type="line"/>
      <point x="132.53125" y="1075.234375" type="line"/>
      <point x="486.65625" y="723.0" type="line"/>
      <point x="134.3125" y="368.875" type="line"/>
      <point x="233.4375" y="271.640625" type="line"/>
      <point x="582.21875" y="623.875" type="line"/>
      <point x="938.015625" y="271.640625" type="line"/>
      <point x="1032.6875" y="368.875" type="line"/>
      <point x="680.34375" y="723.0" type="line"/>
      <point x="1034.46875" y="1077.015625" type="line"/>
    </contour>
  </outline>
</glyph>
<glyph name="germandbls" format="2">
  <advance width="1274.828125"/>
  <unicode hex="00DF"/>
  <anchor x="638.25" y="0.0" name="bottom"/>
  <anchor x="638.25" y="1567.0" name="top"/>
  <outline>
    <contour>
      <point x="1050.40625" y="1268.265625" type="curve" smooth="yes"/>
      <point x="1050.40625" y="1465.34375"/>
      <point x="879.515625" y="1567.0"/>
      <point x="621.640625" y="1567.0" type="curve" smooth="yes"/>
      <point x="363.859375" y="1567.0"/>
      <point x="174.875" y="1464.203125"/>
      <point x="174.875" y="1191.296875" type="curve" smooth="yes"/>
      <point x="174.875" y="0.0" type="line"/>
      <point x="341.09375" y="0.0" type="line"/>
      <point x="341.09375" y="1191.296875" type="line" smooth="yes"/>
      <point x="341.09375" y="1371.53125"/>
      <point x="467.796875" y="1427.828125"/>
      <point x="621.640625" y="1427.828125" type="curve" smooth="yes"/>
      <point x="775.15625" y="1427.828125"/>
      <point x="882.296875" y="1375.21875"/>
      <point x="882.296875" y="1258.46875" type="curve" smooth="yes"/>
      <point x="882.296875" y="1071.0"/>
      <point x="603.078125" y="1053.453125"/>
      <point x="603.078125" y="836.84375" type="curve" smooth="yes"/>
      <point x="603.078125" y="724.5625"/>
      <point x="659.546875" y="657.546875"/>
      <point x="825.640625" y="550.390625" type="curve" smooth="yes"/>
      <point x="967.59375" y="458.359375"/>
      <point x="1018.640625" y="402.609375"/>
      <point x="1018.640625" y="298.046875" type="curve" smooth="yes"/>
      <point x="1018.640625" y="185.78125"/>
      <point x="953.59375" y="114.71874999999999"/>
      <point x="799.546875" y="114.71874999999999" type="curve" smooth="yes"/>
      <point x="692.203125" y="114.71874999999999"/>
      <point x="582.59375" y="155.203125"/>
      <point x="510.40625" y="197.984375" type="curve"/>
      <point x="510.40625" y="47.46875" type="line"/>
      <point x="582.296875" y="4.21875"/>
      <point x="675.890625" y="-20.0"/>
      <point x="804.890625" y="-20.0" type="curve" smooth="yes"/>
      <point x="1030.4375" y="-20.0"/>
      <point x="1181.40625" y="84.046875"/>
      <point x="1181.40625" y="308.734375" type="curve" smooth="yes"/>
      <point x="1181.40625" y="473.90625"/>
      <point x="1090.09375" y="560.375"/>
      <point x="946.375" y="657.1875" type="curve" smooth="yes"/>
      <point x="797.984375" y="755.0"/>
      <point x="764.0625" y="783.84375"/>
      <point x="764.0625" y="845.75" type="curve" smooth="yes"/>
      <point x="764.0625" y="979.03125"/>
      <point x="1050.40625" y="1031.859375"/>
    </contour>
  </outline>
</glyph>
<glyph name="lslash" format="2">
  <advance width="516.625"/>
  <unicode hex="0142"/>
  <anchor x="258.421875" y="0.0" name="bottom"/>
  <anchor x="258.421875" y="1556.0" name="top"/>
  <outline>
    <contour>
      <point x="163.609375" y="0.0" type="line"/>
      <point x="329.71875" y="0.0" type="line"/>
      <point x="329.71875" y="703.171875" type="line"/>
      <point x="534.859375" y="841.75" type="line"/>
      <point x="464.546875" y="953.78125" type="line"/>
      <point x="329.71875" y="860.59375" type="line"/>
      <point x="329.71875" y="1556.0" type="line"/>
      <point x="163.609375" y="1556.0" type="line"/>
      <point x="163.609375" y="754.0" type="line"/>
      <point x="-13.843749999999993" y="639.0" type="line"/>
      <point x="54.34375" y="526.53125" type="line"/>
      <point x="163.609375" y="596.03125" type="line"/>
    </contour>
  </outline>
</glyph>
<glyph name="Eng" format="2">
  <advance width="1542.21875"/>
  <unicode hex="014A"/>
  <anchor x="771.109375" y="-385.390625" name="bottom"/>
  <anchor x="771.109375" y="1462.0" name="top"/>
  <outline>
    <contour>
      <point x="966.21875" y="-385.390625" type="curve" smooth="yes"/>
      <point x="1197.5" y="-385.390625"/>
      <point x="1342.578125" y="-257.515625"/>
      <point x="1342.578125" y="11.34375" type="curve" smooth="yes"/>
      <point x="1342.578125" y="1462.0" type="line"/>
      <point x="1183.484375" y="1462.0" type="line"/>
      <point x="1183.484375" y="670.6875" type="line" smooth="yes"/>
      <point x="1183.484375" y="525.921875"/>
      <point x="1188.828125" y="362.375"/>
      <point x="1196.171875" y="272.84375" type="curve"/>
      <point x="1188.609375" y="272.84375" type="line"/>
      <point x="394.5" y="1462.0" type="line"/>
      <point x="200.3125" y="1462.0" type="line"/>
      <point x="200.3125" y="0.0" type="line"/>
      <point x="357.515625" y="0.0" type="line"/>
      <point x="357.515625" y="818.703125" type="line" smooth="yes"/>
      <point x="357.515625" y="963.328125"/>
      <point x="347.71875" y="1144.625"/>
      <point x="342.15625" y="1227.890625" type="curve"/>
      <point x="349.71875" y="1227.890625" type="line"/>
      <point x="1183.484375" y="2.1875000000000036" type="line"/>
      <point x="1181.703125" y="-180.734375"/>
      <point x="1077.4375" y="-235.3125"/>
      <point x="966.0" y="-235.3125" type="curve" smooth="yes"/>
      <point x="906.109375" y="-235.3125"/>
      <point x="852.453125" y="-227.09375"/>
      <point x="809.453125" y="-214.875" type="curve"/>
      <point x="809.453125" y="-358.5" type="line"/>
      <point x="845.6875" y="-374.953125"/>
      <point x="898.765625" y="-385.390625"/>
    </contour>
  </outline>
</glyph>
<glyph name="Tbar" format="2">
  <advance width="1127.515625"/>
  <unicode hex="0166"/>
  <anchor x="563.421875" y="0.0" name="bottom"/>
  <anchor x="563.421875" y="1462.0" name="top"/>
  <outline>
    <contour>
      <point x="476.53125" y="0.0" type="line"/>
      <point x="646.3125" y="0.0" type="line"/>
      <point x="646.3125" y="672.671875" type="line"/>
      <point x="959.390625" y="672.671875" type="line"/>
      <point x="959.390625" y="812.734375" type="line"/>
      <point x="646.3125" y="812.734375" type="line"/>
      <point x="646.3125" y="1310.359375" type="line"/>
      <point x="1106.59375" y="1310.359375" type="line"/>
      <point x="1106.59375" y="1462.0" type="line"/>
      <point x="18.25" y="1462.0" type="line"/>
      <point x="18.25" y="1310.359375" type="line"/>
      <point x="476.53125" y="1310.359375" type="line"/>
      <point x="476.53125" y="812.734375" type="line"/>
      <point x="162.34375" y="812.734375" type="line"/>
      <point x="162.34375" y="672.671875" type="line"/>
      <point x="476.53125" y="672.671875" type="line"/>
    </contour>
  </outline>
</glyph>
<glyph name="tbar" format="2">
  <advance width="729.59375"/>
  <unicode hex="0167"/>
  <anchor x="432.859375" y="0.0" name="bottom"/>
  <anchor x="304.9375" y="1350.0" name="top"/>
  <outline>
    <contour>
      <point x="47.6875" y="574.203125" type="line"/>
      <point x="655.421875" y="574.203125" type="line"/>
      <point x="655.421875" y="700.90625" type="line"/>
      <point x="47.6875" y="700.90625" type="line"/>
    </contour>
    <component base="t"/>
  </outline>
</glyph>
<glyph name="uni0181" format="2">
  <advance width="1485.375"/>
  <unicode hex="0181"/>
  <anchor x="743.296875" y="0.0" name="bottom"/>
  <anchor x="743.296875" y="1462.0" name="top"/>
  <outline>
    <contour>
      <point x="362.0" y="0.0" type="line"/>
      <point x="865.515625" y="0.0" type="line" smooth="yes"/>
      <point x="1176.984375" y="0.0"/>
      <point x="1373.9375" y="146.171875"/>
      <point x="1373.9375" y="416.0" type="curve" smooth="yes"/>
      <point x="1373.9375" y="638.296875"/>
      <point x="1237.390625" y="734.5625"/>
      <point x="1047.15625" y="766.21875" type="curve"/>
      <point x="1047.15625" y="775.5625" type="line"/>
      <point x="1228.03125" y="808.5625"/>
      <point x="1326.25" y="929.75"/>
      <point x="1326.25" y="1101.09375" type="curve" smooth="yes"/>
      <point x="1326.25" y="1363.8125"/>
      <point x="1141.390625" y="1462.0"/>
      <point x="777.15625" y="1462.0" type="curve" smooth="yes"/>
      <point x="308.5625" y="1462.0" type="line" smooth="yes"/>
      <point x="113.21875" y="1462.0"/>
      <point x="20.0" y="1376.71875"/>
      <point x="20.0" y="1204.4375" type="curve" smooth="yes"/>
      <point x="20.0" y="1170.125"/>
      <point x="30.5625" y="1120.0"/>
      <point x="42.5625" y="1092.0" type="curve"/>
      <point x="192.640625" y="1092.0" type="line"/>
      <point x="184.640625" y="1110.0"/>
      <point x="171.75" y="1157.0"/>
      <point x="171.75" y="1202.0" type="curve" smooth="yes"/>
      <point x="171.75" y="1271.109375"/>
      <point x="214.03125" y="1316.59375"/>
      <point x="309.0" y="1316.59375" type="curve" smooth="yes"/>
      <point x="362.0" y="1316.59375" type="line"/>
    </contour>
    <contour>
      <point x="532.671875" y="144.515625" type="line"/>
      <point x="532.671875" y="692.234375" type="line"/>
      <point x="820.328125" y="692.234375" type="line" smooth="yes"/>
      <point x="1093.734375" y="692.234375"/>
      <point x="1193.359375" y="592.96875"/>
      <point x="1193.359375" y="428.25" type="curve" smooth="yes"/>
      <point x="1193.359375" y="254.625"/>
      <point x="1096.390625" y="144.515625"/>
      <point x="836.09375" y="144.515625" type="curve" smooth="yes"/>
    </contour>
    <contour>
      <point x="532.671875" y="835.078125" type="line"/>
      <point x="532.671875" y="1316.59375" type="line"/>
      <point x="783.625" y="1316.59375" type="line" smooth="yes"/>
      <point x="1039.171875" y="1316.59375"/>
      <point x="1151.015625" y="1248.1875"/>
      <point x="1151.015625" y="1082.171875" type="curve" smooth="yes"/>
      <point x="1151.015625" y="919.703125"/>
      <point x="1066.34375" y="835.078125"/>
      <point x="812.078125" y="835.078125" type="curve" smooth="yes"/>
    </contour>
  </outline>
</glyph>
<glyph name="uni018A" format="2">
  <advance width="1648.28125"/>
  <unicode hex="018A"/>
  <anchor x="824.078125" y="0.0" name="bottom"/>
  <anchor x="824.078125" y="1462.0" name="top"/>
  <outline>
    <contour>
      <point x="361.125" y="0.0" type="line"/>
      <point x="759.0625" y="0.0" type="line" smooth="yes"/>
      <point x="1243.453125" y="0.0"/>
      <point x="1522.625" y="252.4375"/>
      <point x="1522.625" y="745.0" type="curve" smooth="yes"/>
      <point x="1522.625" y="1213.5625"/>
      <point x="1247.203125" y="1462.0"/>
      <point x="802.5" y="1462.0" type="curve" smooth="yes"/>
      <point x="308.5625" y="1462.0" type="line" smooth="yes"/>
      <point x="113.65625" y="1462.0"/>
      <point x="19.78125" y="1377.8125"/>
      <point x="19.78125" y="1204.4375" type="curve" smooth="yes"/>
      <point x="19.78125" y="1170.125"/>
      <point x="30.5625" y="1120.0"/>
      <point x="42.5625" y="1092.0" type="curve"/>
      <point x="192.640625" y="1092.0" type="line"/>
      <point x="184.640625" y="1110.0"/>
      <point x="171.75" y="1157.0"/>
      <point x="171.75" y="1202.0" type="curve" smooth="yes"/>
      <point x="171.75" y="1271.109375"/>
      <point x="214.03125" y="1316.59375"/>
      <point x="309.0" y="1316.59375" type="curve" smooth="yes"/>
      <point x="361.125" y="1316.59375" type="line"/>
    </contour>
    <contour>
      <point x="531.796875" y="146.296875" type="line"/>
      <point x="531.796875" y="1316.59375" type="line"/>
      <point x="776.15625" y="1316.59375" type="line" smooth="yes"/>
      <point x="1142.5" y="1316.59375"/>
      <point x="1342.828125" y="1133.46875"/>
      <point x="1342.828125" y="739.4375" type="curve" smooth="yes"/>
      <point x="1342.828125" y="345.796875"/>
      <point x="1141.4375" y="146.296875"/>
      <point x="737.453125" y="146.296875" type="curve" smooth="yes"/>
    </contour>
  </outline>
</glyph>
<glyph name="uni018E" format="2">
  <advance width="1137.578125"/>
  <unicode hex="018E"/>
  <anchor x="541.625" y="0.0" name="bottom"/>
  <anchor x="550.53125" y="1462.0" name="top"/>
  <anchor x="1028.890625" y="1462.0" name="topright"/>
  <outline>
    <contour>
      <point x="123.4375" y="0.0" type="line"/>
      <point x="937.265625" y="0.0" type="line"/>
      <point x="937.265625" y="1462.0" type="line"/>
      <point x="123.4375" y="1462.0" type="line"/>
      <point x="123.4375" y="1312.140625" type="line"/>
      <point x="767.59375" y="1312.140625" type="line"/>
      <point x="767.59375" y="838.859375" type="line"/>
      <point x="160.875" y="838.859375" type="line"/>
      <point x="160.875" y="690.671875" type="line"/>
      <point x="767.59375" y="690.671875" type="line"/>
      <point x="767.59375" y="149.859375" type="line"/>
      <point x="123.4375" y="149.859375" type="line"/>
    </contour>
  </outline>
</glyph>
<glyph name="uni0190" format="2">
  <advance width="1193.71875"/>
  <unicode hex="0190"/>
  <anchor x="596.859375" y="0.0" name="bottom"/>
  <anchor x="596.859375" y="1462.0" name="top"/>
  <outline>
    <contour>
      <point x="641.25" y="1483.0" type="curve" smooth="yes"/>
      <point x="341.96875" y="1483.0"/>
      <point x="177.125" y="1331.875"/>
      <point x="177.125" y="1118.03125" type="curve" smooth="yes"/>
      <point x="177.125" y="918.171875"/>
      <point x="297.46875" y="804.34375"/>
      <point x="478.359375" y="771.125" type="curve"/>
      <point x="478.359375" y="763.5625" type="line"/>
      <point x="241.34375" y="729.03125"/>
      <point x="111.4375" y="604.46875"/>
      <point x="111.4375" y="397.03125" type="curve" smooth="yes"/>
      <point x="111.4375" y="152.390625"/>
      <point x="267.640625" y="-20.0"/>
      <point x="669.03125" y="-20.0" type="curve" smooth="yes"/>
      <point x="848.8125" y="-20.0"/>
      <point x="995.03125" y="11.640625000000002"/>
      <point x="1114.84375" y="70.4375" type="curve"/>
      <point x="1114.84375" y="226.296875" type="line"/>
      <point x="990.140625" y="164.84375"/>
      <point x="829.46875" y="120.06249999999999"/>
      <point x="677.9375" y="120.06249999999999" type="curve" smooth="yes"/>
      <point x="426.546875" y="120.06249999999999"/>
      <point x="288.453125" y="223.59375"/>
      <point x="288.453125" y="410.390625" type="curve" smooth="yes"/>
      <point x="288.453125" y="599.53125"/>
      <point x="454.921875" y="686.015625"/>
      <point x="740.109375" y="686.015625" type="curve" smooth="yes"/>
      <point x="950.421875" y="686.015625" type="line"/>
      <point x="950.421875" y="828.75" type="line"/>
      <point x="749.234375" y="828.75" type="line" smooth="yes"/>
      <point x="482.0625" y="828.75"/>
      <point x="353.25" y="933.296875"/>
      <point x="353.25" y="1102.0" type="curve" smooth="yes"/>
      <point x="353.25" y="1256.0"/>
      <point x="473.15625" y="1342.046875"/>
      <point x="644.8125" y="1342.046875" type="curve" smooth="yes"/>
      <point x="818.953125" y="1342.046875"/>
      <point x="921.046875" y="1291.59375"/>
      <point x="1027.734375" y="1219.671875" type="curve"/>
      <point x="1109.0625" y="1336.140625" type="line"/>
      <point x="1000.59375" y="1417.078125"/>
      <point x="841.078125" y="1483.0"/>
    </contour>
  </outline>
</glyph>
<glyph name="uni0191" format="2">
  <advance width="1208.734375"/>
  <unicode hex="0191"/>
  <anchor x="266.6875" y="-1.0937500000000018" name="bottom"/>
  <anchor x="784.09375" y="1462.0" name="top"/>
  <anchor x="1210.921875" y="1462.0" name="topright"/>
  <outline>
    <contour>
      <point x="248.875" y="-31.0" type="curve" smooth="yes"/>
      <point x="432.078125" y="-31.0"/>
      <point x="562.734375" y="80.265625"/>
      <point x="562.734375" y="329.703125" type="curve" smooth="yes"/>
      <point x="562.734375" y="689.578125" type="line"/>
      <point x="1127.21875" y="689.578125" type="line"/>
      <point x="1127.21875" y="839.4375" type="line"/>
      <point x="562.734375" y="839.4375" type="line"/>
      <point x="562.734375" y="1312.140625" type="line"/>
      <point x="1166.21875" y="1312.140625" type="line"/>
      <point x="1166.21875" y="1462.0" type="line"/>
      <point x="393.0625" y="1462.0" type="line"/>
      <point x="393.0625" y="345.953125" type="line" smooth="yes"/>
      <point x="393.0625" y="180.421875"/>
      <point x="330.859375" y="118.64062499999999"/>
      <point x="248.4375" y="118.64062499999999" type="curve" smooth="yes"/>
      <point x="175.765625" y="118.64062499999999"/>
      <point x="130.28125" y="169.03125"/>
      <point x="130.28125" y="252.390625" type="curve" smooth="yes"/>
      <point x="130.28125" y="279.65625"/>
      <point x="133.375" y="299.734375"/>
      <point x="137.8125" y="318.171875" type="curve"/>
      <point x="-11.593749999999996" y="364.671875" type="line"/>
      <point x="-26.046874999999996" y="322.4375"/>
      <point x="-32.484375" y="281.0"/>
      <point x="-32.484375" y="241.921875" type="curve" smooth="yes"/>
      <point x="-32.484375" y="75.125"/>
      <point x="69.0625" y="-31.0"/>
    </contour>
  </outline>
</glyph>
<glyph name="uni0195" format="2">
  <advance width="1905.125"/>
  <unicode hex="0195"/>
  <anchor x="952.28125" y="0.0" name="bottom"/>
  <anchor x="952.28125" y="1096.140625" name="top"/>
  <outline>
    <contour>
      <point x="1310.3125" y="-20.546875" type="curve" smooth="yes"/>
      <point x="1594.84375" y="-20.546875"/>
      <point x="1739.5625" y="103.171875"/>
      <point x="1739.5625" y="422.859375" type="curve" smooth="yes"/>
      <point x="1739.5625" y="1099.75" type="line"/>
      <point x="1573.453125" y="1099.75" type="line"/>
      <point x="1573.453125" y="428.859375" type="line" smooth="yes"/>
      <point x="1573.453125" y="209.34375"/>
      <point x="1492.359375" y="117.84374999999999"/>
      <point x="1310.3125" y="117.84374999999999" type="curve" smooth="yes"/>
      <point x="1129.171875" y="117.84374999999999"/>
      <point x="1045.53125" y="208.90625"/>
      <point x="1045.53125" y="393.4375" type="curve" smooth="yes"/>
      <point x="1045.53125" y="714.34375" type="line" smooth="yes"/>
      <point x="1045.53125" y="993.03125"/>
      <point x="917.65625" y="1114.46875"/>
      <point x="671.296875" y="1114.46875" type="curve" smooth="yes"/>
      <point x="529.46875" y="1114.46875"/>
      <point x="406.578125" y="1050.6875"/>
      <point x="343.09375" y="935.9375" type="curve"/>
      <point x="331.859375" y="935.9375" type="line"/>
      <point x="337.53125" y="980.6875"/>
      <point x="341.3125" y="1036.828125"/>
      <point x="341.3125" y="1090.8125" type="curve" smooth="yes"/>
      <point x="341.3125" y="1556.0" type="line"/>
      <point x="175.09375" y="1556.0" type="line"/>
      <point x="175.09375" y="0.0" type="line"/>
      <point x="341.3125" y="0.0" type="line"/>
      <point x="341.3125" y="572.578125" type="line" smooth="yes"/>
      <point x="341.3125" y="832.84375"/>
      <point x="421.046875" y="976.1875"/>
      <point x="645.46875" y="976.1875" type="curve" smooth="yes"/>
      <point x="804.28125" y="976.1875"/>
      <point x="878.53125" y="886.328125"/>
      <point x="878.53125" y="702.546875" type="curve" smooth="yes"/>
      <point x="878.53125" y="381.4375" type="line" smooth="yes"/>
      <point x="878.53125" y="102.515625"/>
      <point x="1024.484375" y="-20.546875"/>
    </contour>
  </outline>
</glyph>
<glyph name="uni0196" format="2">
  <advance width="701.515625"/>
  <unicode hex="0196"/>
  <anchor x="405.640625" y="0.0" name="bottom"/>
  <anchor x="285.40625" y="1462.0" name="top"/>
  <outline>
    <contour>
      <point x="490.125" y="-20.0" type="curve" smooth="yes"/>
      <point x="560.796875" y="-20.0"/>
      <point x="641.1875" y="-6.21875"/>
      <point x="680.1875" y="11.5625" type="curve"/>
      <point x="680.1875" y="152.515625" type="line"/>
      <point x="643.875" y="141.640625"/>
      <point x="574.15625" y="128.96875"/>
      <point x="514.15625" y="128.96875" type="curve" smooth="yes"/>
      <point x="402.953125" y="128.96875"/>
      <point x="352.890625" y="194.203125"/>
      <point x="352.890625" y="331.21875" type="curve" smooth="yes"/>
      <point x="352.890625" y="1462.0" type="line"/>
      <point x="184.0" y="1462.0" type="line"/>
      <point x="184.0" y="315.0" type="line" smooth="yes"/>
      <point x="184.0" y="53.4375"/>
      <point x="313.5" y="-20.0"/>
    </contour>
  </outline>
</glyph>
<glyph name="uni019C" format="2">
  <advance width="2093.578125"/>
  <unicode hex="019C"/>
  <anchor x="1047.34375" y="0.0" name="bottom"/>
  <anchor x="1047.34375" y="1462.0" name="top"/>
  <outline>
    <contour>
      <point x="585.046875" y="-20.0" type="curve" smooth="yes"/>
      <point x="750.46875" y="-20.0"/>
      <point x="902.53125" y="49.26562500000001"/>
      <point x="981.25" y="189.140625" type="curve"/>
      <point x="990.59375" y="189.140625" type="line"/>
      <point x="1048.734375" y="48.828125"/>
      <point x="1160.984375" y="-20.0"/>
      <point x="1349.921875" y="-20.0" type="curve" smooth="yes"/>
      <point x="1506.625" y="-20.0"/>
      <point x="1650.5" y="47.89062500000001"/>
      <point x="1722.0" y="172.921875" type="curve"/>
      <point x="1732.234375" y="172.921875" type="line"/>
      <point x="1759.9375" y="0.0" type="line"/>
      <point x="1894.671875" y="0.0" type="line"/>
      <point x="1894.671875" y="1462.0" type="line"/>
      <point x="1724.0" y="1462.0" type="line"/>
      <point x="1724.0" y="566.953125" type="line" smooth="yes"/>
      <point x="1724.0" y="278.15625"/>
      <point x="1633.796875" y="127.18749999999999"/>
      <point x="1384.65625" y="127.18749999999999" type="curve" smooth="yes"/>
      <point x="1203.9375" y="127.18749999999999"/>
      <point x="1124.453125" y="223.859375"/>
      <point x="1124.453125" y="423.8125" type="curve" smooth="yes"/>
      <point x="1124.453125" y="1462.0" type="line"/>
      <point x="953.78125" y="1462.0" type="line"/>
      <point x="953.78125" y="530.4375" type="line" smooth="yes"/>
      <point x="953.78125" y="263.90625"/>
      <point x="854.203125" y="127.18749999999999"/>
      <point x="609.984375" y="127.18749999999999" type="curve" smooth="yes"/>
      <point x="433.71875" y="127.18749999999999"/>
      <point x="354.125" y="223.859375"/>
      <point x="354.125" y="423.8125" type="curve" smooth="yes"/>
      <point x="354.125" y="1462.0" type="line"/>
      <point x="183.5625" y="1462.0" type="line"/>
      <point x="183.5625" y="423.484375" type="line" smooth="yes"/>
      <point x="183.5625" y="110.921875"/>
      <point x="313.21875" y="-20.0"/>
    </contour>
  </outline>
</glyph>
<glyph name="Ohorn" format="2">
  <advance width="1598.78125"/>
  <unicode hex="01A0"/>
  <anchor x="797.609375" y="0.0" name="bottom"/>
  <anchor x="797.609375" y="1462.0" name="top"/>
  <outline>
    <contour>
      <point x="1466.4375" y="733.0" type="curve" smooth="yes"/>
      <point x="1466.4375" y="901.734375"/>
      <point x="1434.5625" y="1048.046875"/>
      <point x="1372.015625" y="1165.484375" type="curve"/>
      <point x="1537.671875" y="1226.96875"/>
      <point x="1606.296875" y="1367.734375"/>
      <point x="1634.125" y="1535.3125" type="curve"/>
      <point x="1619.671875" y="1556.0" type="line"/>
      <point x="1441.96875" y="1556.0" type="line"/>
      <point x="1441.96875" y="1407.671875"/>
      <point x="1417.421875" y="1300.046875"/>
      <point x="1305.609375" y="1269.265625" type="curve"/>
      <point x="1193.265625" y="1404.5625"/>
      <point x="1023.59375" y="1485.0"/>
      <point x="800.703125" y="1485.0" type="curve" smooth="yes"/>
      <point x="344.1875" y="1485.0"/>
      <point x="125.4375" y="1183.125"/>
      <point x="125.4375" y="735.0" type="curve" smooth="yes"/>
      <point x="125.4375" y="284.09375"/>
      <point x="342.21875" y="-20.0"/>
      <point x="797.609375" y="-20.0" type="curve" smooth="yes"/>
      <point x="1236.734375" y="-20.0"/>
      <point x="1466.4375" y="282.3125"/>
    </contour>
    <contour>
      <point x="304.234375" y="733.21875" type="curve" smooth="yes"/>
      <point x="304.234375" y="1104.265625"/>
      <point x="457.59375" y="1335.140625"/>
      <point x="800.703125" y="1335.140625" type="curve" smooth="yes"/>
      <point x="1136.75" y="1335.140625"/>
      <point x="1286.75" y="1108.53125"/>
      <point x="1286.75" y="733.0" type="curve" smooth="yes"/>
      <point x="1286.75" y="359.96875"/>
      <point x="1139.265625" y="127.18749999999999"/>
      <point x="797.828125" y="127.18749999999999" type="curve" smooth="yes"/>
      <point x="456.71875" y="127.18749999999999"/>
      <point x="304.234375" y="360.734375"/>
    </contour>
  </outline>
</glyph>
<glyph name="ohorn" format="2">
  <advance width="1251.171875"/>
  <unicode hex="01A1"/>
  <anchor x="612.28125" y="0.0" name="bottom"/>
  <anchor x="616.734375" y="1096.140625" name="top"/>
  <outline>
    <contour>
      <point x="1120.015625" y="549.90625" type="curve" smooth="yes"/>
      <point x="1120.015625" y="676.65625"/>
      <point x="1093.6875" y="784.953125"/>
      <point x="1049.15625" y="872.046875" type="curve"/>
      <point x="1201.03125" y="928.625"/>
      <point x="1270.796875" y="1053.796875"/>
      <point x="1303.96875" y="1242.5625" type="curve"/>
      <point x="1290.40625" y="1264.140625" type="line"/>
      <point x="1113.59375" y="1264.140625" type="line"/>
      <point x="1113.59375" y="1120.453125"/>
      <point x="1093.46875" y="1010.609375"/>
      <point x="974.734375" y="974.046875" type="curve"/>
      <point x="888.265625" y="1064.484375"/>
      <point x="764.90625" y="1116.25"/>
      <point x="620.265625" y="1116.25" type="curve" smooth="yes"/>
      <point x="305.90625" y="1116.25"/>
      <point x="113.875" y="909.9375"/>
      <point x="113.875" y="549.90625" type="curve" smooth="yes"/>
      <point x="113.875" y="189.609375"/>
      <point x="320.3125" y="-20.0"/>
      <point x="612.71875" y="-20.0" type="curve" smooth="yes"/>
      <point x="927.484375" y="-20.0"/>
      <point x="1120.015625" y="190.046875"/>
    </contour>
    <contour>
      <point x="285.546875" y="549.90625" type="curve" smooth="yes"/>
      <point x="285.546875" y="828.828125"/>
      <point x="385.890625" y="976.1875"/>
      <point x="615.8125" y="976.1875" type="curve" smooth="yes"/>
      <point x="848.703125" y="976.1875"/>
      <point x="948.234375" y="824.78125"/>
      <point x="948.234375" y="549.90625" type="curve" smooth="yes"/>
      <point x="948.234375" y="270.71875"/>
      <point x="848.84375" y="118.28124999999999"/>
      <point x="617.171875" y="118.28124999999999" type="curve" smooth="yes"/>
      <point x="385.59375" y="118.28124999999999"/>
      <point x="285.546875" y="270.28125"/>
    </contour>
  </outline>
</glyph>
<glyph name="uni01A6" format="2">
  <advance width="1263.9375"/>
  <unicode hex="01A6"/>
  <anchor x="632.078125" y="-205.0" name="bottom"/>
  <anchor x="632.078125" y="1462.0" name="top"/>
  <outline>
    <contour>
      <point x="1031.609375" y="-205.0" type="line"/>
      <point x="1230.421875" y="-205.0" type="line"/>
      <point x="829.421875" y="452.53125" type="line"/>
      <point x="982.984375" y="503.96875"/>
      <point x="1126.46875" y="612.921875"/>
      <point x="1126.46875" y="845.0625" type="curve" smooth="yes"/>
      <point x="1126.46875" y="1125.90625"/>
      <point x="955.046875" y="1257.0"/>
      <point x="594.890625" y="1257.0" type="curve" smooth="yes"/>
      <point x="369.984375" y="1257.0" type="line"/>
      <point x="369.984375" y="1462.0" type="line"/>
      <point x="200.3125" y="1462.0" type="line"/>
      <point x="200.3125" y="0.0" type="line"/>
      <point x="369.984375" y="0.0" type="line"/>
      <point x="369.984375" y="404.6875" type="line"/>
      <point x="673.5625" y="404.6875" type="line"/>
    </contour>
    <contour>
      <point x="369.984375" y="549.203125" type="line"/>
      <point x="369.984375" y="1109.8125" type="line"/>
      <point x="584.78125" y="1109.8125" type="line" smooth="yes"/>
      <point x="832.640625" y="1109.8125"/>
      <point x="950.234375" y="1035.59375"/>
      <point x="950.234375" y="837.71875" type="curve" smooth="yes"/>
      <point x="950.234375" y="647.46875"/>
      <point x="839.5625" y="549.203125"/>
      <point x="601.5625" y="549.203125" type="curve" smooth="yes"/>
    </contour>
  </outline>
</glyph>
<glyph name="uni01AA" format="2">
  <advance width="729.6875"/>
  <unicode hex="01AA"/>
  <anchor x="366.234375" y="-491.234375" name="bottom"/>
  <anchor x="366.234375" y="1567.0" name="top"/>
  <outline>
    <contour>
      <point x="239.5625" y="1567.0" type="curve" smooth="yes"/>
      <point x="48.390625" y="1567.0"/>
      <point x="-16.4375" y="1455.53125"/>
      <point x="-16.4375" y="1338.5625" type="curve" smooth="yes"/>
      <point x="-16.4375" y="1203.375"/>
      <point x="60.171875" y="1109.34375"/>
      <point x="237.53125" y="1109.34375" type="curve" smooth="yes"/>
      <point x="339.59375" y="1109.34375" type="line"/>
      <point x="339.59375" y="-155.578125" type="line" smooth="yes"/>
      <point x="339.59375" y="-414.828125"/>
      <point x="466.765625" y="-491.234375"/>
      <point x="645.453125" y="-491.234375" type="curve" smooth="yes"/>
      <point x="715.046875" y="-491.234375"/>
      <point x="792.453125" y="-477.0"/>
      <point x="829.46875" y="-459.65625" type="curve"/>
      <point x="829.46875" y="-332.0625" type="line"/>
      <point x="796.015625" y="-342.28125"/>
      <point x="726.171875" y="-353.84375"/>
      <point x="667.5" y="-353.84375" type="curve" smooth="yes"/>
      <point x="554.75" y="-353.84375"/>
      <point x="503.921875" y="-288.625"/>
      <point x="503.921875" y="-151.265625" type="curve" smooth="yes"/>
      <point x="503.921875" y="1280.1875" type="line" smooth="yes"/>
      <point x="503.921875" y="1471.796875"/>
      <point x="404.578125" y="1567.0"/>
    </contour>
    <contour>
      <point x="227.4375" y="1429.609375" type="curve" smooth="yes"/>
      <point x="310.796875" y="1429.609375"/>
      <point x="339.59375" y="1370.96875"/>
      <point x="339.59375" y="1283.125" type="curve" smooth="yes"/>
      <point x="339.59375" y="1245.84375" type="line"/>
      <point x="249.75" y="1245.84375" type="line" smooth="yes"/>
      <point x="180.8125" y="1245.84375"/>
      <point x="134.75" y="1273.765625"/>
      <point x="134.75" y="1338.78125" type="curve" smooth="yes"/>
      <point x="134.75" y="1386.5625"/>
      <point x="161.0" y="1429.609375"/>
    </contour>
  </outline>
</glyph>
<glyph name="uni01AC" format="2">
  <advance width="1161.40625"/>
  <unicode hex="01AC"/>
  <anchor x="580.8125" y="0.0" name="bottom"/>
  <anchor x="580.8125" y="1462.0" name="top"/>
  <outline>
    <contour>
      <point x="514.828125" y="0.0" type="line"/>
      <point x="684.609375" y="0.0" type="line"/>
      <point x="684.609375" y="1312.140625" type="line"/>
      <point x="1143.109375" y="1312.140625" type="line"/>
      <point x="1143.109375" y="1462.0" type="line"/>
      <point x="309.65625" y="1462.0" type="line" smooth="yes"/>
      <point x="112.5625" y="1462.0"/>
      <point x="19.78125" y="1376.28125"/>
      <point x="19.78125" y="1204.21875" type="curve" smooth="yes"/>
      <point x="19.78125" y="1169.03125"/>
      <point x="31.0" y="1119.125"/>
      <point x="42.78125" y="1091.453125" type="curve"/>
      <point x="193.296875" y="1091.453125" type="line"/>
      <point x="185.296875" y="1109.5625"/>
      <point x="171.96875" y="1156.34375"/>
      <point x="171.96875" y="1202.21875" type="curve" smooth="yes"/>
      <point x="171.96875" y="1271.109375"/>
      <point x="214.46875" y="1312.140625"/>
      <point x="310.09375" y="1312.140625" type="curve" smooth="yes"/>
      <point x="514.828125" y="1312.140625" type="line"/>
    </contour>
  </outline>
</glyph>
<glyph name="uni01AD" format="2">
  <advance width="729.59375"/>
  <unicode hex="01AD"/>
  <anchor x="366.296875" y="0.0" name="bottom"/>
  <anchor x="366.296875" y="1567.0" name="top"/>
  <outline>
    <contour>
      <point x="482.046875" y="1567.0" type="curve" smooth="yes"/>
      <point x="287.359375" y="1567.0"/>
      <point x="189.78125" y="1457.390625"/>
      <point x="189.78125" y="1261.0625" type="curve" smooth="yes"/>
      <point x="189.78125" y="1112.171875" type="line"/>
      <point x="31.578125" y="1047.390625" type="line"/>
      <point x="31.578125" y="965.875" type="line"/>
      <point x="187.78125" y="965.875" type="line"/>
      <point x="187.78125" y="315.5" type="line" smooth="yes"/>
      <point x="187.78125" y="57.70312500000001"/>
      <point x="327.71875" y="-20.0"/>
      <point x="501.6875" y="-20.0" type="curve" smooth="yes"/>
      <point x="567.453125" y="-20.0"/>
      <point x="643.625" y="-6.21875"/>
      <point x="683.28125" y="11.34375" type="curve"/>
      <point x="683.28125" y="139.828125" type="line"/>
      <point x="647.1875" y="126.49999999999999"/>
      <point x="583.9375" y="116.49999999999999"/>
      <point x="529.296875" y="116.49999999999999" type="curve" smooth="yes"/>
      <point x="422.828125" y="116.49999999999999"/>
      <point x="354.890625" y="182.890625"/>
      <point x="354.890625" y="320.609375" type="curve" smooth="yes"/>
      <point x="354.890625" y="965.875" type="line"/>
      <point x="675.71875" y="965.875" type="line"/>
      <point x="675.71875" y="1096.140625" type="line"/>
      <point x="354.890625" y="1096.140625" type="line"/>
      <point x="354.890625" y="1279.109375" type="line" smooth="yes"/>
      <point x="354.890625" y="1374.5"/>
      <point x="394.515625" y="1422.703125"/>
      <point x="481.609375" y="1422.703125" type="curve" smooth="yes"/>
      <point x="541.296875" y="1422.703125"/>
      <point x="609.90625" y="1410.8125"/>
      <point x="634.890625" y="1401.9375" type="curve"/>
      <point x="634.890625" y="1540.4375" type="line"/>
      <point x="600.875" y="1552.4375"/>
      <point x="542.71875" y="1567.0"/>
    </contour>
  </outline>
</glyph>
<glyph name="uni01B3" format="2">
  <advance width="1177.484375"/>
  <unicode hex="01B3"/>
  <anchor x="578.796875" y="0.0" name="bottom"/>
  <anchor x="578.796875" y="1462.0" name="top"/>
  <outline>
    <contour>
      <point x="487.765625" y="0.0" type="line"/>
      <point x="658.328125" y="0.0" type="line"/>
      <point x="658.328125" y="566.5625" type="line"/>
      <point x="994.265625" y="1261.265625" type="line" smooth="yes"/>
      <point x="1020.125" y="1314.984375"/>
      <point x="1047.5625" y="1340.484375"/>
      <point x="1087.921875" y="1340.484375" type="curve" smooth="yes"/>
      <point x="1116.6875" y="1340.484375"/>
      <point x="1145.140625" y="1334.15625"/>
      <point x="1166.59375" y="1324.375" type="curve"/>
      <point x="1166.59375" y="1462.65625" type="line"/>
      <point x="1141.578125" y="1473.4375"/>
      <point x="1102.0" y="1485.0"/>
      <point x="1048.96875" y="1485.0" type="curve" smooth="yes"/>
      <point x="957.78125" y="1485.0"/>
      <point x="898.75" y="1449.515625"/>
      <point x="845.28125" y="1331.0" type="curve" smooth="yes"/>
      <point x="573.21875" y="728.890625" type="line"/>
      <point x="185.6875" y="1462.0" type="line"/>
      <point x="0.0" y="1462.0" type="line"/>
      <point x="487.765625" y="558.5625" type="line"/>
    </contour>
  </outline>
</glyph>
<glyph name="uni01B5" format="2">
  <advance width="1172.421875"/>
  <unicode hex="01B5"/>
  <anchor x="586.65625" y="0.0" name="bottom"/>
  <anchor x="586.65625" y="1462.0" name="top"/>
  <outline>
    <contour>
      <point x="162.65625" y="828.3125" type="line"/>
      <point x="162.65625" y="692.703125" type="line"/>
      <point x="453.046875" y="692.703125" type="line"/>
      <point x="77.5625" y="127.84374999999999" type="line"/>
      <point x="77.5625" y="0.0" type="line"/>
      <point x="1093.09375" y="0.0" type="line"/>
      <point x="1093.09375" y="151.640625" type="line"/>
      <point x="284.484375" y="151.640625" type="line"/>
      <point x="644.515625" y="692.703125" type="line"/>
      <point x="995.65625" y="692.703125" type="line"/>
      <point x="995.65625" y="828.3125" type="line"/>
      <point x="733.84375" y="828.3125" type="line"/>
      <point x="1071.65625" y="1334.15625" type="line"/>
      <point x="1071.65625" y="1462.0" type="line"/>
      <point x="105.171875" y="1462.0" type="line"/>
      <point x="105.171875" y="1310.359375" type="line"/>
      <point x="864.734375" y="1310.359375" type="line"/>
      <point x="543.265625" y="828.3125" type="line"/>
    </contour>
  </outline>
</glyph>
<glyph name="uni01B8" format="2">
  <advance width="1188.34375"/>
  <unicode hex="01B8"/>
  <anchor x="594.171875" y="0.0" name="bottom"/>
  <anchor x="594.171875" y="1462.0" name="top"/>
  <outline>
    <contour>
      <point x="669.03125" y="-20.0" type="curve" smooth="yes"/>
      <point x="850.15625" y="-20.0"/>
      <point x="990.9375" y="2.1875000000000036"/>
      <point x="1111.75" y="60.203125" type="curve"/>
      <point x="1111.75" y="216.0625" type="line"/>
      <point x="986.9375" y="155.71875"/>
      <point x="829.03125" y="120.06249999999999"/>
      <point x="688.625" y="120.06249999999999" type="curve" smooth="yes"/>
      <point x="422.546875" y="120.06249999999999"/>
      <point x="288.921875" y="238.8125"/>
      <point x="288.921875" y="432.171875" type="curve" smooth="yes"/>
      <point x="288.921875" y="657.03125"/>
      <point x="447.71875" y="753.09375"/>
      <point x="665.046875" y="753.09375" type="curve" smooth="yes"/>
      <point x="815.40625" y="753.09375" type="line"/>
      <point x="815.40625" y="877.125" type="line"/>
      <point x="387.546875" y="1310.359375" type="line"/>
      <point x="1073.15625" y="1310.359375" type="line"/>
      <point x="1073.15625" y="1462.0" type="line"/>
      <point x="171.375" y="1462.0" type="line"/>
      <point x="171.375" y="1328.15625" type="line"/>
      <point x="606.015625" y="891.375" type="line"/>
      <point x="337.984375" y="884.25"/>
      <point x="111.796875" y="734.109375"/>
      <point x="111.796875" y="428.609375" type="curve" smooth="yes"/>
      <point x="111.796875" y="184.421875"/>
      <point x="278.671875" y="-20.0"/>
    </contour>
  </outline>
</glyph>
<glyph name="uni01B9" format="2">
  <advance width="1006.328125"/>
  <unicode hex="01B9"/>
  <anchor x="503.328125" y="-492.0" name="bottom"/>
  <anchor x="503.328125" y="1096.140625" name="top"/>
  <outline>
    <contour>
      <point x="581.25" y="-492.0" type="curve" smooth="yes"/>
      <point x="760.109375" y="-492.0"/>
      <point x="886.703125" y="-465.21875"/>
      <point x="975.578125" y="-420.65625" type="curve"/>
      <point x="975.578125" y="-268.359375" type="line"/>
      <point x="884.703125" y="-311.796875"/>
      <point x="750.109375" y="-352.71875"/>
      <point x="593.71875" y="-352.71875" type="curve" smooth="yes"/>
      <point x="377.359375" y="-352.71875"/>
      <point x="234.24999999999997" y="-221.75"/>
      <point x="234.24999999999997" y="-22.046875000000007" type="curve" smooth="yes"/>
      <point x="234.24999999999997" y="225.25"/>
      <point x="400.46875" y="326.625"/>
      <point x="660.609375" y="326.625" type="curve" smooth="yes"/>
      <point x="776.015625" y="326.625" type="line"/>
      <point x="776.015625" y="442.875" type="line"/>
      <point x="318.0625" y="955.1875" type="line"/>
      <point x="947.90625" y="955.1875" type="line"/>
      <point x="947.90625" y="1096.140625" type="line"/>
      <point x="121.390625" y="1096.140625" type="line"/>
      <point x="121.390625" y="974.984375" type="line"/>
      <point x="580.21875" y="459.5625" type="line"/>
      <point x="287.5625" y="443.53125"/>
      <point x="67.921875" y="290.6875"/>
      <point x="67.921875" y="-26.937500000000007" type="curve" smooth="yes"/>
      <point x="67.921875" y="-293.046875"/>
      <point x="260.640625" y="-492.0"/>
    </contour>
  </outline>
</glyph>
<glyph name="uni01BE" format="2">
  <advance width="942.640625"/>
  <unicode hex="01BE"/>
  <anchor x="472.375" y="0.0" name="bottom"/>
  <anchor x="472.375" y="1350.0" name="top"/>
  <outline>
    <contour>
      <point x="417.5625" y="-20.0" type="curve" smooth="yes"/>
      <point x="686.875" y="-20.0"/>
      <point x="850.859375" y="92.515625"/>
      <point x="850.859375" y="301.46875" type="curve" smooth="yes"/>
      <point x="850.859375" y="471.1875"/>
      <point x="732.28125" y="547.90625"/>
      <point x="549.203125" y="614.5" type="curve" smooth="yes"/>
      <point x="475.453125" y="639.828125"/>
      <point x="448.71875" y="673.046875"/>
      <point x="448.71875" y="775.796875" type="curve" smooth="yes"/>
      <point x="448.71875" y="965.875" type="line"/>
      <point x="769.546875" y="965.875" type="line"/>
      <point x="769.546875" y="1096.140625" type="line"/>
      <point x="448.71875" y="1096.140625" type="line"/>
      <point x="448.71875" y="1350.0" type="line"/>
      <point x="348.71875" y="1350.0" type="line"/>
      <point x="284.0625" y="1112.171875" type="line"/>
      <point x="97.796875" y="1047.390625" type="line"/>
      <point x="97.796875" y="965.875" type="line"/>
      <point x="282.5" y="965.875" type="line"/>
      <point x="282.5" y="778.265625" type="line" smooth="yes"/>
      <point x="282.5" y="606.65625"/>
      <point x="334.921875" y="539.15625"/>
      <point x="452.5" y="490.90625" type="curve" smooth="yes"/>
      <point x="630.484375" y="419.40625"/>
      <point x="689.875" y="375.71875"/>
      <point x="689.875" y="286.5625" type="curve" smooth="yes"/>
      <point x="689.875" y="182.859375"/>
      <point x="611.65625" y="114.71874999999999"/>
      <point x="420.90625" y="114.71874999999999" type="curve" smooth="yes"/>
      <point x="292.34375" y="114.71874999999999"/>
      <point x="163.828125" y="157.203125"/>
      <point x="77.5" y="199.546875" type="curve"/>
      <point x="77.5" y="47.03125" type="line"/>
      <point x="158.21875" y="4.4375"/>
      <point x="264.0" y="-20.0"/>
    </contour>
  </outline>
</glyph>
<glyph name="uni01E5" format="2">
  <advance width="1252.78125"/>
  <unicode hex="01E5"/>
  <anchor x="627.390625" y="-492.0" name="bottom"/>
  <anchor x="627.390625" y="1096.140625" name="top"/>
  <outline>
    <contour>
      <point x="566.390625" y="1116.25" type="curve" smooth="yes"/>
      <point x="280.78125" y="1116.25"/>
      <point x="113.875" y="904.15625"/>
      <point x="113.875" y="572.09375" type="curve" smooth="yes"/>
      <point x="113.875" y="228.34375"/>
      <point x="281.65625" y="30.765624999999993"/>
      <point x="565.0" y="30.765624999999993" type="curve" smooth="yes"/>
      <point x="720.796875" y="30.765624999999993"/>
      <point x="837.3125" y="87.8125"/>
      <point x="910.359375" y="207.046875" type="curve"/>
      <point x="917.921875" y="207.046875" type="line"/>
      <point x="913.921875" y="170.6875"/>
      <point x="912.140625" y="113.21875"/>
      <point x="912.140625" y="66.578125" type="curve" smooth="yes"/>
      <point x="912.140625" y="-75.18750000000001" type="line"/>
      <point x="542.5" y="-75.18750000000001" type="line"/>
      <point x="542.5" y="-209.90625" type="line"/>
      <point x="888.546875" y="-209.90625" type="line"/>
      <point x="856.3125" y="-302.109375"/>
      <point x="762.484375" y="-352.71875"/>
      <point x="599.078125" y="-352.71875" type="curve" smooth="yes"/>
      <point x="441.625" y="-352.71875"/>
      <point x="300.046875" y="-320.84375"/>
      <point x="196.703125" y="-266.71875" type="curve"/>
      <point x="196.703125" y="-421.34375" type="line"/>
      <point x="300.046875" y="-467.6875"/>
      <point x="429.515625" y="-492.0"/>
      <point x="590.171875" y="-492.0" type="curve" smooth="yes"/>
      <point x="874.515625" y="-492.0"/>
      <point x="1024.640625" y="-377.875"/>
      <point x="1061.890625" y="-209.90625" type="curve"/>
      <point x="1195.375" y="-209.90625" type="line"/>
      <point x="1195.375" y="-75.18750000000001" type="line"/>
      <point x="1076.578125" y="-75.18750000000001" type="line"/>
      <point x="1076.578125" y="1096.140625" type="line"/>
      <point x="944.296875" y="1096.140625" type="line"/>
      <point x="921.71875" y="945.765625" type="line"/>
      <point x="911.484375" y="945.765625" type="line"/>
      <point x="832.21875" y="1059.421875"/>
      <point x="716.40625" y="1116.25"/>
    </contour>
    <contour>
      <point x="588.65625" y="976.1875" type="curve" smooth="yes"/>
      <point x="815.671875" y="976.1875"/>
      <point x="913.921875" y="847.3125"/>
      <point x="913.921875" y="570.828125" type="curve" smooth="yes"/>
      <point x="913.921875" y="531.609375" type="line" smooth="yes"/>
      <point x="913.921875" y="286.125"/>
      <point x="820.875" y="167.26562499999997"/>
      <point x="589.046875" y="167.26562499999997" type="curve" smooth="yes"/>
      <point x="389.8125" y="167.26562499999997"/>
      <point x="285.546875" y="308.984375"/>
      <point x="285.546875" y="569.421875" type="curve" smooth="yes"/>
      <point x="285.546875" y="828.171875"/>
      <point x="392.5" y="976.1875"/>
    </contour>
  </outline>
</glyph>
<glyph name="aringacute" format="2">
  <advance width="1137.84375"/>
  <unicode hex="01FB"/>
  <anchor x="569.421875" y="0.0" name="bottom"/>
  <anchor x="569.421875" y="1960.25" name="top"/>
  <outline>
    <contour>
      <point x="584.640625" y="1114.25" type="curve" smooth="yes"/>
      <point x="443.15625" y="1114.25"/>
      <point x="310.5625" y="1072.5625"/>
      <point x="213.25" y="1021.78125" type="curve"/>
      <point x="264.203125" y="895.75" type="line"/>
      <point x="357.15625" y="940.5"/>
      <point x="461.390625" y="979.53125"/>
      <point x="575.734375" y="979.53125" type="curve" smooth="yes"/>
      <point x="723.875" y="979.53125"/>
      <point x="808.75" y="913.265625"/>
      <point x="808.75" y="724.265625" type="curve" smooth="yes"/>
      <point x="808.75" y="656.75" type="line"/>
      <point x="620.015625" y="649.203125" type="line" smooth="yes"/>
      <point x="265.171875" y="638.328125"/>
      <point x="94.4375" y="519.078125"/>
      <point x="94.4375" y="300.515625" type="curve" smooth="yes"/>
      <point x="94.4375" y="83.09375"/>
      <point x="238.390625" y="-20.0"/>
      <point x="438.46875" y="-20.0" type="curve" smooth="yes"/>
      <point x="627.40625" y="-20.0"/>
      <point x="718.359375" y="40.57812500000001"/>
      <point x="810.09375" y="162.015625" type="curve"/>
      <point x="817.65625" y="162.015625" type="line"/>
      <point x="849.703125" y="0.0" type="line"/>
      <point x="971.40625" y="0.0" type="line"/>
      <point x="971.40625" y="744.609375" type="line" smooth="yes"/>
      <point x="971.40625" y="1001.703125"/>
      <point x="845.9375" y="1114.25"/>
    </contour>
    <contour>
      <point x="806.96875" y="539.84375" type="line"/>
      <point x="806.96875" y="439.421875" type="line" smooth="yes"/>
      <point x="806.53125" y="222.59375"/>
      <point x="669.5" y="114.71874999999999"/>
      <point x="474.984375" y="114.71874999999999" type="curve" smooth="yes"/>
      <point x="349.96875" y="114.71874999999999"/>
      <point x="267.328125" y="173.328125"/>
      <point x="267.328125" y="298.734375" type="curve" smooth="yes"/>
      <point x="267.328125" y="443.421875"/>
      <point x="365.609375" y="522.078125"/>
      <point x="640.046875" y="532.515625" type="curve" smooth="yes"/>
    </contour>
    <contour>
      <point x="579.734375" y="1569.171875" type="curve" smooth="yes"/>
      <point x="646.8125" y="1569.171875"/>
      <point x="698.21875" y="1523.21875"/>
      <point x="698.21875" y="1449.6875" type="curve" smooth="yes"/>
      <point x="698.21875" y="1376.15625"/>
      <point x="649.46875" y="1330.3125"/>
      <point x="579.734375" y="1330.3125" type="curve" smooth="yes"/>
      <point x="503.765625" y="1330.3125"/>
      <point x="460.03125" y="1376.15625"/>
      <point x="460.03125" y="1449.6875" type="curve" smooth="yes"/>
      <point x="460.03125" y="1523.21875"/>
      <point x="511.109375" y="1569.171875"/>
    </contour>
    <contour>
      <point x="579.734375" y="1663.59375" type="curve" smooth="yes"/>
      <point x="448.921875" y="1663.59375"/>
      <point x="357.59375" y="1582.71875"/>
      <point x="357.59375" y="1449.6875" type="curve" smooth="yes"/>
      <point x="357.59375" y="1314.328125"/>
      <point x="449.140625" y="1234.109375"/>
      <point x="579.734375" y="1234.109375" type="curve" smooth="yes"/>
      <point x="708.65625" y="1234.109375"/>
      <point x="804.328125" y="1314.546875"/>
      <point x="804.328125" y="1451.46875" type="curve" smooth="yes"/>
      <point x="804.328125" y="1582.28125"/>
      <point x="706.875" y="1663.59375"/>
    </contour>
    <contour>
      <point x="896.703125" y="1960.25" type="line"/>
      <point x="651.234375" y="1960.25" type="line"/>
      <point x="606.703125" y="1897.75"/>
      <point x="528.984375" y="1812.25"/>
      <point x="469.46875" y="1757.40625" type="curve"/>
      <point x="469.46875" y="1741.84375" type="line"/>
      <point x="589.0625" y="1741.84375" type="line"/>
      <point x="681.5" y="1793.109375"/>
      <point x="850.75" y="1895.78125"/>
      <point x="896.703125" y="1947.921875" type="curve"/>
    </contour>
  </outline>
</glyph>
<glyph name="uni021C" format="2">
  <advance width="1170.5625"/>
  <unicode hex="021C"/>
  <anchor x="575.484375" y="-243.953125" name="bottom"/>
  <anchor x="554.953125" y="1462.0" name="top"/>
  <outline>
    <contour>
      <point x="80.65625" y="-369.0" type="line"/>
      <point x="770.421875" y="-200.3125"/>
      <point x="1058.90625" y="-9.312500000000002"/>
      <point x="1058.90625" y="366.4375" type="curve" smooth="yes"/>
      <point x="1058.90625" y="583.296875"/>
      <point x="932.34375" y="696.28125"/>
      <point x="789.953125" y="763.484375" type="curve"/>
      <point x="933.46875" y="843.046875"/>
      <point x="1028.453125" y="950.9375"/>
      <point x="1028.453125" y="1114.0" type="curve" smooth="yes"/>
      <point x="1028.453125" y="1384.25"/>
      <point x="805.171875" y="1483.0"/>
      <point x="574.171875" y="1483.0" type="curve" smooth="yes"/>
      <point x="393.171875" y="1483.0"/>
      <point x="233.546875" y="1438.359375"/>
      <point x="80.84375" y="1330.78125" type="curve"/>
      <point x="162.609375" y="1214.96875" type="line"/>
      <point x="284.734375" y="1296.96875"/>
      <point x="409.953125" y="1342.046875"/>
      <point x="571.5" y="1342.046875" type="curve" smooth="yes"/>
      <point x="741.28125" y="1342.046875"/>
      <point x="853.109375" y="1259.359375"/>
      <point x="853.109375" y="1108.65625" type="curve" smooth="yes"/>
      <point x="853.109375" y="913.03125"/>
      <point x="684.0" y="839.25"/>
      <point x="300.171875" y="737.671875" type="curve"/>
      <point x="332.65625" y="604.953125" type="line"/>
      <point x="441.421875" y="632.0625"/>
      <point x="546.09375" y="659.953125"/>
      <point x="641.4375" y="694.953125" type="curve"/>
      <point x="789.6875" y="622.09375"/>
      <point x="881.0" y="534.265625"/>
      <point x="881.0" y="366.21875" type="curve" smooth="yes"/>
      <point x="881.0" y="117.84374999999999"/>
      <point x="694.65625" y="-48.453125000000014"/>
      <point x="80.65625" y="-206.34375" type="curve"/>
    </contour>
  </outline>
</glyph>
<glyph name="uni021D" format="2">
  <advance width="1009.0"/>
  <unicode hex="021D"/>
  <anchor x="491.453125" y="-354.0" name="bottom"/>
  <anchor x="469.890625" y="1096.140625" name="top"/>
  <outline>
    <contour>
      <point x="61.0" y="-492.21875" type="line"/>
      <point x="572.3125" y="-387.0"/>
      <point x="907.453125" y="-223.046875"/>
      <point x="907.453125" y="131.859375" type="curve" smooth="yes"/>
      <point x="907.453125" y="320.390625"/>
      <point x="806.71875" y="417.921875"/>
      <point x="684.40625" y="474.59375" type="curve"/>
      <point x="804.03125" y="547.609375"/>
      <point x="873.78125" y="646.375"/>
      <point x="873.78125" y="778.0" type="curve" smooth="yes"/>
      <point x="873.78125" y="1018.390625"/>
      <point x="696.640625" y="1116.46875"/>
      <point x="473.640625" y="1116.46875" type="curve" smooth="yes"/>
      <point x="341.296875" y="1116.46875"/>
      <point x="214.375" y="1089.265625"/>
      <point x="92.4375" y="1021.5625" type="curve"/>
      <point x="149.953125" y="899.96875" type="line"/>
      <point x="248.640625" y="952.09375"/>
      <point x="351.734375" y="981.75"/>
      <point x="471.859375" y="981.75" type="curve" smooth="yes"/>
      <point x="611.8125" y="981.75"/>
      <point x="703.0" y="911.3125"/>
      <point x="703.0" y="778.0" type="curve" smooth="yes"/>
      <point x="703.0" y="630.90625"/>
      <point x="606.6875" y="541.5625"/>
      <point x="250.84375" y="448.65625" type="curve"/>
      <point x="283.4375" y="322.390625" type="line"/>
      <point x="382.78125" y="347.390625"/>
      <point x="473.90625" y="374.28125"/>
      <point x="553.03125" y="405.953125" type="curve"/>
      <point x="667.5" y="349.3125"/>
      <point x="735.78125" y="274.03125"/>
      <point x="735.78125" y="131.640625" type="curve" smooth="yes"/>
      <point x="735.78125" y="-108.35937500000001"/>
      <point x="500.4375" y="-248.5"/>
      <point x="61.0" y="-342.03125" type="curve"/>
    </contour>
  </outline>
</glyph>
<glyph name="uni0234" format="2">
  <advance width="771.03125"/>
  <unicode hex="0234"/>
  <anchor x="386.515625" y="0.0" name="bottom"/>
  <anchor x="276.96875" y="1556.0" name="top"/>
  <outline>
    <contour>
      <point x="146.53125" y="-58.59375" type="line"/>
      <point x="168.640625" y="8.046875000000007"/>
      <point x="195.171875" y="73.328125"/>
      <point x="220.8125" y="120.328125" type="curve"/>
      <point x="266.28125" y="35.625"/>
      <point x="352.640625" y="-20.0"/>
      <point x="481.859375" y="-20.0" type="curve" smooth="yes"/>
      <point x="652.078125" y="-20.0"/>
      <point x="749.5" y="85.953125"/>
      <point x="749.5" y="227.421875" type="curve" smooth="yes"/>
      <point x="749.5" y="365.34375"/>
      <point x="660.375" y="460.9375"/>
      <point x="489.078125" y="460.9375" type="curve" smooth="yes"/>
      <point x="432.15625" y="460.9375"/>
      <point x="384.53125" y="449.328125"/>
      <point x="341.53125" y="430.140625" type="curve"/>
      <point x="341.53125" y="1556.0" type="line"/>
      <point x="175.3125" y="1556.0" type="line"/>
      <point x="175.3125" y="434.203125" type="line" smooth="yes"/>
      <point x="175.3125" y="389.203125"/>
      <point x="175.53125" y="341.328125"/>
      <point x="176.078125" y="302.328125" type="curve"/>
      <point x="116.96875" y="227.203125"/>
      <point x="64.859375" y="126.109375"/>
      <point x="18.046875000000007" y="-3.3906250000000036" type="curve"/>
    </contour>
    <contour>
      <point x="480.078125" y="109.37499999999999" type="curve" smooth="yes"/>
      <point x="385.453125" y="109.37499999999999"/>
      <point x="346.84375" y="177.328125"/>
      <point x="342.1875" y="277.53125" type="curve"/>
      <point x="383.625" y="312.375"/>
      <point x="427.90625" y="331.5625"/>
      <point x="475.390625" y="331.5625" type="curve" smooth="yes"/>
      <point x="550.78125" y="331.5625"/>
      <point x="597.3125" y="292.484375"/>
      <point x="597.3125" y="220.296875" type="curve" smooth="yes"/>
      <point x="597.3125" y="158.125"/>
      <point x="557.03125" y="109.37499999999999"/>
    </contour>
  </outline>
</glyph>
<glyph name="uni0235" format="2">
  <advance width="1519.21875"/>
  <unicode hex="0235"/>
  <anchor x="760.609375" y="0.0" name="bottom"/>
  <anchor x="760.609375" y="1096.140625" name="top"/>
  <outline>
    <contour>
      <point x="895.171875" y="-58.59375" type="line"/>
      <point x="918.171875" y="8.046875000000007"/>
      <point x="942.03125" y="70.65625"/>
      <point x="968.5625" y="118.546875" type="curve"/>
      <point x="1017.484375" y="33.84375"/>
      <point x="1103.953125" y="-20.0"/>
      <point x="1229.609375" y="-20.0" type="curve" smooth="yes"/>
      <point x="1398.9375" y="-20.0"/>
      <point x="1496.25" y="71.703125"/>
      <point x="1496.25" y="220.296875" type="curve" smooth="yes"/>
      <point x="1496.25" y="353.765625"/>
      <point x="1406.6875" y="460.9375"/>
      <point x="1235.828125" y="460.9375" type="curve" smooth="yes"/>
      <point x="1179.90625" y="460.9375"/>
      <point x="1132.171875" y="449.328125"/>
      <point x="1089.171875" y="430.140625" type="curve"/>
      <point x="1089.171875" y="714.34375" type="line" smooth="yes"/>
      <point x="1089.171875" y="994.8125"/>
      <point x="954.171875" y="1116.25"/>
      <point x="694.453125" y="1116.25" type="curve" smooth="yes"/>
      <point x="545.5" y="1116.25"/>
      <point x="412.578125" y="1053.8125"/>
      <point x="343.3125" y="937.71875" type="curve"/>
      <point x="333.96875" y="937.71875" type="line"/>
      <point x="308.9375" y="1096.140625" type="line"/>
      <point x="175.09375" y="1096.140625" type="line"/>
      <point x="175.09375" y="0.0" type="line"/>
      <point x="341.3125" y="0.0" type="line"/>
      <point x="341.3125" y="574.359375" type="line" smooth="yes"/>
      <point x="341.3125" y="834.625"/>
      <point x="428.171875" y="976.1875"/>
      <point x="671.296875" y="976.1875" type="curve" smooth="yes"/>
      <point x="842.578125" y="976.1875"/>
      <point x="924.84375" y="886.328125"/>
      <point x="924.84375" y="702.546875" type="curve" smooth="yes"/>
      <point x="924.84375" y="416.390625" type="line" smooth="yes"/>
      <point x="924.84375" y="378.515625"/>
      <point x="925.0625" y="339.546875"/>
      <point x="925.5" y="302.328125" type="curve"/>
      <point x="865.609375" y="227.203125"/>
      <point x="814.390625" y="126.109375"/>
      <point x="767.578125" y="-3.3906250000000036" type="curve"/>
    </contour>
    <contour>
      <point x="1227.828125" y="109.37499999999999" type="curve" smooth="yes"/>
      <point x="1133.09375" y="109.37499999999999"/>
      <point x="1094.59375" y="177.328125"/>
      <point x="1089.9375" y="277.53125" type="curve"/>
      <point x="1131.375" y="312.375"/>
      <point x="1175.65625" y="331.5625"/>
      <point x="1223.140625" y="331.5625" type="curve" smooth="yes"/>
      <point x="1297.640625" y="331.5625"/>
      <point x="1344.171875" y="292.484375"/>
      <point x="1344.171875" y="220.296875" type="curve" smooth="yes"/>
      <point x="1344.171875" y="158.125"/>
      <point x="1310.125" y="109.37499999999999"/>
    </contour>
  </outline>
</glyph>
<glyph name="uni0238" format="2">
  <advance width="1988.703125"/>
  <unicode hex="0238"/>
  <anchor x="993.90625" y="0.0" name="bottom"/>
  <anchor x="993.90625" y="1556.0" name="top"/>
  <outline>
    <contour>
      <point x="595.046875" y="-20.0" type="curve" smooth="yes"/>
      <point x="776.296875" y="-20.0"/>
      <point x="917.296875" y="62.828125"/>
      <point x="992.125" y="244.421875" type="curve"/>
      <point x="1065.171875" y="69.0625"/>
      <point x="1200.9375" y="-20.0"/>
      <point x="1390.09375" y="-20.0" type="curve" smooth="yes"/>
      <point x="1697.0625" y="-20.0"/>
      <point x="1874.828125" y="177.796875"/>
      <point x="1874.828125" y="547.6875" type="curve" smooth="yes"/>
      <point x="1874.828125" y="923.265625"/>
      <point x="1697.5625" y="1114.6875"/>
      <point x="1421.5" y="1114.6875" type="curve" smooth="yes"/>
      <point x="1244.796875" y="1114.6875"/>
      <point x="1136.9375" y="1036.890625"/>
      <point x="1077.015625" y="938.765625" type="curve"/>
      <point x="1067.671875" y="938.765625" type="line"/>
      <point x="1071.453125" y="986.0625"/>
      <point x="1077.015625" y="1076.796875"/>
      <point x="1077.015625" y="1166.734375" type="curve" smooth="yes"/>
      <point x="1077.015625" y="1556.0" type="line"/>
      <point x="910.796875" y="1556.0" type="line"/>
      <point x="910.796875" y="1160.5" type="line" smooth="yes"/>
      <point x="910.796875" y="1069.671875"/>
      <point x="918.25" y="980.71875"/>
      <point x="922.921875" y="942.328125" type="curve"/>
      <point x="910.796875" y="942.328125" type="line"/>
      <point x="846.421875" y="1039.5625"/>
      <point x="741.34375" y="1116.46875"/>
      <point x="566.421875" y="1116.46875" type="curve" smooth="yes"/>
      <point x="291.140625" y="1116.46875"/>
      <point x="113.875" y="921.484375"/>
      <point x="113.875" y="545.90625" type="curve" smooth="yes"/>
      <point x="113.875" y="176.015625"/>
      <point x="286.296875" y="-20.0"/>
    </contour>
    <contour>
      <point x="600.390625" y="118.28124999999999" type="curve" smooth="yes"/>
      <point x="385.375" y="118.28124999999999"/>
      <point x="285.546875" y="273.125"/>
      <point x="285.546875" y="542.34375" type="curve" smooth="yes"/>
      <point x="285.546875" y="810.546875"/>
      <point x="385.59375" y="978.1875"/>
      <point x="588.6875" y="978.1875" type="curve" smooth="yes"/>
      <point x="834.21875" y="978.1875"/>
      <point x="912.578125" y="831.703125"/>
      <point x="912.578125" y="553.25" type="curve" smooth="yes"/>
      <point x="912.578125" y="285.15625"/>
      <point x="806.828125" y="118.28124999999999"/>
    </contour>
    <contour>
      <point x="1391.875" y="118.28124999999999" type="curve" smooth="yes"/>
      <point x="1177.296875" y="118.28124999999999"/>
      <point x="1077.015625" y="270.25"/>
      <point x="1077.015625" y="553.25" type="curve" smooth="yes"/>
      <point x="1077.015625" y="839.71875"/>
      <point x="1158.15625" y="976.40625"/>
      <point x="1394.78125" y="976.40625" type="curve" smooth="yes"/>
      <point x="1602.21875" y="976.40625"/>
      <point x="1703.15625" y="831.921875"/>
      <point x="1703.15625" y="549.46875" type="curve" smooth="yes"/>
      <point x="1703.15625" y="271.34375"/>
      <point x="1604.21875" y="118.28124999999999"/>
    </contour>
  </outline>
</glyph>
<glyph name="uni023A" format="2">
  <advance width="1295.109375"/>
  <unicode hex="023A"/>
  <anchor x="656.125" y="0.0" name="bottom"/>
  <anchor x="644.546875" y="1462.0" name="top"/>
  <outline>
    <contour>
      <point x="1018.171875" y="1556.0" type="line"/>
      <point x="890.359375" y="1556.0" type="line"/>
      <point x="296.359375" y="-154.0" type="line"/>
      <point x="424.171875" y="-154.0" type="line"/>
    </contour>
    <component base="A"/>
  </outline>
</glyph>
<glyph name="uni023C" format="2">
  <advance width="981.25"/>
  <unicode hex="023C"/>
  <anchor x="578.390625" y="-412.546875" name="bottom"/>
  <anchor x="586.921875" y="1539.703125" name="top"/>
  <outline>
    <contour>
      <point x="974.765625" y="1539.703125" type="line"/>
      <point x="846.84375" y="1539.703125" type="line"/>
      <point x="152.203125" y="-412.546875" type="line"/>
      <point x="280.125" y="-412.546875" type="line"/>
    </contour>
    <component base="c"/>
  </outline>
</glyph>
<glyph name="uni0242" format="2">
  <advance width="882.9375"/>
  <unicode hex="0242"/>
  <anchor x="441.078125" y="0.0" name="bottom"/>
  <anchor x="441.078125" y="1096.140625" name="top"/>
  <outline>
    <contour>
      <point x="388.375" y="1115.8125" type="curve" smooth="yes"/>
      <point x="243.953125" y="1115.8125"/>
      <point x="119.90625" y="1071.46875"/>
      <point x="24.234375" y="1004.875" type="curve"/>
      <point x="86.203125" y="878.609375" type="line"/>
      <point x="167.765625" y="938.09375"/>
      <point x="281.34375" y="977.53125"/>
      <point x="381.03125" y="977.53125" type="curve" smooth="yes"/>
      <point x="557.515625" y="977.53125"/>
      <point x="643.09375" y="887.484375"/>
      <point x="643.09375" y="719.90625" type="curve" smooth="yes"/>
      <point x="643.09375" y="518.8125"/>
      <point x="497.75" y="368.484375"/>
      <point x="260.671875" y="292.703125" type="curve"/>
      <point x="260.671875" y="0.0" type="line"/>
      <point x="426.890625" y="0.0" type="line"/>
      <point x="426.890625" y="205.484375" type="line"/>
      <point x="699.96875" y="331.484375"/>
      <point x="812.984375" y="530.421875"/>
      <point x="812.984375" y="725.6875" type="curve" smooth="yes"/>
      <point x="812.984375" y="968.484375"/>
      <point x="665.65625" y="1115.8125"/>
    </contour>
  </outline>
</glyph>
<glyph name="uni024B" format="2">
  <advance width="1252.78125"/>
  <unicode hex="024B"/>
  <anchor x="627.390625" y="-492.65625" name="bottom"/>
  <anchor x="627.390625" y="1096.140625" name="top"/>
  <outline>
    <contour>
      <point x="567.078125" y="1116.25" type="curve" smooth="yes"/>
      <point x="292.296875" y="1116.25"/>
      <point x="113.21875" y="915.6875"/>
      <point x="113.21875" y="545.90625" type="curve" smooth="yes"/>
      <point x="113.21875" y="170.21875"/>
      <point x="289.828125" y="-20.328125"/>
      <point x="558.125" y="-20.328125" type="curve" smooth="yes"/>
      <point x="735.734375" y="-20.328125"/>
      <point x="847.328125" y="57.26562500000001"/>
      <point x="908.359375" y="158.265625" type="curve"/>
      <point x="919.484375" y="158.265625" type="line"/>
      <point x="912.140625" y="108.96875000000001"/>
      <point x="910.140625" y="31.921875000000007"/>
      <point x="910.140625" y="-19.828124999999996" type="curve" smooth="yes"/>
      <point x="910.140625" y="-161.59375" type="line" smooth="yes"/>
      <point x="910.140625" y="-417.5625"/>
      <point x="1016.875" y="-492.65625"/>
      <point x="1147.1875" y="-492.65625" type="curve" smooth="yes"/>
      <point x="1212.0" y="-492.65625"/>
      <point x="1262.359375" y="-478.3125"/>
      <point x="1286.90625" y="-460.96875" type="curve"/>
      <point x="1286.90625" y="-333.375" type="line"/>
      <point x="1267.265625" y="-343.59375"/>
      <point x="1229.140625" y="-355.15625"/>
      <point x="1184.140625" y="-355.15625" type="curve" smooth="yes"/>
      <point x="1111.546875" y="-355.15625"/>
      <point x="1076.359375" y="-317.09375"/>
      <point x="1076.359375" y="-157.390625" type="curve" smooth="yes"/>
      <point x="1076.359375" y="1096.140625" type="line"/>
      <point x="944.078125" y="1096.140625" type="line"/>
      <point x="919.046875" y="939.25" type="line"/>
      <point x="911.484375" y="939.25" type="line"/>
      <point x="848.453125" y="1037.078125"/>
      <point x="741.484375" y="1116.25"/>
    </contour>
    <contour>
      <point x="589.34375" y="977.96875" type="curve" smooth="yes"/>
      <point x="827.4375" y="977.96875"/>
      <point x="911.921875" y="829.34375"/>
      <point x="911.921875" y="546.96875" type="curve" smooth="yes"/>
      <point x="911.921875" y="511.828125" type="line" smooth="yes"/>
      <point x="908.359375" y="248.828125"/>
      <point x="819.875" y="118.06249999999999"/>
      <point x="589.296875" y="118.06249999999999" type="curve" smooth="yes"/>
      <point x="382.5" y="118.06249999999999"/>
      <point x="284.890625" y="274.03125"/>
      <point x="284.890625" y="542.34375" type="curve" smooth="yes"/>
      <point x="284.890625" y="809.671875"/>
      <point x="384.25" y="977.96875"/>
    </contour>
  </outline>
</glyph>
<glyph name="uni024D" format="2">
  <advance width="837.46875"/>
  <unicode hex="024D"/>
  <anchor x="253.078125" y="0.0" name="bottom"/>
  <anchor x="480.296875" y="1096.140625" name="top"/>
  <outline>
    <contour>
      <point x="603.578125" y="646.328125" type="line"/>
      <point x="21.203125" y="646.328125" type="line"/>
      <point x="21.203125" y="511.609375" type="line"/>
      <point x="603.578125" y="511.609375" type="line"/>
    </contour>
    <component base="r"/>
  </outline>
</glyph>
<glyph name="uni024F" format="2">
  <advance width="1025.734375"/>
  <unicode hex="024F"/>
  <anchor x="183.046875" y="-492.65625" name="bottom"/>
  <anchor x="512.8125" y="1096.140625" name="top"/>
  <outline>
    <contour>
      <point x="1007.375" y="730.734375" type="line"/>
      <point x="17.812499999999996" y="730.734375" type="line"/>
      <point x="17.812499999999996" y="596.015625" type="line"/>
      <point x="1007.375" y="596.015625" type="line"/>
    </contour>
    <component base="y"/>
  </outline>
</glyph>
<glyph name="uni0253" format="2">
  <advance width="1252.78125"/>
  <unicode hex="0253"/>
  <anchor x="627.390625" y="0.0" name="bottom"/>
  <anchor x="627.390625" y="1567.0" name="top"/>
  <outline>
    <contour>
      <point x="426.921875" y="1567.0" type="curve" smooth="yes"/>
      <point x="257.171875" y="1567.0"/>
      <point x="174.875" y="1466.25"/>
      <point x="174.875" y="1277.8125" type="curve" smooth="yes"/>
      <point x="174.875" y="0.0" type="line"/>
      <point x="294.6875" y="0.0" type="line"/>
      <point x="328.625" y="147.09375" type="line"/>
      <point x="341.53125" y="147.09375" type="line"/>
      <point x="402.109375" y="53.953125"/>
      <point x="509.75" y="-20.0"/>
      <point x="684.15625" y="-20.0" type="curve" smooth="yes"/>
      <point x="961.609375" y="-20.0"/>
      <point x="1138.90625" y="178.671875"/>
      <point x="1138.90625" y="548.5625" type="curve" smooth="yes"/>
      <point x="1138.90625" y="924.140625"/>
      <point x="962.296875" y="1114.6875"/>
      <point x="687.765625" y="1114.6875" type="curve" smooth="yes"/>
      <point x="511.9375" y="1114.6875"/>
      <point x="401.234375" y="1037.984375"/>
      <point x="341.09375" y="938.765625" type="curve"/>
      <point x="331.640625" y="938.765625" type="line"/>
      <point x="335.421875" y="986.28125"/>
      <point x="341.09375" y="1074.0625"/>
      <point x="341.09375" y="1164.109375" type="curve" smooth="yes"/>
      <point x="341.09375" y="1287.734375" type="line" smooth="yes"/>
      <point x="341.09375" y="1384.125"/>
      <point x="380.6875" y="1422.484375"/>
      <point x="452.75" y="1422.484375" type="curve" smooth="yes"/>
      <point x="497.53125" y="1422.484375"/>
      <point x="539.4375" y="1411.25"/>
      <point x="558.75" y="1403.25" type="curve"/>
      <point x="558.75" y="1541.75" type="line"/>
      <point x="529.203125" y="1553.203125"/>
      <point x="476.609375" y="1567.0"/>
    </contour>
    <contour>
      <point x="661.046875" y="976.40625" type="curve" smooth="yes"/>
      <point x="866.953125" y="976.40625"/>
      <point x="967.234375" y="832.90625"/>
      <point x="967.234375" y="550.34375" type="curve" smooth="yes"/>
      <point x="967.234375" y="272.21875"/>
      <point x="865.09375" y="118.28124999999999"/>
      <point x="661.0" y="118.28124999999999" type="curve" smooth="yes"/>
      <point x="418.125" y="118.28124999999999"/>
      <point x="341.09375" y="267.359375"/>
      <point x="341.09375" y="553.25" type="curve" smooth="yes"/>
      <point x="341.09375" y="838.40625"/>
      <point x="422.890625" y="976.40625"/>
    </contour>
  </outline>
</glyph>
<glyph name="uni0255" format="2">
  <advance width="1078.796875"/>
  <unicode hex="0255"/>
  <anchor x="540.734375" y="0.0" name="bottom"/>
  <anchor x="540.734375" y="1096.140625" name="top"/>
  <outline>
    <contour>
      <point x="642.3125" y="1116.25" type="curve" smooth="yes"/>
      <point x="343.375" y="1116.25"/>
      <point x="126.34375" y="938.8125"/>
      <point x="126.34375" y="542.125" type="curve" smooth="yes"/>
      <point x="126.34375" y="397.6875"/>
      <point x="154.21875" y="281.828125"/>
      <point x="207.1875" y="194.515625" type="curve"/>
      <point x="166.40625" y="124.734375"/>
      <point x="130.171875" y="44.95312499999999"/>
      <point x="102.265625" y="-40.171875" type="curve"/>
      <point x="230.75" y="-97.59375" type="line"/>
      <point x="252.421875" y="-30.265624999999996"/>
      <point x="278.875" y="30.500000000000004"/>
      <point x="305.640625" y="82.046875" type="curve"/>
      <point x="391.203125" y="12.296875000000004"/>
      <point x="504.640625" y="-20.0"/>
      <point x="638.484375" y="-20.0" type="curve" smooth="yes"/>
      <point x="814.53125" y="-20.0"/>
      <point x="993.453125" y="64.421875"/>
      <point x="993.453125" y="262.890625" type="curve" smooth="yes"/>
      <point x="993.453125" y="408.15625"/>
      <point x="878.65625" y="508.1875"/>
      <point x="685.59375" y="508.1875" type="curve" smooth="yes"/>
      <point x="550.90625" y="508.1875"/>
      <point x="425.9375" y="447.796875"/>
      <point x="325.6875" y="345.046875" type="curve"/>
      <point x="306.09375" y="402.765625"/>
      <point x="298.015625" y="467.890625"/>
      <point x="298.015625" y="543.90625" type="curve" smooth="yes"/>
      <point x="298.015625" y="821.078125"/>
      <point x="411.4375" y="970.84375"/>
      <point x="638.75" y="970.84375" type="curve" smooth="yes"/>
      <point x="714.96875" y="970.84375"/>
      <point x="809.4375" y="945.375"/>
      <point x="876.296875" y="919.0625" type="curve"/>
      <point x="927.265625" y="1058.34375" type="line"/>
      <point x="860.171875" y="1091.234375"/>
      <point x="752.0" y="1116.25"/>
    </contour>
    <contour>
      <point x="674.46875" y="369.796875" type="curve" smooth="yes"/>
      <point x="791.875" y="369.796875"/>
      <point x="836.03125" y="314.8125"/>
      <point x="836.03125" y="258.890625" type="curve" smooth="yes"/>
      <point x="836.03125" y="174.234375"/>
      <point x="754.921875" y="118.28124999999999"/>
      <point x="636.703125" y="118.28124999999999" type="curve" smooth="yes"/>
      <point x="530.0" y="118.28124999999999"/>
      <point x="448.390625" y="153.25"/>
      <point x="393.421875" y="216.546875" type="curve"/>
      <point x="478.984375" y="324.640625"/>
      <point x="577.25" y="369.796875"/>
    </contour>
  </outline>
</glyph>
<glyph name="schwahook" format="2">
  <advance width="1596.59375"/>
  <unicode hex="025A"/>
  <anchor x="534.703125" y="0.0" name="bottom"/>
  <anchor x="534.703125" y="1096.140625" name="top"/>
  <outline>
    <contour>
      <point x="551.859375" y="-20.0" type="curve" smooth="yes"/>
      <point x="886.703125" y="-20.0"/>
      <point x="1033.328125" y="223.953125"/>
      <point x="1033.328125" y="601.09375" type="curve"/>
      <point x="1111.09375" y="619.828125" type="line"/>
      <point x="1165.90625" y="431.65625"/>
      <point x="1250.984375" y="358.4375"/>
      <point x="1368.21875" y="358.4375" type="curve" smooth="yes"/>
      <point x="1450.390625" y="358.4375"/>
      <point x="1532.34375" y="389.46875"/>
      <point x="1596.59375" y="431.078125" type="curve"/>
      <point x="1560.6875" y="557.109375" type="line"/>
      <point x="1511.4375" y="527.296875"/>
      <point x="1453.953125" y="505.5"/>
      <point x="1398.734375" y="505.5" type="curve" smooth="yes"/>
      <point x="1337.25" y="505.5"/>
      <point x="1298.03125" y="546.46875"/>
      <point x="1262.59375" y="670.203125" type="curve" smooth="yes"/>
      <point x="1228.6875" y="789.8125" type="line"/>
      <point x="1015.078125" y="732.578125" type="line"/>
      <point x="956.25" y="979.890625"/>
      <point x="772.734375" y="1116.25"/>
      <point x="512.25" y="1116.25" type="curve" smooth="yes"/>
      <point x="365.875" y="1116.25"/>
      <point x="266.0" y="1093.484375"/>
      <point x="155.3125" y="1045.796875" type="curve"/>
      <point x="155.3125" y="899.28125" type="line"/>
      <point x="267.5625" y="947.1875"/>
      <point x="368.09375" y="974.40625"/>
      <point x="504.46875" y="974.40625" type="curve" smooth="yes"/>
      <point x="700.71875" y="974.40625"/>
      <point x="817.0625" y="866.46875"/>
      <point x="852.3125" y="687.515625" type="curve"/>
      <point x="105.859375" y="486.96875" type="line"/>
      <point x="105.859375" y="170.46875"/>
      <point x="268.71875" y="-20.0"/>
    </contour>
    <contour>
      <point x="554.078125" y="116.71874999999999" type="curve" smooth="yes"/>
      <point x="375.796875" y="116.71874999999999"/>
      <point x="294.890625" y="234.796875"/>
      <point x="281.984375" y="398.203125" type="curve"/>
      <point x="863.4375" y="554.359375" type="line"/>
      <point x="863.4375" y="344.578125"/>
      <point x="815.03125" y="116.71874999999999"/>
    </contour>
  </outline>
</glyph>
<glyph name="uni025F" format="2">
  <advance width="516.625"/>
  <unicode hex="025F"/>
  <anchor x="258.421875" y="-492.0" name="bottom"/>
  <anchor x="258.421875" y="1096.140625" name="top"/>
  <anchor x="412.390625" y="1095.921875" name="topright"/>
  <outline>
    <contour>
      <point x="42.59375" y="-492.0" type="curve" smooth="yes"/>
      <point x="246.765625" y="-492.0"/>
      <point x="341.3125" y="-373.703125"/>
      <point x="341.3125" y="-172.96875" type="curve" smooth="yes"/>
      <point x="341.3125" y="508.65625" type="line"/>
      <point x="497.9375" y="508.65625" type="line"/>
      <point x="497.9375" y="643.375" type="line"/>
      <point x="341.3125" y="643.375" type="line"/>
      <point x="341.3125" y="1096.140625" type="line"/>
      <point x="175.09375" y="1096.140625" type="line"/>
      <point x="175.09375" y="643.375" type="line"/>
      <point x="19.34375" y="643.375" type="line"/>
      <point x="19.34375" y="508.65625" type="line"/>
      <point x="175.09375" y="508.65625" type="line"/>
      <point x="175.09375" y="-177.4375" type="line" smooth="yes"/>
      <point x="175.09375" y="-309.78125"/>
      <point x="113.1875" y="-352.71875"/>
      <point x="23.0" y="-352.71875" type="curve" smooth="yes"/>
      <point x="-29.578125" y="-352.71875"/>
      <point x="-70.796875" y="-345.15625"/>
      <point x="-111.796875" y="-332.5" type="curve"/>
      <point x="-111.796875" y="-467.4375" type="line"/>
      <point x="-75.34375" y="-481.21875"/>
      <point x="-25.4375" y="-492.0"/>
    </contour>
  </outline>
</glyph>
<glyph name="uni0266" format="2">
  <advance width="1255.9375"/>
  <unicode hex="0266"/>
  <anchor x="628.078125" y="0.0" name="bottom"/>
  <anchor x="628.078125" y="1566.78125" name="top"/>
  <outline>
    <contour>
      <point x="175.09375" y="0.0" type="line"/>
      <point x="341.3125" y="0.0" type="line"/>
      <point x="341.3125" y="572.578125" type="line" smooth="yes"/>
      <point x="341.3125" y="832.84375"/>
      <point x="426.390625" y="976.1875"/>
      <point x="671.296875" y="976.1875" type="curve" smooth="yes"/>
      <point x="842.578125" y="976.1875"/>
      <point x="924.84375" y="886.328125"/>
      <point x="924.84375" y="702.546875" type="curve" smooth="yes"/>
      <point x="924.84375" y="0.0" type="line"/>
      <point x="1089.171875" y="0.0" type="line"/>
      <point x="1089.171875" y="714.34375" type="line" smooth="yes"/>
      <point x="1089.171875" y="993.03125"/>
      <point x="954.171875" y="1114.46875"/>
      <point x="690.890625" y="1114.46875" type="curve" smooth="yes"/>
      <point x="540.15625" y="1114.46875"/>
      <point x="410.140625" y="1050.6875"/>
      <point x="343.09375" y="935.9375" type="curve"/>
      <point x="331.859375" y="935.9375" type="line"/>
      <point x="337.53125" y="980.6875"/>
      <point x="341.3125" y="1036.828125"/>
      <point x="341.3125" y="1090.8125" type="curve" smooth="yes"/>
      <point x="341.3125" y="1294.078125" type="line" smooth="yes"/>
      <point x="341.3125" y="1384.5625"/>
      <point x="378.28125" y="1422.15625"/>
      <point x="445.3125" y="1422.15625" type="curve" smooth="yes"/>
      <point x="489.875" y="1422.15625"/>
      <point x="532.875" y="1411.03125"/>
      <point x="553.390625" y="1401.9375" type="curve"/>
      <point x="553.390625" y="1540.4375" type="line"/>
      <point x="524.0625" y="1552.4375"/>
      <point x="472.375" y="1566.78125"/>
      <point x="421.265625" y="1566.78125" type="curve" smooth="yes"/>
      <point x="258.953125" y="1566.78125"/>
      <point x="175.09375" y="1469.859375"/>
      <point x="175.09375" y="1284.265625" type="curve" smooth="yes"/>
    </contour>
  </outline>
</glyph>
<glyph name="uni0267" format="2">
  <advance width="1259.4375"/>
  <unicode hex="0267"/>
  <anchor x="629.828125" y="-492.0" name="bottom"/>
  <anchor x="629.828125" y="1566.78125" name="top"/>
  <outline>
    <contour>
      <point x="421.265625" y="1566.78125" type="curve" smooth="yes"/>
      <point x="258.953125" y="1566.78125"/>
      <point x="175.09375" y="1469.859375"/>
      <point x="175.09375" y="1284.265625" type="curve" smooth="yes"/>
      <point x="175.09375" y="0.0" type="line"/>
      <point x="341.3125" y="0.0" type="line"/>
      <point x="341.3125" y="572.578125" type="line" smooth="yes"/>
      <point x="341.3125" y="832.84375"/>
      <point x="426.390625" y="976.1875"/>
      <point x="671.296875" y="976.1875" type="curve" smooth="yes"/>
      <point x="842.578125" y="976.1875"/>
      <point x="924.84375" y="886.328125"/>
      <point x="924.84375" y="702.546875" type="curve" smooth="yes"/>
      <point x="924.84375" y="-219.296875" type="line" smooth="yes"/>
      <point x="924.84375" y="-309.78125"/>
      <point x="887.875" y="-347.375"/>
      <point x="820.734375" y="-347.375" type="curve" smooth="yes"/>
      <point x="776.171875" y="-347.375"/>
      <point x="733.171875" y="-336.25"/>
      <point x="712.765625" y="-326.265625" type="curve"/>
      <point x="712.765625" y="-465.65625" type="line"/>
      <point x="742.09375" y="-477.65625"/>
      <point x="793.78125" y="-492.0"/>
      <point x="844.78125" y="-492.0" type="curve" smooth="yes"/>
      <point x="1007.203125" y="-492.0"/>
      <point x="1089.171875" y="-395.078125"/>
      <point x="1089.171875" y="-209.484375" type="curve" smooth="yes"/>
      <point x="1089.171875" y="714.34375" type="line" smooth="yes"/>
      <point x="1089.171875" y="993.03125"/>
      <point x="954.171875" y="1114.46875"/>
      <point x="690.890625" y="1114.46875" type="curve" smooth="yes"/>
      <point x="540.15625" y="1114.46875"/>
      <point x="410.140625" y="1050.6875"/>
      <point x="343.09375" y="935.9375" type="curve"/>
      <point x="331.859375" y="935.9375" type="line"/>
      <point x="337.53125" y="980.6875"/>
      <point x="341.3125" y="1036.828125"/>
      <point x="341.3125" y="1090.8125" type="curve" smooth="yes"/>
      <point x="341.3125" y="1294.078125" type="line" smooth="yes"/>
      <point x="341.3125" y="1384.5625"/>
      <point x="378.28125" y="1422.15625"/>
      <point x="445.3125" y="1422.15625" type="curve" smooth="yes"/>
      <point x="489.875" y="1422.15625"/>
      <point x="532.875" y="1411.03125"/>
      <point x="553.390625" y="1401.9375" type="curve"/>
      <point x="553.390625" y="1540.4375" type="line"/>
      <point x="524.0625" y="1552.4375"/>
      <point x="472.375" y="1566.78125"/>
    </contour>
  </outline>
</glyph>
<glyph name="uni026C" format="2">
  <advance width="696.546875"/>
  <unicode hex="026C"/>
  <anchor x="347.9375" y="0.0" name="bottom"/>
  <anchor x="347.9375" y="1556.0" name="top"/>
  <outline>
    <contour>
      <point x="300.59375" y="0.0" type="line"/>
      <point x="466.703125" y="0.0" type="line"/>
      <point x="466.703125" y="612.703125" type="line"/>
      <point x="675.65625" y="612.703125" type="line"/>
      <point x="675.65625" y="750.09375" type="line"/>
      <point x="466.703125" y="750.09375" type="line"/>
      <point x="466.703125" y="1556.0" type="line"/>
      <point x="300.59375" y="1556.0" type="line"/>
      <point x="300.59375" y="984.671875" type="line"/>
      <point x="273.375" y="1012.84375"/>
      <point x="232.390625" y="1027.03125"/>
      <point x="191.78125" y="1027.03125" type="curve" smooth="yes"/>
      <point x="36.78125" y="1027.03125"/>
      <point x="-20.984375" y="926.171875"/>
      <point x="-20.984375" y="821.46875" type="curve" smooth="yes"/>
      <point x="-20.984375" y="698.21875"/>
      <point x="49.0" y="612.703125"/>
      <point x="210.765625" y="612.703125" type="curve" smooth="yes"/>
      <point x="300.59375" y="612.703125" type="line"/>
    </contour>
    <contour>
      <point x="224.109375" y="750.09375" type="line" smooth="yes"/>
      <point x="170.40625" y="750.09375"/>
      <point x="130.09375" y="769.953125"/>
      <point x="130.09375" y="821.6875" type="curve" smooth="yes"/>
      <point x="130.09375" y="857.09375"/>
      <point x="150.953125" y="890.75"/>
      <point x="206.25" y="890.75" type="curve" smooth="yes"/>
      <point x="278.515625" y="890.75"/>
      <point x="300.046875" y="838.390625"/>
      <point x="300.59375" y="771.328125" type="curve" smooth="yes"/>
      <point x="300.59375" y="750.09375" type="line"/>
    </contour>
  </outline>
</glyph>
<glyph name="uni026D" format="2">
  <advance width="514.84375"/>
  <unicode hex="026D"/>
  <anchor x="258.421875" y="-492.0" name="bottom"/>
  <anchor x="258.421875" y="1556.0" name="top"/>
  <outline>
    <contour>
      <point x="477.890625" y="-492.0" type="curve" smooth="yes"/>
      <point x="547.15625" y="-492.0"/>
      <point x="598.1875" y="-477.65625"/>
      <point x="635.328125" y="-460.96875" type="curve"/>
      <point x="635.328125" y="-333.15625" type="line"/>
      <point x="601.53125" y="-344.71875"/>
      <point x="546.71875" y="-354.5"/>
      <point x="500.59375" y="-354.5" type="curve" smooth="yes"/>
      <point x="388.5" y="-354.5"/>
      <point x="339.75" y="-290.375"/>
      <point x="339.75" y="-154.4375" type="curve" smooth="yes"/>
      <point x="339.75" y="1556.0" type="line"/>
      <point x="175.3125" y="1556.0" type="line"/>
      <point x="175.3125" y="-159.078125" type="line" smooth="yes"/>
      <point x="175.3125" y="-416.90625"/>
      <point x="300.734375" y="-492.0"/>
    </contour>
  </outline>
</glyph>
<glyph name="uni0270" format="2">
  <advance width="1896.40625"/>
  <unicode hex="0270"/>
  <anchor x="948.59375" y="-492.0" name="bottom"/>
  <anchor x="948.59375" y="1096.140625" name="top"/>
  <outline>
    <contour>
      <point x="1555.09375" y="-492.0" type="line"/>
      <point x="1721.3125" y="-492.0" type="line"/>
      <point x="1721.3125" y="1096.140625" type="line"/>
      <point x="1555.09375" y="1096.140625" type="line"/>
      <point x="1555.09375" y="515.75" type="line" smooth="yes"/>
      <point x="1555.09375" y="257.671875"/>
      <point x="1473.578125" y="120.06249999999999"/>
      <point x="1255.859375" y="120.06249999999999" type="curve" smooth="yes"/>
      <point x="1102.40625" y="120.06249999999999"/>
      <point x="1025.484375" y="208.71875"/>
      <point x="1025.484375" y="385.859375" type="curve" smooth="yes"/>
      <point x="1025.484375" y="1096.140625" type="line"/>
      <point x="861.15625" y="1096.140625" type="line"/>
      <point x="861.15625" y="483.6875" type="line" smooth="yes"/>
      <point x="861.15625" y="245.203125"/>
      <point x="770.375" y="120.06249999999999"/>
      <point x="558.25" y="120.06249999999999" type="curve" smooth="yes"/>
      <point x="407.46875" y="120.06249999999999"/>
      <point x="330.546875" y="208.71875"/>
      <point x="330.546875" y="385.859375" type="curve" smooth="yes"/>
      <point x="330.546875" y="1096.140625" type="line"/>
      <point x="166.21875" y="1096.140625" type="line"/>
      <point x="166.21875" y="378.515625" type="line" smooth="yes"/>
      <point x="166.21875" y="99.34375"/>
      <point x="290.53125" y="-20.0"/>
      <point x="531.53125" y="-20.0" type="curve" smooth="yes"/>
      <point x="678.90625" y="-20.0"/>
      <point x="813.03125" y="41.1875"/>
      <point x="884.734375" y="168.046875" type="curve"/>
      <point x="894.078125" y="168.046875" type="line"/>
      <point x="946.203125" y="40.75"/>
      <point x="1061.203125" y="-20.0"/>
      <point x="1226.46875" y="-20.0" type="curve" smooth="yes"/>
      <point x="1366.0" y="-20.0"/>
      <point x="1487.609375" y="41.01562500000001"/>
      <point x="1552.875" y="154.375" type="curve"/>
      <point x="1565.78125" y="154.375" type="line"/>
      <point x="1562.21875" y="116.96875"/>
      <point x="1555.09375" y="34.14062500000001"/>
      <point x="1555.09375" y="-8.718749999999996" type="curve"/>
    </contour>
  </outline>
</glyph>
<glyph name="uni0273" format="2">
  <advance width="1255.9375"/>
  <unicode hex="0273"/>
  <anchor x="628.078125" y="-491.234375" name="bottom"/>
  <anchor x="628.078125" y="1096.140625" name="top"/>
  <anchor x="1149.03125" y="1096.140625" name="topright"/>
  <outline>
    <contour>
      <point x="1089.171875" y="-151.265625" type="curve" smooth="yes"/>
      <point x="1089.171875" y="714.34375" type="line" smooth="yes"/>
      <point x="1089.171875" y="994.8125"/>
      <point x="954.171875" y="1116.25"/>
      <point x="694.453125" y="1116.25" type="curve" smooth="yes"/>
      <point x="545.5" y="1116.25"/>
      <point x="412.578125" y="1053.8125"/>
      <point x="343.3125" y="937.71875" type="curve"/>
      <point x="333.96875" y="937.71875" type="line"/>
      <point x="308.9375" y="1096.140625" type="line"/>
      <point x="175.09375" y="1096.140625" type="line"/>
      <point x="175.09375" y="0.0" type="line"/>
      <point x="341.3125" y="0.0" type="line"/>
      <point x="341.3125" y="574.359375" type="line" smooth="yes"/>
      <point x="341.3125" y="834.625"/>
      <point x="428.171875" y="976.1875"/>
      <point x="671.296875" y="976.1875" type="curve" smooth="yes"/>
      <point x="842.578125" y="976.1875"/>
      <point x="924.84375" y="886.328125"/>
      <point x="924.84375" y="702.546875" type="curve" smooth="yes"/>
      <point x="924.84375" y="-155.578125" type="line" smooth="yes"/>
      <point x="924.84375" y="-414.828125"/>
      <point x="1043.78125" y="-491.234375"/>
      <point x="1191.96875" y="-491.234375" type="curve" smooth="yes"/>
      <point x="1248.09375" y="-491.234375"/>
      <point x="1305.21875" y="-476.78125"/>
      <point x="1333.0" y="-459.65625" type="curve"/>
      <point x="1333.0" y="-332.0625" type="line"/>
      <point x="1310.5625" y="-342.0625"/>
      <point x="1262.4375" y="-353.84375"/>
      <point x="1223.359375" y="-353.84375" type="curve" smooth="yes"/>
      <point x="1136.4375" y="-353.84375"/>
      <point x="1089.171875" y="-315.34375"/>
    </contour>
  </outline>
</glyph>
<glyph name="uni0274" format="2">
  <advance width="1278.359375"/>
  <unicode hex="0274"/>
  <anchor x="639.125" y="0.0" name="bottom"/>
  <anchor x="639.125" y="1096.140625" name="top"/>
  <anchor x="1178.421875" y="1096.140625" name="topright"/>
  <outline>
    <contour>
      <point x="173.5625" y="0.0" type="line"/>
      <point x="330.765625" y="0.0" type="line"/>
      <point x="330.765625" y="633.765625" type="line" smooth="yes"/>
      <point x="330.765625" y="696.5625"/>
      <point x="327.203125" y="840.046875"/>
      <point x="323.421875" y="896.234375" type="curve"/>
      <point x="904.0" y="0.0" type="line"/>
      <point x="1107.53125" y="0.0" type="line"/>
      <point x="1107.53125" y="1098.0" type="line"/>
      <point x="950.21875" y="1098.0" type="line"/>
      <point x="950.21875" y="447.25" type="line" smooth="yes"/>
      <point x="950.21875" y="393.84375"/>
      <point x="957.34375" y="258.8125"/>
      <point x="962.015625" y="200.421875" type="curve"/>
      <point x="375.53125" y="1098.0" type="line"/>
      <point x="173.5625" y="1098.0" type="line"/>
    </contour>
  </outline>
</glyph>
<glyph name="uni0276" format="2">
  <advance width="1765.9375"/>
  <unicode hex="0276"/>
  <anchor x="883.359375" y="0.0" name="bottom"/>
  <anchor x="883.359375" y="1096.140625" name="top"/>
  <outline>
    <contour>
      <point x="619.390625" y="1118.0" type="curve" smooth="yes"/>
      <point x="304.8125" y="1118.0"/>
      <point x="112.015625" y="909.28125"/>
      <point x="112.015625" y="551.4375" type="curve" smooth="yes"/>
      <point x="112.015625" y="190.484375"/>
      <point x="321.515625" y="-19.5625"/>
      <point x="613.15625" y="-19.5625" type="curve" smooth="yes"/>
      <point x="756.015625" y="-19.5625"/>
      <point x="870.0625" y="35.968750000000014"/>
      <point x="950.53125" y="131.34375000000003" type="curve"/>
      <point x="950.53125" y="0.0" type="line"/>
      <point x="1661.46875" y="0.0" type="line"/>
      <point x="1661.46875" y="139.171875" type="line"/>
      <point x="1107.734375" y="139.171875" type="line"/>
      <point x="1107.734375" y="504.234375" type="line"/>
      <point x="1628.6875" y="504.234375" type="line"/>
      <point x="1628.6875" y="642.515625" type="line"/>
      <point x="1107.734375" y="642.515625" type="line"/>
      <point x="1107.734375" y="958.828125" type="line"/>
      <point x="1661.46875" y="958.828125" type="line"/>
      <point x="1661.46875" y="1098.0" type="line"/>
      <point x="950.53125" y="1098.0" type="line"/>
      <point x="950.53125" y="966.625" type="line"/>
      <point x="870.0625" y="1063.890625"/>
      <point x="757.796875" y="1118.0"/>
    </contour>
    <contour>
      <point x="614.9375" y="977.9375" type="curve" smooth="yes"/>
      <point x="843.75" y="977.9375"/>
      <point x="950.3125" y="817.453125"/>
      <point x="950.3125" y="551.4375" type="curve" smooth="yes"/>
      <point x="950.3125" y="286.734375"/>
      <point x="844.1875" y="118.71874999999999"/>
      <point x="617.609375" y="118.71874999999999" type="curve" smooth="yes"/>
      <point x="387.8125" y="118.71874999999999"/>
      <point x="283.578125" y="287.171875"/>
      <point x="283.578125" y="551.4375" type="curve" smooth="yes"/>
      <point x="283.578125" y="815.484375"/>
      <point x="417.421875" y="977.9375"/>
    </contour>
  </outline>
</glyph>
<glyph name="omegaclosed" format="2">
  <advance width="1584.71875"/>
  <unicode hex="0277"/>
  <anchor x="792.46875" y="0.0" name="bottom"/>
  <anchor x="792.46875" y="1096.140625" name="top"/>
  <outline>
    <contour>
      <point x="795.8125" y="1116.25" type="curve" smooth="yes"/>
      <point x="346.0" y="1116.25"/>
      <point x="115.4375" y="863.171875"/>
      <point x="115.4375" y="467.1875" type="curve" smooth="yes"/>
      <point x="115.4375" y="171.8125"/>
      <point x="251.5625" y="-20.0"/>
      <point x="500.640625" y="-20.0" type="curve" smooth="yes"/>
      <point x="649.890625" y="-20.0"/>
      <point x="745.21875" y="44.96875"/>
      <point x="786.6875" y="166.625" type="curve"/>
      <point x="796.03125" y="166.625" type="line"/>
      <point x="839.5" y="44.96875"/>
      <point x="932.1875" y="-20.0"/>
      <point x="1083.640625" y="-20.0" type="curve" smooth="yes"/>
      <point x="1338.734375" y="-20.0"/>
      <point x="1469.28125" y="180.78125"/>
      <point x="1469.28125" y="467.1875" type="curve" smooth="yes"/>
      <point x="1469.28125" y="867.859375"/>
      <point x="1226.265625" y="1116.25"/>
    </contour>
    <contour>
      <point x="795.8125" y="977.75" type="curve" smooth="yes"/>
      <point x="1126.46875" y="977.75"/>
      <point x="1302.953125" y="790.28125"/>
      <point x="1302.953125" y="470.75" type="curve" smooth="yes"/>
      <point x="1302.953125" y="241.734375"/>
      <point x="1214.734375" y="118.28124999999999"/>
      <point x="1070.0625" y="118.28124999999999" type="curve" smooth="yes"/>
      <point x="943.234375" y="118.28124999999999"/>
      <point x="872.015625" y="215.8125"/>
      <point x="872.015625" y="390.078125" type="curve" smooth="yes"/>
      <point x="872.015625" y="667.0625" type="line"/>
      <point x="712.921875" y="667.0625" type="line"/>
      <point x="712.921875" y="390.078125" type="line" smooth="yes"/>
      <point x="712.921875" y="230.953125"/>
      <point x="648.734375" y="118.28124999999999"/>
      <point x="511.984375" y="118.28124999999999" type="curve" smooth="yes"/>
      <point x="371.078125" y="118.28124999999999"/>
      <point x="281.765625" y="239.65625"/>
      <point x="281.765625" y="470.75" type="curve" smooth="yes"/>
      <point x="281.765625" y="790.609375"/>
      <point x="462.71875" y="977.75"/>
    </contour>
  </outline>
</glyph>
<glyph name="uni0288" format="2">
  <advance width="729.59375"/>
  <unicode hex="0288"/>
  <anchor x="423.3125" y="-491.671875" name="bottom"/>
  <anchor x="311.171875" y="1350.0" name="top"/>
  <anchor x="677.90625" y="1350.0" name="topright"/>
  <outline>
    <contour>
      <point x="529.296875" y="-354.28125" type="curve" smooth="yes"/>
      <point x="422.828125" y="-354.28125"/>
      <point x="354.890625" y="-287.890625"/>
      <point x="354.890625" y="-150.171875" type="curve" smooth="yes"/>
      <point x="354.890625" y="965.875" type="line"/>
      <point x="675.71875" y="965.875" type="line"/>
      <point x="675.71875" y="1096.140625" type="line"/>
      <point x="354.890625" y="1096.140625" type="line"/>
      <point x="354.890625" y="1350.0" type="line"/>
      <point x="254.890625" y="1350.0" type="line"/>
      <point x="189.34375" y="1112.171875" type="line"/>
      <point x="31.578125" y="1047.390625" type="line"/>
      <point x="31.578125" y="965.875" type="line"/>
      <point x="187.78125" y="965.875" type="line"/>
      <point x="187.78125" y="-155.28125" type="line" smooth="yes"/>
      <point x="187.78125" y="-413.078125"/>
      <point x="327.71875" y="-491.671875"/>
      <point x="501.6875" y="-491.671875" type="curve" smooth="yes"/>
      <point x="567.453125" y="-491.671875"/>
      <point x="643.625" y="-477.0"/>
      <point x="683.28125" y="-459.4375" type="curve"/>
      <point x="683.28125" y="-331.84375" type="line"/>
      <point x="647.1875" y="-344.28125"/>
      <point x="583.9375" y="-354.28125"/>
    </contour>
  </outline>
</glyph>
<glyph name="uni028F" format="2">
  <advance width="958.203125"/>
  <unicode hex="028F"/>
  <anchor x="478.765625" y="0.0" name="bottom"/>
  <anchor x="478.765625" y="1096.140625" name="top"/>
  <outline>
    <contour>
      <point x="957.109375" y="1096.140625" type="line"/>
      <point x="769.75" y="1096.140625" type="line"/>
      <point x="480.109375" y="583.625" type="line"/>
      <point x="190.234375" y="1096.140625" type="line"/>
      <point x="1.0937500000000018" y="1096.140625" type="line"/>
      <point x="397.0" y="445.125" type="line"/>
      <point x="397.0" y="0.0" type="line"/>
      <point x="564.109375" y="0.0" type="line"/>
      <point x="564.109375" y="445.125" type="line"/>
    </contour>
  </outline>
</glyph>
<glyph name="uni029B" format="2">
  <advance width="1176.4375"/>
  <unicode hex="029B"/>
  <anchor x="588.21875" y="0.0" name="bottom"/>
  <anchor x="588.21875" y="1567.65625" name="top"/>
  <outline>
    <contour>
      <point x="1100.640625" y="1567.65625" type="curve" smooth="yes"/>
      <point x="936.03125" y="1567.65625"/>
      <point x="866.9375" y="1470.515625"/>
      <point x="866.9375" y="1295.390625" type="curve" smooth="yes"/>
      <point x="866.9375" y="1095.296875" type="line"/>
      <point x="807.75" y="1109.265625"/>
      <point x="739.34375" y="1116.6875"/>
      <point x="665.0625" y="1116.6875" type="curve" smooth="yes"/>
      <point x="352.71875" y="1116.6875"/>
      <point x="112.015625" y="938.15625"/>
      <point x="112.015625" y="543.0" type="curve" smooth="yes"/>
      <point x="112.015625" y="159.359375"/>
      <point x="321.234375" y="-19.5625"/>
      <point x="619.46875" y="-19.5625" type="curve" smooth="yes"/>
      <point x="777.171875" y="-19.5625"/>
      <point x="896.96875" y="8.4375"/>
      <point x="1026.90625" y="56.78125" type="curve"/>
      <point x="1026.90625" y="601.25" type="line"/>
      <point x="613.203125" y="601.25" type="line"/>
      <point x="613.203125" y="466.53125" type="line"/>
      <point x="860.796875" y="466.53125" type="line"/>
      <point x="860.796875" y="155.6875" type="line"/>
      <point x="785.234375" y="134.03125"/>
      <point x="719.75" y="124.06249999999999"/>
      <point x="619.0" y="124.06249999999999" type="curve" smooth="yes"/>
      <point x="399.0" y="124.06249999999999"/>
      <point x="283.796875" y="275.3125"/>
      <point x="283.796875" y="545.0" type="curve" smooth="yes"/>
      <point x="283.796875" y="821.953125"/>
      <point x="414.640625" y="971.28125"/>
      <point x="673.3125" y="971.28125" type="curve" smooth="yes"/>
      <point x="764.921875" y="971.28125"/>
      <point x="864.703125" y="942.28125"/>
      <point x="950.703125" y="899.0625" type="curve"/>
      <point x="1011.78125" y="1042.90625" type="line"/>
      <point x="1011.78125" y="1313.4375" type="line" smooth="yes"/>
      <point x="1011.78125" y="1387.84375"/>
      <point x="1049.625" y="1423.140625"/>
      <point x="1114.671875" y="1423.140625" type="curve" smooth="yes"/>
      <point x="1159.671875" y="1423.140625"/>
      <point x="1201.578125" y="1411.25"/>
      <point x="1221.0" y="1402.8125" type="curve"/>
      <point x="1221.0" y="1541.53125" type="line"/>
      <point x="1193.546875" y="1553.203125"/>
      <point x="1151.75" y="1567.65625"/>
    </contour>
  </outline>
</glyph>
<glyph name="uni029D" format="2">
  <advance width="516.625"/>
  <unicode hex="029D"/>
  <anchor x="258.421875" y="-492.0" name="bottom"/>
  <anchor x="258.421875" y="1505.5" name="top"/>
  <outline>
    <contour>
      <point x="75.765625" y="-492.0" type="curve" smooth="yes"/>
      <point x="221.890625" y="-492.0"/>
      <point x="335.75" y="-416.140625"/>
      <point x="341.09375" y="-147.546875" type="curve"/>
      <point x="495.421875" y="-147.546875" type="line"/>
      <point x="495.421875" y="-10.937500000000014" type="line"/>
      <point x="341.3125" y="-10.937500000000014" type="line"/>
      <point x="341.3125" y="1096.140625" type="line"/>
      <point x="175.09375" y="1096.140625" type="line"/>
      <point x="175.09375" y="-10.937500000000014" type="line"/>
      <point x="84.6875" y="-10.937500000000014" type="line" smooth="yes"/>
      <point x="-108.734375" y="-10.937500000000014"/>
      <point x="-191.609375" y="-108.09375000000001"/>
      <point x="-191.609375" y="-255.359375" type="curve" smooth="yes"/>
      <point x="-191.609375" y="-395.953125"/>
      <point x="-82.4375" y="-492.0"/>
    </contour>
    <contour>
      <point x="65.078125" y="-354.5" type="curve" smooth="yes"/>
      <point x="-9.796875000000007" y="-354.5"/>
      <point x="-34.187500000000014" y="-308.84375"/>
      <point x="-34.187500000000014" y="-251.796875" type="curve" smooth="yes"/>
      <point x="-34.187500000000014" y="-173.828125"/>
      <point x="21.812499999999986" y="-147.546875"/>
      <point x="94.03125" y="-147.546875" type="curve" smooth="yes"/>
      <point x="174.875" y="-147.546875" type="line"/>
      <point x="174.875" y="-183.640625" type="line" smooth="yes"/>
      <point x="174.875" y="-309.75"/>
      <point x="131.6875" y="-354.5"/>
    </contour>
    <contour>
      <point x="259.984375" y="1287.65625" type="curve" smooth="yes"/>
      <point x="315.21875" y="1287.65625"/>
      <point x="359.515625" y="1323.671875"/>
      <point x="359.515625" y="1396.96875" type="curve" smooth="yes"/>
      <point x="359.515625" y="1471.828125"/>
      <point x="315.21875" y="1505.5"/>
      <point x="259.984375" y="1505.5" type="curve" smooth="yes"/>
      <point x="202.953125" y="1505.5"/>
      <point x="160.0" y="1471.828125"/>
      <point x="160.0" y="1396.96875" type="curve" smooth="yes"/>
      <point x="160.0" y="1323.671875"/>
      <point x="202.953125" y="1287.65625"/>
    </contour>
  </outline>
</glyph>
<glyph name="uni029F" format="2">
  <advance width="891.4375"/>
  <unicode hex="029F"/>
  <anchor x="446.328125" y="0.0" name="bottom"/>
  <anchor x="446.328125" y="1096.140625" name="top"/>
  <outline>
    <contour>
      <point x="175.3125" y="0.0" type="line"/>
      <point x="852.90625" y="0.0" type="line"/>
      <point x="852.90625" y="139.171875" type="line"/>
      <point x="341.53125" y="139.171875" type="line"/>
      <point x="341.53125" y="1096.140625" type="line"/>
      <point x="175.3125" y="1096.140625" type="line"/>
    </contour>
  </outline>
</glyph>
<glyph name="uni02A7" format="2">
  <advance width="1044.734375"/>
  <unicode hex="02A7"/>
  <anchor x="651.671875" y="-492.0" name="bottom"/>
  <anchor x="857.40625" y="1566.5625" name="top"/>
  <outline>
    <contour>
      <point x="846.5625" y="-155.140625" type="curve" smooth="yes"/>
      <point x="846.5625" y="1228.359375" type="line" smooth="yes"/>
      <point x="846.5625" y="1389.6875"/>
      <point x="892.40625" y="1429.0625"/>
      <point x="981.328125" y="1429.0625" type="curve" smooth="yes"/>
      <point x="1018.109375" y="1429.0625"/>
      <point x="1062.921875" y="1417.9375"/>
      <point x="1085.59375" y="1408.59375" type="curve"/>
      <point x="1085.59375" y="1536.1875" type="line"/>
      <point x="1057.796875" y="1552.765625"/>
      <point x="1005.421875" y="1566.5625"/>
      <point x="948.59375" y="1566.5625" type="curve" smooth="yes"/>
      <point x="801.625" y="1566.5625"/>
      <point x="680.34375" y="1488.953125"/>
      <point x="680.34375" y="1230.796875" type="curve" smooth="yes"/>
      <point x="680.34375" y="1096.140625" type="line"/>
      <point x="354.890625" y="1096.140625" type="line"/>
      <point x="354.890625" y="1350.0" type="line"/>
      <point x="254.890625" y="1350.0" type="line"/>
      <point x="189.34375" y="1112.171875" type="line"/>
      <point x="31.578125" y="1047.390625" type="line"/>
      <point x="31.578125" y="965.875" type="line"/>
      <point x="187.78125" y="965.875" type="line"/>
      <point x="187.78125" y="315.5" type="line" smooth="yes"/>
      <point x="187.78125" y="57.70312500000001"/>
      <point x="327.71875" y="-20.0"/>
      <point x="503.984375" y="-20.0" type="curve" smooth="yes"/>
      <point x="565.640625" y="-20.0"/>
      <point x="638.25" y="-8.21875"/>
      <point x="680.34375" y="8.21875" type="curve"/>
      <point x="680.34375" y="-151.703125" type="line" smooth="yes"/>
      <point x="680.34375" y="-314.140625"/>
      <point x="635.59375" y="-354.5"/>
      <point x="546.671875" y="-354.5" type="curve" smooth="yes"/>
      <point x="508.140625" y="-354.5"/>
      <point x="462.234375" y="-342.9375"/>
      <point x="438.8125" y="-332.71875" type="curve"/>
      <point x="438.8125" y="-460.53125" type="line"/>
      <point x="467.140625" y="-477.875"/>
      <point x="521.0625" y="-492.0"/>
      <point x="579.625" y="-492.0" type="curve" smooth="yes"/>
      <point x="726.703125" y="-492.0"/>
      <point x="846.5625" y="-413.953125"/>
    </contour>
    <contour>
      <point x="531.59375" y="116.49999999999999" type="curve" smooth="yes"/>
      <point x="422.828125" y="116.49999999999999"/>
      <point x="354.890625" y="182.890625"/>
      <point x="354.890625" y="320.609375" type="curve" smooth="yes"/>
      <point x="354.890625" y="965.875" type="line"/>
      <point x="680.34375" y="965.875" type="line"/>
      <point x="680.34375" y="137.375" type="line"/>
      <point x="641.8125" y="124.71874999999999"/>
      <point x="582.125" y="116.49999999999999"/>
    </contour>
  </outline>
</glyph>
<glyph name="tcligcurl" format="2">
  <advance width="1749.359375"/>
  <unicode hex="02A8"/>
  <anchor x="1263.4375" y="-17.812499999999996" name="bottom"/>
  <anchor x="1263.4375" y="1350.0" name="top"/>
  <outline>
    <contour>
      <point x="503.984375" y="-20.0" type="curve" smooth="yes"/>
      <point x="673.765625" y="-20.0"/>
      <point x="799.78125" y="57.984375"/>
      <point x="912.375" y="143.765625" type="curve"/>
      <point x="1001.9375" y="31.875"/>
      <point x="1140.0625" y="-20.0"/>
      <point x="1308.0625" y="-20.0" type="curve" smooth="yes"/>
      <point x="1484.0" y="-20.0"/>
      <point x="1662.921875" y="64.421875"/>
      <point x="1662.921875" y="262.890625" type="curve" smooth="yes"/>
      <point x="1662.921875" y="408.15625"/>
      <point x="1548.125" y="508.1875"/>
      <point x="1355.0625" y="508.1875" type="curve" smooth="yes"/>
      <point x="1199.890625" y="508.1875"/>
      <point x="1086.71875" y="448.015625"/>
      <point x="988.5" y="373.28125" type="curve"/>
      <point x="976.21875" y="422.578125"/>
      <point x="967.484375" y="477.375"/>
      <point x="967.484375" y="543.90625" type="curve" smooth="yes"/>
      <point x="967.484375" y="821.078125"/>
      <point x="1080.90625" y="970.84375"/>
      <point x="1308.21875" y="970.84375" type="curve" smooth="yes"/>
      <point x="1384.4375" y="970.84375"/>
      <point x="1478.90625" y="945.375"/>
      <point x="1545.765625" y="919.0625" type="curve"/>
      <point x="1596.734375" y="1058.34375" type="line"/>
      <point x="1529.75" y="1091.234375"/>
      <point x="1421.46875" y="1116.25"/>
      <point x="1311.78125" y="1116.25" type="curve" smooth="yes"/>
      <point x="1012.84375" y="1116.25"/>
      <point x="795.8125" y="938.8125"/>
      <point x="795.8125" y="542.125" type="curve" smooth="yes"/>
      <point x="795.8125" y="429.734375"/>
      <point x="811.453125" y="337.109375"/>
      <point x="845.078125" y="259.46875" type="curve"/>
      <point x="746.859375" y="182.609375"/>
      <point x="645.203125" y="116.49999999999999"/>
      <point x="511.109375" y="116.49999999999999" type="curve" smooth="yes"/>
      <point x="425.015625" y="116.49999999999999"/>
      <point x="354.890625" y="181.796875"/>
      <point x="354.890625" y="320.609375" type="curve" smooth="yes"/>
      <point x="354.890625" y="965.875" type="line"/>
      <point x="675.71875" y="965.875" type="line"/>
      <point x="675.71875" y="1096.140625" type="line"/>
      <point x="354.890625" y="1096.140625" type="line"/>
      <point x="354.890625" y="1350.0" type="line"/>
      <point x="254.890625" y="1350.0" type="line"/>
      <point x="189.34375" y="1112.171875" type="line"/>
      <point x="31.578125" y="1047.390625" type="line"/>
      <point x="31.578125" y="965.875" type="line"/>
      <point x="187.78125" y="965.875" type="line"/>
      <point x="187.78125" y="315.5" type="line" smooth="yes"/>
      <point x="187.78125" y="57.70312500000001"/>
      <point x="329.03125" y="-20.0"/>
    </contour>
    <contour>
      <point x="1306.28125" y="118.28124999999999" type="curve" smooth="yes"/>
      <point x="1184.796875" y="118.28124999999999"/>
      <point x="1096.28125" y="162.15625"/>
      <point x="1040.328125" y="244.78125" type="curve"/>
      <point x="1131.09375" y="313.28125"/>
      <point x="1228.015625" y="369.796875"/>
      <point x="1343.9375" y="369.796875" type="curve" smooth="yes"/>
      <point x="1460.453125" y="369.796875"/>
      <point x="1505.5" y="314.8125"/>
      <point x="1505.5" y="258.890625" type="curve" smooth="yes"/>
      <point x="1505.5" y="174.234375"/>
      <point x="1423.5" y="118.28124999999999"/>
    </contour>
  </outline>
</glyph>
<glyph name="uni02A9" format="2">
  <advance width="1748.484375"/>
  <unicode hex="02A9"/>
  <anchor x="1120.5" y="-492.0" name="bottom"/>
  <anchor x="1137.421875" y="1567.0" name="top"/>
  <outline>
    <contour>
      <point x="1296.46875" y="-492.0" type="curve" smooth="yes"/>
      <point x="1489.0625" y="-492.0"/>
      <point x="1581.828125" y="-373.703125"/>
      <point x="1581.828125" y="-172.96875" type="curve" smooth="yes"/>
      <point x="1581.828125" y="716.125" type="line" smooth="yes"/>
      <point x="1581.828125" y="994.8125"/>
      <point x="1448.609375" y="1116.25"/>
      <point x="1184.328125" y="1116.25" type="curve" smooth="yes"/>
      <point x="1033.703125" y="1116.25"/>
      <point x="907.796875" y="1053.8125"/>
      <point x="838.53125" y="937.71875" type="curve"/>
      <point x="829.1875" y="937.71875" type="line"/>
      <point x="802.484375" y="1096.140625" type="line"/>
      <point x="390.09375" y="1096.140625" type="line"/>
      <point x="390.09375" y="1176.21875" type="line" smooth="yes"/>
      <point x="390.09375" y="1351.390625"/>
      <point x="449.078125" y="1429.609375"/>
      <point x="575.875" y="1429.609375" type="curve" smooth="yes"/>
      <point x="634.109375" y="1429.609375"/>
      <point x="693.109375" y="1414.375"/>
      <point x="738.546875" y="1399.9375" type="curve"/>
      <point x="782.171875" y="1531.3125" type="line"/>
      <point x="728.5" y="1548.875"/>
      <point x="658.125" y="1567.0"/>
      <point x="574.09375" y="1567.0" type="curve" smooth="yes"/>
      <point x="349.734375" y="1567.0"/>
      <point x="223.875" y="1449.78125"/>
      <point x="223.875" y="1174.4375" type="curve" smooth="yes"/>
      <point x="223.875" y="1101.484375" type="line"/>
      <point x="30.125" y="1045.609375" type="line"/>
      <point x="30.125" y="965.875" type="line"/>
      <point x="223.875" y="965.875" type="line"/>
      <point x="223.875" y="0.0" type="line"/>
      <point x="390.09375" y="0.0" type="line"/>
      <point x="390.09375" y="965.875" type="line"/>
      <point x="668.640625" y="965.875" type="line"/>
      <point x="668.640625" y="0.0" type="line"/>
      <point x="834.75" y="0.0" type="line"/>
      <point x="834.75" y="576.140625" type="line" smooth="yes"/>
      <point x="834.75" y="836.40625"/>
      <point x="921.71875" y="976.1875"/>
      <point x="1164.734375" y="976.1875" type="curve" smooth="yes"/>
      <point x="1333.453125" y="976.1875"/>
      <point x="1415.71875" y="888.109375"/>
      <point x="1415.71875" y="705.21875" type="curve" smooth="yes"/>
      <point x="1415.71875" y="-177.4375" type="line" smooth="yes"/>
      <point x="1415.71875" y="-309.78125"/>
      <point x="1357.265625" y="-352.71875"/>
      <point x="1275.984375" y="-352.71875" type="curve" smooth="yes"/>
      <point x="1227.859375" y="-352.71875"/>
      <point x="1190.203125" y="-345.15625"/>
      <point x="1152.765625" y="-332.5" type="curve"/>
      <point x="1152.765625" y="-467.4375" type="line"/>
      <point x="1187.546875" y="-481.21875"/>
      <point x="1232.109375" y="-492.0"/>
    </contour>
  </outline>
</glyph>
<glyph name="uni02AA" format="2">
  <advance width="1348.5625"/>
  <unicode hex="02AA"/>
  <anchor x="838.265625" y="0.0" name="bottom"/>
  <anchor x="808.875" y="1556.0" name="top"/>
  <outline>
    <contour>
      <point x="760.21875" y="-20.0" type="curve" smooth="yes"/>
      <point x="1078.375" y="-20.0"/>
      <point x="1256.125" y="90.21875"/>
      <point x="1256.125" y="299.828125" type="curve" smooth="yes"/>
      <point x="1256.125" y="479.21875"/>
      <point x="1128.234375" y="548.484375"/>
      <point x="922.296875" y="624.296875" type="curve" smooth="yes"/>
      <point x="716.328125" y="701.34375"/>
      <point x="636.671875" y="736.359375"/>
      <point x="636.671875" y="837.5625" type="curve" smooth="yes"/>
      <point x="636.671875" y="926.453125"/>
      <point x="721.15625" y="979.75"/>
      <point x="874.515625" y="979.75" type="curve" smooth="yes"/>
      <point x="980.734375" y="979.75"/>
      <point x="1084.8125" y="949.40625"/>
      <point x="1175.953125" y="910.625" type="curve"/>
      <point x="1232.6875" y="1043.5625" type="line"/>
      <point x="1132.4375" y="1088.359375"/>
      <point x="1017.765625" y="1116.25"/>
      <point x="885.203125" y="1116.25" type="curve" smooth="yes"/>
      <point x="640.953125" y="1116.25"/>
      <point x="477.46875" y="1012.578125"/>
      <point x="477.46875" y="827.765625" type="curve" smooth="yes"/>
      <point x="477.46875" y="645.46875"/>
      <point x="607.3125" y="583.3125"/>
      <point x="817.90625" y="504.046875" type="curve" smooth="yes"/>
      <point x="1029.078125" y="425.109375"/>
      <point x="1095.140625" y="376.109375"/>
      <point x="1095.140625" y="285.578125" type="curve" smooth="yes"/>
      <point x="1095.140625" y="180.890625"/>
      <point x="1007.28125" y="114.71874999999999"/>
      <point x="769.125" y="114.71874999999999" type="curve" smooth="yes"/>
      <point x="620.671875" y="114.71874999999999"/>
      <point x="469.140625" y="159.734375"/>
      <point x="341.53125" y="228.625" type="curve"/>
      <point x="341.53125" y="1556.0" type="line"/>
      <point x="175.3125" y="1556.0" type="line"/>
      <point x="175.3125" y="0.0" type="line"/>
      <point x="341.53125" y="0.0" type="line"/>
      <point x="341.53125" y="72.671875" type="line"/>
      <point x="455.140625" y="15.218750000000007"/>
      <point x="588.84375" y="-20.0"/>
    </contour>
  </outline>
</glyph>
<glyph name="uni02AB" format="2">
  <advance width="1217.71875"/>
  <unicode hex="02AB"/>
  <anchor x="725.71875" y="0.0" name="bottom"/>
  <anchor x="725.71875" y="1556.0" name="top"/>
  <outline>
    <contour>
      <point x="175.3125" y="0.0" type="line"/>
      <point x="1136.625" y="0.0" type="line"/>
      <point x="1136.625" y="129.375" type="line"/>
      <point x="530.78125" y="129.375" type="line"/>
      <point x="1124.8125" y="972.625" type="line"/>
      <point x="1124.8125" y="1096.140625" type="line"/>
      <point x="341.53125" y="1096.140625" type="line"/>
      <point x="341.53125" y="1556.0" type="line"/>
      <point x="175.3125" y="1556.0" type="line"/>
    </contour>
    <contour>
      <point x="341.53125" y="113.5625" type="line"/>
      <point x="341.53125" y="965.875" type="line"/>
      <point x="939.046875" y="965.875" type="line"/>
    </contour>
  </outline>
</glyph>
<glyph name="uni02AC" format="2">
  <advance width="1037.84375"/>
  <unicode hex="02AC"/>
  <anchor x="519.8125" y="0.0" name="bottom"/>
  <anchor x="519.8125" y="1462.0" name="top"/>
  <outline>
    <contour>
      <point x="1035.109375" y="1462.0" type="line"/>
      <point x="903.953125" y="1462.0" type="line"/>
      <point x="756.578125" y="931.0625" type="line"/>
      <point x="588.203125" y="1462.0" type="line"/>
      <point x="455.15625" y="1462.0" type="line"/>
      <point x="278.015625" y="932.84375" type="line"/>
      <point x="136.328125" y="1462.0" type="line"/>
      <point x="2.9531250000000036" y="1462.0" type="line"/>
      <point x="205.265625" y="774.4375" type="line"/>
      <point x="344.421875" y="774.4375" type="line"/>
      <point x="519.34375" y="1299.703125" type="line"/>
      <point x="689.171875" y="774.4375" type="line"/>
      <point x="833.21875" y="774.4375" type="line"/>
    </contour>
    <contour>
      <point x="1035.109375" y="687.5625" type="line"/>
      <point x="903.953125" y="687.5625" type="line"/>
      <point x="756.578125" y="156.515625" type="line"/>
      <point x="588.203125" y="687.5625" type="line"/>
      <point x="455.15625" y="687.5625" type="line"/>
      <point x="278.015625" y="158.296875" type="line"/>
      <point x="136.328125" y="687.5625" type="line"/>
      <point x="2.9531250000000036" y="687.5625" type="line"/>
      <point x="205.265625" y="0.0" type="line"/>
      <point x="344.421875" y="0.0" type="line"/>
      <point x="519.34375" y="525.15625" type="line"/>
      <point x="689.171875" y="0.0" type="line"/>
      <point x="833.21875" y="0.0" type="line"/>
    </contour>
  </outline>
</glyph>
<glyph name="uni02BE" format="2">
  <advance width="346.0"/>
  <unicode hex="02BE"/>
  <outline>
    <contour>
      <point x="61.0" y="1610.0" type="curve"/>
      <point x="61.0" y="1511.78125" type="line"/>
      <point x="139.703125" y="1511.78125"/>
      <point x="183.21875" y="1468.265625"/>
      <point x="183.21875" y="1393.0" type="curve" smooth="yes"/>
      <point x="183.21875" y="1316.734375"/>
      <point x="131.046875" y="1273.328125"/>
      <point x="61.0" y="1273.328125" type="curve"/>
      <point x="61.0" y="1178.0" type="line"/>
      <point x="195.0" y="1178.0"/>
      <point x="285.0" y="1257.0"/>
      <point x="285.0" y="1393.0" type="curve" smooth="yes"/>
      <point x="285.0" y="1530.0"/>
      <point x="195.0" y="1610.0"/>
    </contour>
  </outline>
</glyph>
<glyph name="macron" format="2">
  <advance width="762.59375"/>
  <unicode hex="02C9"/>
  <outline>
    <contour>
      <point x="680.59375" y="1377.359375" type="line"/>
      <point x="82.0" y="1377.359375" type="line"/>
      <point x="82.0" y="1242.75" type="line"/>
      <point x="680.59375" y="1242.75" type="line"/>
    </contour>
  </outline>
</glyph>
<glyph name="rhotichookmod" format="2">
  <advance width="493.28125"/>
  <unicode hex="02DE"/>
  <outline>
    <contour>
      <point x="264.90625" y="364.1875" type="curve" smooth="yes"/>
      <point x="347.078125" y="364.1875"/>
      <point x="429.03125" y="395.109375"/>
      <point x="493.28125" y="436.71875" type="curve"/>
      <point x="457.375" y="562.859375" type="line"/>
      <point x="408.125" y="532.046875"/>
      <point x="350.640625" y="511.140625"/>
      <point x="295.421875" y="511.140625" type="curve" smooth="yes"/>
      <point x="233.9375" y="511.140625"/>
      <point x="194.71875" y="552.109375"/>
      <point x="159.28125" y="675.84375" type="curve" smooth="yes"/>
      <point x="125.37499999999999" y="794.5625" type="line"/>
      <point x="-226.59375" y="702.3125" type="line"/>
      <point x="-193.21875" y="573.59375" type="line"/>
      <point x="7.78125" y="625.46875" type="line"/>
      <point x="63.484375" y="437.296875"/>
      <point x="148.5625" y="364.1875"/>
    </contour>
  </outline>
</glyph>
<glyph name="uni02EF" format="2">
  <advance width="833.671875"/>
  <unicode hex="02EF"/>
  <outline>
    <contour>
      <point x="370.953125" y="-482.265625" type="line"/>
      <point x="464.28125" y="-482.265625" type="line"/>
      <point x="751.671875" y="-42.35937500000001" type="line"/>
      <point x="602.9375" y="-42.35937500000001" type="line"/>
      <point x="416.78125" y="-316.359375" type="line"/>
      <point x="232.734375" y="-42.35937500000001" type="line"/>
      <point x="82.0" y="-42.35937500000001" type="line"/>
    </contour>
  </outline>
</glyph>
<glyph name="lefttackbelowcomb" format="2">
  <unicode hex="0318"/>
  <anchor x="0.0" y="0.0" name="_bottom"/>
  <anchor x="3.5624999999999996" y="-443.15625" name="bottom"/>
  <outline>
    <contour>
      <point x="-175.296875" y="-193.171875" type="line"/>
      <point x="-175.296875" y="-309.9375" type="line"/>
      <point x="47.515625" y="-309.9375" type="line"/>
      <point x="47.515625" y="-443.15625" type="line"/>
      <point x="175.296875" y="-443.15625" type="line"/>
      <point x="175.296875" y="-59.953125" type="line"/>
      <point x="47.515625" y="-59.953125" type="line"/>
      <point x="47.515625" y="-193.171875" type="line"/>
    </contour>
  </outline>
</glyph>
<glyph name="leftangleabovecomb" format="2">
  <unicode hex="031A"/>
  <anchor x="344.890625" y="1298.96875" name="_topright"/>
  <outline>
    <contour>
      <point x="-156.171875" y="1926.375" type="line"/>
      <point x="-156.171875" y="1809.828125" type="line"/>
      <point x="227.90625" y="1809.828125" type="line"/>
      <point x="227.90625" y="1445.765625" type="line"/>
      <point x="356.6875" y="1445.765625" type="line"/>
      <point x="356.6875" y="1926.375" type="line"/>
    </contour>
  </outline>
</glyph>
<glyph name="ringhalfleftbelowcomb" format="2">
  <unicode hex="031C"/>
  <anchor x="3.124999999999999" y="0.0" name="_bottom"/>
  <anchor x="6.687499999999998" y="-463.40625" name="bottom"/>
  <outline>
    <contour>
      <point x="114.34375" y="-463.40625" type="curve"/>
      <point x="114.34375" y="-365.40625" type="line"/>
      <point x="35.64062499999999" y="-365.40625"/>
      <point x="-7.875000000000014" y="-321.78125"/>
      <point x="-7.875000000000014" y="-246.40625" type="curve" smooth="yes"/>
      <point x="-7.875000000000014" y="-170.25"/>
      <point x="44.29687499999999" y="-126.734375"/>
      <point x="114.34375" y="-126.734375" type="curve"/>
      <point x="114.34375" y="-31.406250000000004" type="line"/>
      <point x="-18.765625" y="-31.406250000000004"/>
      <point x="-109.65625" y="-111.40625"/>
      <point x="-109.65625" y="-246.40625" type="curve" smooth="yes"/>
      <point x="-109.65625" y="-383.40625"/>
      <point x="-18.765625" y="-463.40625"/>
    </contour>
  </outline>
</glyph>
<glyph name="uptackbelowcomb" format="2">
  <unicode hex="031D"/>
  <anchor x="0.0" y="0.0" name="_bottom"/>
  <anchor x="3.5624999999999996" y="-422.390625" name="bottom"/>
  <outline>
    <contour>
      <point x="64.390625" y="-98.0" type="line"/>
      <point x="-64.390625" y="-98.0" type="line"/>
      <point x="-64.390625" y="-305.953125" type="line"/>
      <point x="-208.546875" y="-305.953125" type="line"/>
      <point x="-208.546875" y="-422.390625" type="line"/>
      <point x="208.546875" y="-422.390625" type="line"/>
      <point x="208.546875" y="-305.953125" type="line"/>
      <point x="64.390625" y="-305.953125" type="line"/>
    </contour>
  </outline>
</glyph>
<glyph name="hookretroflexbelowcomb" format="2">
  <unicode hex="0322"/>
  <anchor x="176.421875" y="0.0" name="_bottom"/>
  <anchor x="176.421875" y="-486.34375" name="bottom"/>
  <outline>
    <contour>
      <point x="233.875" y="-486.34375" type="curve" smooth="yes"/>
      <point x="283.125" y="-486.34375"/>
      <point x="327.03125" y="-471.90625"/>
      <point x="350.84375" y="-462.5625" type="curve"/>
      <point x="350.84375" y="-322.625" type="line"/>
      <point x="329.71875" y="-331.40625"/>
      <point x="292.28125" y="-341.625"/>
      <point x="248.1875" y="-341.625" type="curve" smooth="yes"/>
      <point x="187.734375" y="-341.625"/>
      <point x="150.734375" y="-306.21875"/>
      <point x="150.734375" y="-233.96875" type="curve" smooth="yes"/>
      <point x="150.734375" y="83.484375" type="line"/>
      <point x="0.0" y="83.484375" type="line"/>
      <point x="0.0" y="-222.875" type="line" smooth="yes"/>
      <point x="0.0" y="-391.4375"/>
      <point x="73.046875" y="-486.34375"/>
    </contour>
  </outline>
</glyph>
<glyph name="dotbelowcomb" format="2">
  <unicode hex="0323"/>
  <anchor x="-607.59375" y="0.0" name="_bottom"/>
  <anchor x="-605.8125" y="-350.8125" name="bottom"/>
  <outline>
    <contour>
      <point x="-609.59375" y="-350.8125" type="curve" smooth="yes"/>
      <point x="-553.46875" y="-350.8125"/>
      <point x="-509.171875" y="-315.6875"/>
      <point x="-509.171875" y="-242.390625" type="curve" smooth="yes"/>
      <point x="-509.171875" y="-167.53125"/>
      <point x="-553.46875" y="-133.078125"/>
      <point x="-609.59375" y="-133.078125" type="curve" smooth="yes"/>
      <point x="-665.734375" y="-133.078125"/>
      <point x="-710.46875" y="-167.53125"/>
      <point x="-710.46875" y="-242.390625" type="curve" smooth="yes"/>
      <point x="-710.46875" y="-315.6875"/>
      <point x="-665.734375" y="-350.8125"/>
    </contour>
  </outline>
</glyph>
<glyph name="dblarchinvertedbelowcomb" format="2">
  <unicode hex="032B"/>
  <anchor x="2.0" y="0.0" name="_bottom"/>
  <anchor x="5.5625" y="-358.9375" name="bottom"/>
  <outline>
    <contour>
      <point x="383.640625" y="-125.0" type="curve"/>
      <point x="279.0" y="-125.0" type="line"/>
      <point x="279.0" y="-217.0"/>
      <point x="230.5625" y="-260.0"/>
      <point x="163.34375" y="-260.0" type="curve" smooth="yes"/>
      <point x="88.6875" y="-260.0"/>
      <point x="47.25" y="-217.0"/>
      <point x="47.25" y="-125.0" type="curve"/>
      <point x="-47.6875" y="-125.0" type="line"/>
      <point x="-47.6875" y="-217.0"/>
      <point x="-94.90625" y="-260.0"/>
      <point x="-163.34375" y="-260.0" type="curve" smooth="yes"/>
      <point x="-237.453125" y="-260.0"/>
      <point x="-276.0" y="-217.0"/>
      <point x="-276.0" y="-125.0" type="curve"/>
      <point x="-381.640625" y="-125.0" type="line"/>
      <point x="-381.640625" y="-280.703125"/>
      <point x="-292.734375" y="-358.9375"/>
      <point x="-162.6875" y="-358.9375" type="curve" smooth="yes"/>
      <point x="-88.6875" y="-358.9375"/>
      <point x="-33.6875" y="-332.203125"/>
      <point x="0.0" y="-284.4375" type="curve"/>
      <point x="33.90625" y="-332.203125"/>
      <point x="86.90625" y="-358.9375"/>
      <point x="163.5625" y="-358.9375" type="curve" smooth="yes"/>
      <point x="290.953125" y="-358.9375"/>
      <point x="383.640625" y="-282.703125"/>
    </contour>
  </outline>
</glyph>
<glyph name="strokelongoverlaycomb" format="2">
  <unicode hex="0336"/>
  <anchor x="0.0" y="582.359375" name="_center"/>
  <outline>
    <contour>
      <point x="-740.609375" y="514.046875" type="line"/>
      <point x="740.609375" y="514.046875" type="line"/>
      <point x="740.609375" y="647.890625" type="line"/>
      <point x="-740.609375" y="647.890625" type="line"/>
    </contour>
  </outline>
</glyph>
<glyph name="slashshortoverlaycomb" format="2">
  <unicode hex="0337"/>
  <anchor x="2.0" y="591.046875" name="_center"/>
  <outline>
    <contour>
      <point x="-302.140625" y="485.859375" type="line"/>
      <point x="-233.5" y="372.046875" type="line"/>
      <point x="304.359375" y="692.78125" type="line"/>
      <point x="234.046875" y="808.046875" type="line"/>
    </contour>
  </outline>
</glyph>
<glyph name="slashlongoverlaycomb" format="2">
  <unicode hex="0338"/>
  <anchor x="0.0" y="717.4375" name="_center"/>
  <outline>
    <contour>
      <point x="399.4375" y="1552.765625" type="line"/>
      <point x="252.40625" y="1552.765625" type="line"/>
      <point x="-399.4375" y="-119.0" type="line"/>
      <point x="-252.40625" y="-119.0" type="line"/>
    </contour>
  </outline>
</glyph>
<glyph name="ringhalfrightbelowcomb" format="2">
  <unicode hex="0339"/>
  <anchor x="3.124999999999999" y="0.0" name="_bottom"/>
  <anchor x="6.687499999999998" y="-463.40625" name="bottom"/>
  <outline>
    <contour>
      <point x="-109.65625" y="-31.406250000000004" type="curve"/>
      <point x="-109.65625" y="-128.296875" type="line"/>
      <point x="-33.140625" y="-128.296875"/>
      <point x="12.562500000000007" y="-171.8125"/>
      <point x="12.562500000000007" y="-248.1875" type="curve" smooth="yes"/>
      <point x="12.562500000000007" y="-323.5625"/>
      <point x="-37.64062499999999" y="-366.96875"/>
      <point x="-109.65625" y="-366.96875" type="curve"/>
      <point x="-109.65625" y="-463.40625" type="line"/>
      <point x="24.234375" y="-463.40625"/>
      <point x="114.34375" y="-383.40625"/>
      <point x="114.34375" y="-248.1875" type="curve" smooth="yes"/>
      <point x="114.34375" y="-111.40625"/>
      <point x="24.234375" y="-31.406250000000004"/>
    </contour>
  </outline>
</glyph>
<glyph name="seagullbelowcomb" format="2">
  <unicode hex="033C"/>
  <anchor x="2.0" y="0.0" name="_bottom"/>
  <anchor x="5.5625" y="-358.9375" name="bottom"/>
  <outline>
    <contour>
      <point x="-381.640625" y="-358.9375" type="curve"/>
      <point x="-276.0" y="-358.9375" type="line"/>
      <point x="-276.0" y="-266.9375"/>
      <point x="-228.5625" y="-223.9375"/>
      <point x="-161.34375" y="-223.9375" type="curve" smooth="yes"/>
      <point x="-86.6875" y="-223.9375"/>
      <point x="-45.25" y="-266.9375"/>
      <point x="-45.25" y="-358.9375" type="curve"/>
      <point x="49.6875" y="-358.9375" type="line"/>
      <point x="49.6875" y="-266.9375"/>
      <point x="96.90625" y="-223.9375"/>
      <point x="165.34375" y="-223.9375" type="curve" smooth="yes"/>
      <point x="239.5625" y="-223.9375"/>
      <point x="279.0" y="-266.9375"/>
      <point x="279.0" y="-358.9375" type="curve"/>
      <point x="383.640625" y="-358.9375" type="line"/>
      <point x="383.640625" y="-203.90625"/>
      <point x="294.734375" y="-125.0"/>
      <point x="164.6875" y="-125.0" type="curve" smooth="yes"/>
      <point x="90.6875" y="-125.0"/>
      <point x="35.6875" y="-152.40625"/>
      <point x="2.0" y="-200.0625" type="curve"/>
      <point x="-31.90625" y="-152.40625"/>
      <point x="-84.90625" y="-125.0"/>
      <point x="-161.5625" y="-125.0" type="curve" smooth="yes"/>
      <point x="-288.953125" y="-125.0"/>
      <point x="-381.640625" y="-201.90625"/>
    </contour>
  </outline>
</glyph>
<glyph name="homotheticabovecomb" format="2">
  <unicode hex="034B"/>
  <anchor x="-2.21875" y="1096.140625" name="_top"/>
  <anchor x="3.124999999999999" y="1886.421875" name="top"/>
  <outline>
    <contour>
      <point x="373.578125" y="1666.59375" type="curve"/>
      <point x="276.484375" y="1666.59375" type="line"/>
      <point x="257.796875" y="1582.328125"/>
      <point x="228.359375" y="1540.59375"/>
      <point x="161.53125" y="1540.59375" type="curve" smooth="yes"/>
      <point x="69.734375" y="1540.59375"/>
      <point x="-28.484374999999996" y="1664.265625"/>
      <point x="-154.40625" y="1664.265625" type="curve" smooth="yes"/>
      <point x="-283.40625" y="1664.265625"/>
      <point x="-359.78125" y="1565.578125"/>
      <point x="-376.125" y="1405.65625" type="curve"/>
      <point x="-277.140625" y="1405.65625" type="line"/>
      <point x="-260.453125" y="1489.046875"/>
      <point x="-230.359375" y="1531.546875"/>
      <point x="-161.53125" y="1531.546875" type="curve" smooth="yes"/>
      <point x="-67.046875" y="1531.546875"/>
      <point x="33.828125" y="1407.875"/>
      <point x="154.40625" y="1407.875" type="curve" smooth="yes"/>
      <point x="283.40625" y="1407.875"/>
      <point x="357.78125" y="1508.5625"/>
    </contour>
    <contour>
      <point x="0.0" y="1380.28125" type="curve" smooth="yes"/>
      <point x="-51.25" y="1380.28125"/>
      <point x="-90.640625" y="1351.953125"/>
      <point x="-90.640625" y="1284.21875" type="curve" smooth="yes"/>
      <point x="-90.640625" y="1218.046875"/>
      <point x="-51.25" y="1186.484375"/>
      <point x="0.0" y="1186.484375" type="curve" smooth="yes"/>
      <point x="50.34375" y="1186.484375"/>
      <point x="91.078125" y="1218.046875"/>
      <point x="91.078125" y="1284.21875" type="curve" smooth="yes"/>
      <point x="91.078125" y="1351.953125"/>
      <point x="50.34375" y="1380.28125"/>
    </contour>
    <contour>
      <point x="-0.21875000000000022" y="1886.421875" type="curve" smooth="yes"/>
      <point x="-49.6875" y="1886.421875"/>
      <point x="-89.078125" y="1858.09375"/>
      <point x="-89.078125" y="1790.46875" type="curve" smooth="yes"/>
      <point x="-89.078125" y="1724.296875"/>
      <point x="-49.6875" y="1692.625"/>
      <point x="-0.21875000000000022" y="1692.625" type="curve" smooth="yes"/>
      <point x="50.125" y="1692.625"/>
      <point x="90.859375" y="1724.296875"/>
      <point x="90.859375" y="1790.46875" type="curve" smooth="yes"/>
      <point x="90.859375" y="1858.09375"/>
      <point x="50.125" y="1886.421875"/>
    </contour>
  </outline>
</glyph>
<glyph name="arrowleftrightbelowcomb" format="2">
  <unicode hex="034D"/>
  <anchor x="0.0" y="0.0" name="_bottom"/>
  <anchor x="3.5624999999999996" y="-441.34375" name="bottom"/>
  <outline>
    <contour>
      <point x="-347.28125" y="-260.0" type="line"/>
      <point x="-102.0" y="-441.34375" type="line"/>
      <point x="-102.0" y="-317.953125" type="line"/>
      <point x="102.0" y="-317.953125" type="line"/>
      <point x="102.0" y="-441.34375" type="line"/>
      <point x="347.28125" y="-260.4375" type="line"/>
      <point x="102.0" y="-79.765625" type="line"/>
      <point x="102.0" y="-203.046875" type="line"/>
      <point x="-102.0" y="-203.046875" type="line"/>
      <point x="-102.0" y="-79.765625" type="line"/>
    </contour>
  </outline>
</glyph>
<glyph name="arrowupbelowcomb" format="2">
  <unicode hex="034E"/>
  <anchor x="1.3437499999999991" y="0.0" name="_bottom"/>
  <anchor x="4.906249999999998" y="-486.53125" name="bottom"/>
  <outline>
    <contour>
      <point x="-61.73437499999999" y="-486.53125" type="line"/>
      <point x="64.09375" y="-486.53125" type="line"/>
      <point x="64.09375" y="-247.75" type="line"/>
      <point x="181.796875" y="-247.75" type="line"/>
      <point x="1.5624999999999996" y="-52.859375" type="line"/>
      <point x="-178.890625" y="-247.75" type="line"/>
      <point x="-61.73437499999999" y="-247.75" type="line"/>
    </contour>
  </outline>
</glyph>
